LongZhuTi-Regular.ufo
<glyph name="exclam" format="2">
  <advance width="400"/>
  <unicode hex="0021"/>
  <outline>
    <contour>
      <point x="251" y="218" type="line"/>
      <point x="151" y="218" type="line"/>
      <point x="125" y="775" type="line"/>
      <point x="276" y="775" type="line"/>
    </contour>
    <contour>
      <point x="200" y="-18" type="qcurve" smooth="yes"/>
      <point x="166" y="-18"/>
      <point x="116" y="31"/>
      <point x="116" y="65" type="qcurve" smooth="yes"/>
      <point x="116" y="100"/>
      <point x="166" y="149"/>
      <point x="200" y="149" type="qcurve" smooth="yes"/>
      <point x="235" y="149"/>
      <point x="284" y="100"/>
      <point x="284" y="65" type="qcurve" smooth="yes"/>
      <point x="284" y="31"/>
      <point x="235" y="-18"/>
    </contour>
  </outline>
</glyph>
<glyph name="quotedbl" format="2">
  <advance width="500"/>
  <unicode hex="0022"/>
  <outline>
    <contour>
      <point x="386" y="482" type="line"/>
      <point x="316" y="482" type="line"/>
      <point x="287" y="780" type="line"/>
      <point x="422" y="780" type="line"/>
    </contour>
    <contour>
      <point x="174" y="482" type="line"/>
      <point x="104" y="482" type="line"/>
      <point x="75" y="780" type="line"/>
      <point x="209" y="780" type="line"/>
    </contour>
  </outline>
</glyph>
<glyph name="numbersign" format="2">
  <advance width="690"/>
  <unicode hex="0023"/>
  <outline>
    <contour>
      <point x="419" y="0" type="line"/>
      <point x="322" y="0" type="line"/>
      <point x="365" y="198" type="line"/>
      <point x="225" y="198" type="line"/>
      <point x="183" y="0" type="line"/>
      <point x="85" y="0" type="line"/>
      <point x="128" y="198" type="line"/>
      <point x="23" y="198" type="line"/>
      <point x="23" y="323" type="line"/>
      <point x="155" y="323" type="line"/>
      <point x="190" y="484" type="line"/>
      <point x="83" y="484" type="line"/>
      <point x="83" y="609" type="line"/>
      <point x="217" y="609" type="line"/>
      <point x="255" y="780" type="line"/>
      <point x="349" y="780" type="line"/>
      <point x="313" y="609" type="line"/>
      <point x="454" y="609" type="line"/>
      <point x="491" y="780" type="line"/>
      <point x="586" y="780" type="line"/>
      <point x="550" y="609" type="line"/>
      <point x="664" y="609" type="line"/>
      <point x="664" y="484" type="line"/>
      <point x="522" y="484" type="line"/>
      <point x="489" y="323" type="line"/>
      <point x="605" y="323" type="line"/>
      <point x="605" y="198" type="line"/>
      <point x="461" y="198" type="line"/>
    </contour>
    <contour>
      <point x="392" y="323" type="line"/>
      <point x="427" y="484" type="line"/>
      <point x="285" y="484" type="line"/>
      <point x="252" y="323" type="line"/>
    </contour>
  </outline>
</glyph>
<glyph name="dollar" format="2">
  <advance width="690"/>
  <unicode hex="0024"/>
  <outline>
    <contour>
      <point x="386" y="-80" type="line"/>
      <point x="314" y="-80" type="line"/>
      <point x="314" y="4" type="line"/>
      <point x="205" y="15"/>
      <point x="72" y="119"/>
      <point x="46" y="195" type="qcurve"/>
      <point x="120" y="242" type="line"/>
      <point x="181" y="120"/>
      <point x="314" y="105" type="qcurve"/>
      <point x="314" y="355" type="line"/>
      <point x="247" y="375"/>
      <point x="140" y="420"/>
      <point x="77" y="498"/>
      <point x="77" y="570" type="qcurve" smooth="yes"/>
      <point x="77" y="654"/>
      <point x="202" y="770"/>
      <point x="314" y="779" type="qcurve"/>
      <point x="314" y="840" type="line"/>
      <point x="386" y="840" type="line"/>
      <point x="386" y="778" type="line"/>
      <point x="470" y="771"/>
      <point x="587" y="714"/>
      <point x="615" y="678" type="qcurve"/>
      <point x="587" y="525" type="line"/>
      <point x="521" y="525" type="line"/>
      <point x="511" y="603"/>
      <point x="442" y="679"/>
      <point x="386" y="686" type="qcurve"/>
      <point x="386" y="458" type="line"/>
      <point x="457" y="439"/>
      <point x="569" y="388"/>
      <point x="635" y="307"/>
      <point x="635" y="233" type="qcurve" smooth="yes"/>
      <point x="635" y="140"/>
      <point x="514" y="15"/>
      <point x="386" y="4" type="qcurve"/>
    </contour>
    <contour>
      <point x="314" y="481" type="qcurve"/>
      <point x="314" y="689" type="line"/>
      <point x="257" y="681"/>
      <point x="204" y="616"/>
      <point x="204" y="577" type="qcurve" smooth="yes"/>
      <point x="204" y="546"/>
      <point x="266" y="497"/>
    </contour>
    <contour>
      <point x="386" y="106" type="line"/>
      <point x="440" y="117"/>
      <point x="500" y="179"/>
      <point x="500" y="219" type="qcurve" smooth="yes"/>
      <point x="500" y="290"/>
      <point x="386" y="330" type="qcurve"/>
    </contour>
  </outline>
</glyph>
<glyph name="ampersand" format="2">
  <advance width="741"/>
  <unicode hex="0026"/>
  <outline>
    <contour>
      <point x="317" y="-18" type="qcurve" smooth="yes"/>
      <point x="223" y="-18"/>
      <point x="102" y="43"/>
      <point x="46" y="149"/>
      <point x="46" y="213" type="qcurve" smooth="yes"/>
      <point x="46" y="263"/>
      <point x="120" y="369"/>
      <point x="199" y="414" type="qcurve"/>
      <point x="114" y="544"/>
      <point x="114" y="613" type="qcurve" smooth="yes"/>
      <point x="114" y="690"/>
      <point x="216" y="799"/>
      <point x="315" y="799" type="qcurve" smooth="yes"/>
      <point x="383" y="799"/>
      <point x="471" y="750"/>
      <point x="515" y="668"/>
      <point x="515" y="618" type="qcurve" smooth="yes"/>
      <point x="515" y="481"/>
      <point x="351" y="396" type="qcurve"/>
      <point x="412" y="315"/>
      <point x="512" y="224" type="qcurve"/>
      <point x="520" y="241"/>
      <point x="542" y="311"/>
      <point x="542" y="333" type="qcurve" smooth="yes"/>
      <point x="542" y="380"/>
      <point x="484" y="410" type="qcurve"/>
      <point x="503" y="460" type="line"/>
      <point x="673" y="418" type="line"/>
      <point x="657" y="265"/>
      <point x="592" y="155" type="qcurve"/>
      <point x="660" y="100"/>
      <point x="732" y="48" type="qcurve"/>
      <point x="684" y="-17" type="line"/>
      <point x="618" y="18"/>
      <point x="534" y="77" type="qcurve"/>
      <point x="443" y="-18"/>
    </contour>
    <contour>
      <point x="300" y="462" type="qcurve"/>
      <point x="403" y="514"/>
      <point x="403" y="614" type="qcurve" smooth="yes"/>
      <point x="403" y="658"/>
      <point x="356" y="717"/>
      <point x="318" y="717" type="qcurve" smooth="yes"/>
      <point x="282" y="717"/>
      <point x="236" y="651"/>
      <point x="236" y="613" type="qcurve" smooth="yes"/>
      <point x="236" y="553"/>
    </contour>
    <contour>
      <point x="328" y="73" type="qcurve" smooth="yes"/>
      <point x="399" y="73"/>
      <point x="456" y="137" type="qcurve"/>
      <point x="354" y="216"/>
      <point x="248" y="348" type="qcurve"/>
      <point x="178" y="295"/>
      <point x="178" y="222" type="qcurve" smooth="yes"/>
      <point x="178" y="194"/>
      <point x="204" y="125"/>
      <point x="270" y="73"/>
    </contour>
  </outline>
</glyph>
<glyph name="quotesingle" format="2">
  <advance width="345"/>
  <unicode hex="0027"/>
  <outline>
    <contour>
      <point x="208" y="481" type="line"/>
      <point x="126" y="481" type="line"/>
      <point x="95" y="780" type="line"/>
      <point x="246" y="780" type="line"/>
    </contour>
  </outline>
</glyph>
<glyph name="parenleft" format="2">
  <advance width="400"/>
  <unicode hex="0028"/>
  <outline>
    <contour>
      <point x="308" y="-75" type="line"/>
      <point x="198" y="6"/>
      <point x="72" y="239"/>
      <point x="72" y="375" type="qcurve" smooth="yes"/>
      <point x="72" y="471"/>
      <point x="135" y="639"/>
      <point x="240" y="776"/>
      <point x="308" y="825" type="qcurve"/>
      <point x="370" y="785" type="line"/>
      <point x="326" y="746"/>
      <point x="247" y="626"/>
      <point x="196" y="468"/>
      <point x="196" y="375" type="qcurve" smooth="yes"/>
      <point x="196" y="285"/>
      <point x="244" y="129"/>
      <point x="323" y="6"/>
      <point x="370" y="-36" type="qcurve"/>
    </contour>
  </outline>
</glyph>
<glyph name="parenright" format="2">
  <advance width="400"/>
  <unicode hex="0029"/>
  <outline>
    <contour>
      <point x="92" y="-75" type="qcurve"/>
      <point x="30" y="-35" type="line"/>
      <point x="76" y="6"/>
      <point x="155" y="128"/>
      <point x="204" y="284"/>
      <point x="204" y="375" type="qcurve" smooth="yes"/>
      <point x="204" y="464"/>
      <point x="156" y="620"/>
      <point x="77" y="743"/>
      <point x="30" y="785" type="qcurve"/>
      <point x="92" y="825" type="line"/>
      <point x="201" y="745"/>
      <point x="328" y="510"/>
      <point x="328" y="375" type="qcurve" smooth="yes"/>
      <point x="328" y="279"/>
      <point x="266" y="111"/>
      <point x="160" y="-25"/>
    </contour>
  </outline>
</glyph>
<glyph name="asterisk" format="2">
  <advance width="500"/>
  <unicode hex="002A"/>
  <outline>
    <contour>
      <point x="328" y="350" type="line"/>
      <point x="250" y="473" type="line"/>
      <point x="171" y="351" type="line"/>
      <point x="92" y="398" type="line"/>
      <point x="158" y="525" type="line"/>
      <point x="16" y="532" type="line"/>
      <point x="16" y="623" type="line"/>
      <point x="158" y="632" type="line"/>
      <point x="91" y="760" type="line"/>
      <point x="171" y="807" type="line"/>
      <point x="250" y="684" type="line"/>
      <point x="327" y="807" type="line"/>
      <point x="408" y="760" type="line"/>
      <point x="342" y="631" type="line"/>
      <point x="483" y="623" type="line"/>
      <point x="483" y="533" type="line"/>
      <point x="342" y="525" type="line"/>
      <point x="408" y="398" type="line"/>
    </contour>
  </outline>
</glyph>
<glyph name="plus" format="2">
  <advance width="690"/>
  <unicode hex="002B"/>
  <outline>
    <contour>
      <point x="402" y="100" type="line"/>
      <point x="281" y="100" type="line"/>
      <point x="281" y="324" type="line"/>
      <point x="56" y="324" type="line"/>
      <point x="56" y="439" type="line"/>
      <point x="281" y="439" type="line"/>
      <point x="281" y="655" type="line"/>
      <point x="402" y="655" type="line"/>
      <point x="402" y="439" type="line"/>
      <point x="633" y="439" type="line"/>
      <point x="633" y="324" type="line"/>
      <point x="402" y="324" type="line"/>
    </contour>
  </outline>
</glyph>
<glyph name="hyphen" format="2">
  <advance width="500"/>
  <unicode hex="002D"/>
  <unicode hex="2011"/>
  <outline>
    <contour>
      <point x="436" y="314" type="line"/>
      <point x="64" y="314" type="line"/>
      <point x="64" y="432" type="line"/>
      <point x="436" y="432" type="line"/>
    </contour>
  </outline>
</glyph>
<glyph name="period" format="2">
  <advance width="345"/>
  <unicode hex="002E"/>
  <outline>
    <contour>
      <point x="174" y="-13" type="qcurve" smooth="yes"/>
      <point x="137" y="-13"/>
      <point x="85" y="38"/>
      <point x="85" y="75" type="qcurve" smooth="yes"/>
      <point x="85" y="113"/>
      <point x="137" y="164"/>
      <point x="174" y="164" type="qcurve" smooth="yes"/>
      <point x="212" y="164"/>
      <point x="263" y="113"/>
      <point x="263" y="75" type="qcurve" smooth="yes"/>
      <point x="263" y="38"/>
      <point x="212" y="-13"/>
    </contour>
  </outline>
</glyph>
<glyph name="slash" format="2">
  <advance width="500"/>
  <unicode hex="002F"/>
  <outline>
    <contour>
      <point x="115" y="-75" type="line"/>
      <point x="21" y="-45" type="line"/>
      <point x="384" y="825" type="line"/>
      <point x="479" y="795" type="line"/>
    </contour>
  </outline>
</glyph>
<glyph name="zero" format="2">
  <advance width="690"/>
  <unicode hex="0030"/>
  <outline>
    <contour>
      <point x="345" y="-18" type="qcurve" smooth="yes"/>
      <point x="269" y="-18"/>
      <point x="135" y="74"/>
      <point x="51" y="256"/>
      <point x="51" y="391" type="qcurve" smooth="yes"/>
      <point x="51" y="505"/>
      <point x="129" y="690"/>
      <point x="263" y="799"/>
      <point x="345" y="799" type="qcurve" smooth="yes"/>
      <point x="426" y="799"/>
      <point x="560" y="694"/>
      <point x="640" y="510"/>
      <point x="640" y="391" type="qcurve" smooth="yes"/>
      <point x="640" y="262"/>
      <point x="557" y="79"/>
      <point x="422" y="-18"/>
    </contour>
    <contour>
      <point x="345" y="87" type="qcurve" smooth="yes"/>
      <point x="419" y="87"/>
      <point x="502" y="261"/>
      <point x="502" y="391" type="qcurve" smooth="yes"/>
      <point x="502" y="520"/>
      <point x="417" y="693"/>
      <point x="345" y="693" type="qcurve" smooth="yes"/>
      <point x="296" y="693"/>
      <point x="226" y="612"/>
      <point x="189" y="475"/>
      <point x="189" y="391" type="qcurve" smooth="yes"/>
      <point x="189" y="312"/>
      <point x="223" y="172"/>
      <point x="293" y="87"/>
    </contour>
  </outline>
</glyph>
<glyph name="one" format="2">
  <advance width="500"/>
  <unicode hex="0031"/>
  <outline>
    <contour>
      <point x="242" y="-13" type="line"/>
      <point x="242" y="626" type="line"/>
      <point x="110" y="556" type="line"/>
      <point x="77" y="612" type="line"/>
      <point x="248" y="790" type="line"/>
      <point x="387" y="760" type="line"/>
      <point x="367" y="6" type="line"/>
    </contour>
  </outline>
</glyph>
<glyph name="three" format="2">
  <advance width="690"/>
  <unicode hex="0033"/>
  <outline>
    <contour>
      <point x="334" y="-18" type="qcurve" smooth="yes"/>
      <point x="134" y="-18"/>
      <point x="43" y="147" type="qcurve"/>
      <point x="98" y="207" type="line"/>
      <point x="140" y="143"/>
      <point x="266" y="84"/>
      <point x="332" y="84" type="qcurve" smooth="yes"/>
      <point x="406" y="84"/>
      <point x="489" y="162"/>
      <point x="489" y="222" type="qcurve" smooth="yes"/>
      <point x="489" y="291"/>
      <point x="398" y="361"/>
      <point x="332" y="361" type="qcurve" smooth="yes"/>
      <point x="225" y="361" type="line"/>
      <point x="206" y="448" type="line"/>
      <point x="263" y="451"/>
      <point x="316" y="460" type="qcurve"/>
      <point x="456" y="490"/>
      <point x="456" y="584" type="qcurve" smooth="yes"/>
      <point x="456" y="699"/>
      <point x="329" y="699" type="qcurve" smooth="yes"/>
      <point x="210" y="699"/>
      <point x="147" y="601" type="qcurve"/>
      <point x="75" y="634" type="line"/>
      <point x="98" y="706"/>
      <point x="232" y="799"/>
      <point x="346" y="799" type="qcurve" smooth="yes"/>
      <point x="432" y="799"/>
      <point x="543" y="743"/>
      <point x="598" y="651"/>
      <point x="598" y="598" type="qcurve" smooth="yes"/>
      <point x="598" y="544"/>
      <point x="530" y="441"/>
      <point x="455" y="421" type="qcurve"/>
      <point x="532" y="410"/>
      <point x="630" y="297"/>
      <point x="630" y="217" type="qcurve" smooth="yes"/>
      <point x="630" y="148"/>
      <point x="569" y="42"/>
      <point x="438" y="-18"/>
    </contour>
  </outline>
</glyph>
<glyph name="four" format="2">
  <advance width="690"/>
  <unicode hex="0034"/>
  <outline>
    <contour>
      <point x="399" y="-13" type="line"/>
      <point x="399" y="134" type="line"/>
      <point x="57" y="134" type="line"/>
      <point x="27" y="235" type="line"/>
      <point x="193" y="459"/>
      <point x="333" y="801" type="qcurve"/>
      <point x="482" y="758" type="line"/>
      <point x="314" y="442"/>
      <point x="144" y="238" type="qcurve"/>
      <point x="399" y="248" type="line"/>
      <point x="399" y="598" type="line"/>
      <point x="538" y="588" type="line"/>
      <point x="526" y="253" type="line"/>
      <point x="660" y="258" type="line"/>
      <point x="660" y="134" type="line"/>
      <point x="522" y="134" type="line"/>
      <point x="518" y="6" type="line"/>
    </contour>
  </outline>
</glyph>
<glyph name="six" format="2">
  <advance width="690"/>
  <unicode hex="0036"/>
  <outline>
    <contour>
      <point x="358" y="-18" type="qcurve" smooth="yes"/>
      <point x="264" y="-18"/>
      <point x="126" y="67"/>
      <point x="50" y="242"/>
      <point x="50" y="377" type="qcurve" smooth="yes"/>
      <point x="50" y="521"/>
      <point x="141" y="708"/>
      <point x="291" y="799"/>
      <point x="381" y="799" type="qcurve" smooth="yes"/>
      <point x="554" y="799"/>
      <point x="621" y="689" type="qcurve"/>
      <point x="565" y="632" type="line"/>
      <point x="508" y="699"/>
      <point x="392" y="699" type="qcurve" smooth="yes"/>
      <point x="340" y="699"/>
      <point x="246" y="642"/>
      <point x="186" y="515"/>
      <point x="186" y="410" type="qcurve"/>
      <point x="207" y="457"/>
      <point x="310" y="514"/>
      <point x="371" y="514" type="qcurve" smooth="yes"/>
      <point x="448" y="514"/>
      <point x="575" y="464"/>
      <point x="652" y="353"/>
      <point x="652" y="258" type="qcurve" smooth="yes"/>
      <point x="652" y="128"/>
      <point x="490" y="-18"/>
    </contour>
    <contour>
      <point x="355" y="78" type="qcurve" smooth="yes"/>
      <point x="423" y="78"/>
      <point x="516" y="164"/>
      <point x="516" y="249" type="qcurve" smooth="yes"/>
      <point x="516" y="330"/>
      <point x="427" y="414"/>
      <point x="356" y="414" type="qcurve" smooth="yes"/>
      <point x="296" y="414"/>
      <point x="208" y="337"/>
      <point x="197" y="276" type="qcurve"/>
      <point x="197" y="191"/>
      <point x="291" y="78"/>
    </contour>
  </outline>
</glyph>
<glyph name="seven" format="2">
  <advance width="690"/>
  <unicode hex="0037"/>
  <outline>
    <contour>
      <point x="348" y="-12" type="qcurve"/>
      <point x="195" y="9" type="line"/>
      <point x="211" y="213"/>
      <point x="385" y="561"/>
      <point x="482" y="654" type="qcurve"/>
      <point x="84" y="654" type="line"/>
      <point x="59" y="750" type="line"/>
      <point x="591" y="780" type="line"/>
      <point x="645" y="667" type="line"/>
      <point x="505" y="563"/>
      <point x="348" y="197"/>
    </contour>
  </outline>
</glyph>
<glyph name="eight" format="2">
  <advance width="690"/>
  <unicode hex="0038"/>
  <outline>
    <contour>
      <point x="345" y="-18" type="qcurve" smooth="yes"/>
      <point x="248" y="-18"/>
      <point x="116" y="47"/>
      <point x="49" y="156"/>
      <point x="49" y="222" type="qcurve" smooth="yes"/>
      <point x="49" y="285"/>
      <point x="136" y="389"/>
      <point x="203" y="414" type="qcurve"/>
      <point x="80" y="480"/>
      <point x="80" y="596" type="qcurve" smooth="yes"/>
      <point x="80" y="691"/>
      <point x="231" y="799"/>
      <point x="345" y="799" type="qcurve" smooth="yes"/>
      <point x="461" y="799"/>
      <point x="606" y="692"/>
      <point x="606" y="596" type="qcurve" smooth="yes"/>
      <point x="606" y="485"/>
      <point x="482" y="436" type="qcurve"/>
      <point x="646" y="374"/>
      <point x="646" y="222" type="qcurve" smooth="yes"/>
      <point x="646" y="159"/>
      <point x="578" y="49"/>
      <point x="446" y="-18"/>
    </contour>
    <contour>
      <point x="368" y="469" type="qcurve"/>
      <point x="493" y="503"/>
      <point x="493" y="586" type="qcurve" smooth="yes"/>
      <point x="493" y="634"/>
      <point x="420" y="700"/>
      <point x="345" y="700" type="qcurve" smooth="yes"/>
      <point x="281" y="700"/>
      <point x="211" y="633"/>
      <point x="211" y="586" type="qcurve" smooth="yes"/>
      <point x="211" y="547"/>
      <point x="282" y="494"/>
    </contour>
    <contour>
      <point x="346" y="88" type="qcurve" smooth="yes"/>
      <point x="388" y="88"/>
      <point x="460" y="119"/>
      <point x="504" y="181"/>
      <point x="504" y="229" type="qcurve" smooth="yes"/>
      <point x="504" y="280"/>
      <point x="418" y="347"/>
      <point x="308" y="378" type="qcurve"/>
      <point x="239" y="359"/>
      <point x="172" y="276"/>
      <point x="172" y="231" type="qcurve" smooth="yes"/>
      <point x="172" y="161"/>
      <point x="270" y="88"/>
    </contour>
  </outline>
</glyph>
<glyph name="nine" format="2">
  <advance width="690"/>
  <unicode hex="0039"/>
  <outline>
    <contour>
      <point x="316" y="-18" type="qcurve" smooth="yes"/>
      <point x="240" y="-18"/>
      <point x="112" y="33"/>
      <point x="76" y="91" type="qcurve"/>
      <point x="132" y="148" type="line"/>
      <point x="162" y="114"/>
      <point x="256" y="81"/>
      <point x="305" y="81" type="qcurve" smooth="yes"/>
      <point x="356" y="81"/>
      <point x="452" y="138"/>
      <point x="515" y="265"/>
      <point x="515" y="370" type="qcurve"/>
      <point x="494" y="324"/>
      <point x="389" y="266"/>
      <point x="326" y="266" type="qcurve" smooth="yes"/>
      <point x="197" y="266"/>
      <point x="45" y="395"/>
      <point x="45" y="522" type="qcurve" smooth="yes"/>
      <point x="45" y="654"/>
      <point x="209" y="799"/>
      <point x="339" y="799" type="qcurve" smooth="yes"/>
      <point x="431" y="799"/>
      <point x="569" y="716"/>
      <point x="647" y="541"/>
      <point x="647" y="403" type="qcurve" smooth="yes"/>
      <point x="647" y="259"/>
      <point x="557" y="73"/>
      <point x="406" y="-18"/>
    </contour>
    <contour>
      <point x="341" y="366" type="qcurve" smooth="yes"/>
      <point x="403" y="366"/>
      <point x="494" y="444"/>
      <point x="504" y="504" type="qcurve"/>
      <point x="504" y="591"/>
      <point x="407" y="702"/>
      <point x="342" y="702" type="qcurve" smooth="yes"/>
      <point x="275" y="702"/>
      <point x="181" y="617"/>
      <point x="181" y="531" type="qcurve" smooth="yes"/>
      <point x="181" y="449"/>
      <point x="274" y="366"/>
    </contour>
  </outline>
</glyph>
<glyph name="colon" format="2">
  <advance width="400"/>
  <unicode hex="003A"/>
  <outline>
    <contour>
      <point x="202" y="404" type="qcurve" smooth="yes"/>
      <point x="168" y="404"/>
      <point x="118" y="454"/>
      <point x="118" y="488" type="qcurve" smooth="yes"/>
      <point x="118" y="523"/>
      <point x="168" y="572"/>
      <point x="202" y="572" type="qcurve" smooth="yes"/>
      <point x="237" y="572"/>
      <point x="286" y="523"/>
      <point x="286" y="488" type="qcurve" smooth="yes"/>
      <point x="286" y="454"/>
      <point x="237" y="404"/>
    </contour>
    <contour>
      <point x="202" y="-13" type="qcurve" smooth="yes"/>
      <point x="168" y="-13"/>
      <point x="118" y="36"/>
      <point x="118" y="70" type="qcurve" smooth="yes"/>
      <point x="118" y="105"/>
      <point x="168" y="154"/>
      <point x="202" y="154" type="qcurve" smooth="yes"/>
      <point x="237" y="154"/>
      <point x="286" y="105"/>
      <point x="286" y="70" type="qcurve" smooth="yes"/>
      <point x="286" y="36"/>
      <point x="237" y="-13"/>
    </contour>
  </outline>
</glyph>
<glyph name="semicolon" format="2">
  <advance width="400"/>
  <unicode hex="003B"/>
  <outline>
    <contour>
      <point x="202" y="404" type="qcurve" smooth="yes"/>
      <point x="168" y="404"/>
      <point x="118" y="454"/>
      <point x="118" y="488" type="qcurve" smooth="yes"/>
      <point x="118" y="523"/>
      <point x="168" y="572"/>
      <point x="202" y="572" type="qcurve" smooth="yes"/>
      <point x="237" y="572"/>
      <point x="286" y="523"/>
      <point x="286" y="488" type="qcurve" smooth="yes"/>
      <point x="286" y="454"/>
      <point x="237" y="404"/>
    </contour>
    <contour>
      <point x="178" y="-118" type="qcurve"/>
      <point x="147" y="-96" type="line"/>
      <point x="191" y="-57"/>
      <point x="205" y="2" type="qcurve"/>
      <point x="171" y="2"/>
      <point x="118" y="41"/>
      <point x="118" y="78" type="qcurve" smooth="yes"/>
      <point x="118" y="114"/>
      <point x="164" y="160"/>
      <point x="200" y="160" type="qcurve" smooth="yes"/>
      <point x="238" y="160"/>
      <point x="281" y="111"/>
      <point x="281" y="76" type="qcurve" smooth="yes"/>
      <point x="281" y="27"/>
      <point x="225" y="-86"/>
    </contour>
  </outline>
</glyph>
<glyph name="less" format="2">
  <advance width="690"/>
  <unicode hex="003C"/>
  <outline>
    <contour>
      <point x="562" y="-18" type="line"/>
      <point x="86" y="211" type="line"/>
      <point x="86" y="342" type="line"/>
      <point x="562" y="572" type="line"/>
      <point x="562" y="479" type="line"/>
      <point x="214" y="277" type="line"/>
      <point x="562" y="78" type="line"/>
    </contour>
  </outline>
</glyph>
<glyph name="equal" format="2">
  <advance width="690"/>
  <unicode hex="003D"/>
  <outline>
    <contour>
      <point x="620" y="443" type="line"/>
      <point x="70" y="443" type="line"/>
      <point x="70" y="547" type="line"/>
      <point x="620" y="547" type="line"/>
    </contour>
    <contour>
      <point x="620" y="201" type="line"/>
      <point x="70" y="201" type="line"/>
      <point x="70" y="306" type="line"/>
      <point x="620" y="306" type="line"/>
    </contour>
  </outline>
</glyph>
<glyph name="greater" format="2">
  <advance width="690"/>
  <unicode hex="003E"/>
  <outline>
    <contour>
      <point x="128" y="-17" type="line"/>
      <point x="128" y="78" type="line"/>
      <point x="476" y="277" type="line"/>
      <point x="128" y="479" type="line"/>
      <point x="128" y="572" type="line"/>
      <point x="604" y="342" type="line"/>
      <point x="604" y="211" type="line"/>
    </contour>
  </outline>
</glyph>
<glyph name="question" format="2">
  <advance width="690"/>
  <unicode hex="003F"/>
  <outline>
    <contour>
      <point x="378" y="222" type="line"/>
      <point x="294" y="222" type="line"/>
      <point x="292" y="276" type="line"/>
      <point x="292" y="338"/>
      <point x="332" y="421"/>
      <point x="387" y="459" type="qcurve" smooth="yes"/>
      <point x="461" y="510"/>
      <point x="461" y="581" type="qcurve" smooth="yes"/>
      <point x="461" y="638"/>
      <point x="386" y="695"/>
      <point x="333" y="695" type="qcurve" smooth="yes"/>
      <point x="281" y="695"/>
      <point x="188" y="642"/>
      <point x="158" y="587" type="qcurve"/>
      <point x="84" y="625" type="line"/>
      <point x="95" y="668"/>
      <point x="158" y="747"/>
      <point x="265" y="799"/>
      <point x="343" y="799" type="qcurve" smooth="yes"/>
      <point x="433" y="799"/>
      <point x="552" y="741"/>
      <point x="611" y="644"/>
      <point x="611" y="587" type="qcurve" smooth="yes"/>
      <point x="611" y="505"/>
      <point x="527" y="402"/>
      <point x="445" y="358" type="qcurve" smooth="yes"/>
      <point x="405" y="337"/>
      <point x="377" y="296"/>
      <point x="377" y="246" type="qcurve"/>
    </contour>
    <contour>
      <point x="340" y="-13" type="qcurve" smooth="yes"/>
      <point x="306" y="-13"/>
      <point x="256" y="36"/>
      <point x="256" y="70" type="qcurve" smooth="yes"/>
      <point x="256" y="105"/>
      <point x="306" y="154"/>
      <point x="340" y="154" type="qcurve" smooth="yes"/>
      <point x="375" y="154"/>
      <point x="424" y="105"/>
      <point x="424" y="70" type="qcurve" smooth="yes"/>
      <point x="424" y="36"/>
      <point x="375" y="-13"/>
    </contour>
  </outline>
</glyph>
<glyph name="at" format="2">
  <advance width="891"/>
  <unicode hex="0040"/>
  <outline>
    <contour>
      <point x="447" y="-17" type="qcurve" smooth="yes"/>
      <point x="266" y="-17"/>
      <point x="42" y="200"/>
      <point x="42" y="390" type="qcurve" smooth="yes"/>
      <point x="42" y="570"/>
      <point x="278" y="799"/>
      <point x="461" y="799" type="qcurve" smooth="yes"/>
      <point x="592" y="799"/>
      <point x="763" y="701"/>
      <point x="844" y="540"/>
      <point x="844" y="444" type="qcurve" smooth="yes"/>
      <point x="844" y="338"/>
      <point x="799" y="259" type="qcurve" smooth="yes"/>
      <point x="745" y="163"/>
      <point x="639" y="163" type="qcurve" smooth="yes"/>
      <point x="609" y="163"/>
      <point x="555" y="208"/>
      <point x="547" y="241" type="qcurve"/>
      <point x="532" y="208"/>
      <point x="465" y="161"/>
      <point x="411" y="161" type="qcurve" smooth="yes"/>
      <point x="218" y="161"/>
      <point x="218" y="397" type="qcurve" smooth="yes"/>
      <point x="218" y="483"/>
      <point x="273" y="590"/>
      <point x="359" y="640"/>
      <point x="405" y="640" type="qcurve" smooth="yes"/>
      <point x="489" y="640"/>
      <point x="514" y="601" type="qcurve"/>
      <point x="514" y="642" type="line"/>
      <point x="638" y="624" type="line"/>
      <point x="626" y="312" type="line"/>
      <point x="626" y="253"/>
      <point x="666" y="253" type="qcurve" smooth="yes"/>
      <point x="681" y="253"/>
      <point x="718" y="299"/>
      <point x="745" y="385"/>
      <point x="745" y="443" type="qcurve" smooth="yes"/>
      <point x="745" y="520"/>
      <point x="689" y="645"/>
      <point x="565" y="722"/>
      <point x="461" y="722" type="qcurve" smooth="yes"/>
      <point x="322" y="722"/>
      <point x="137" y="539"/>
      <point x="137" y="389" type="qcurve" smooth="yes"/>
      <point x="137" y="280"/>
      <point x="225" y="135"/>
      <point x="366" y="64"/>
      <point x="447" y="64" type="qcurve" smooth="yes"/>
      <point x="557" y="64"/>
      <point x="725" y="123"/>
      <point x="781" y="169" type="qcurve"/>
      <point x="814" y="116" type="line"/>
      <point x="679" y="-17"/>
    </contour>
    <contour>
      <point x="427" y="238" type="qcurve" smooth="yes"/>
      <point x="474" y="238"/>
      <point x="515" y="310"/>
      <point x="515" y="355" type="qcurve" smooth="yes"/>
      <point x="515" y="503" type="line"/>
      <point x="497" y="552"/>
      <point x="435" y="552" type="qcurve" smooth="yes"/>
      <point x="333" y="552"/>
      <point x="333" y="394" type="qcurve" smooth="yes"/>
      <point x="333" y="238"/>
    </contour>
  </outline>
</glyph>
<glyph name="C" format="2">
  <advance width="729"/>
  <unicode hex="0043"/>
  <outline>
    <contour>
      <point x="416" y="-18" type="qcurve" smooth="yes"/>
      <point x="253" y="-18"/>
      <point x="51" y="201"/>
      <point x="51" y="393" type="qcurve" smooth="yes"/>
      <point x="51" y="579"/>
      <point x="255" y="799"/>
      <point x="415" y="799" type="qcurve" smooth="yes"/>
      <point x="516" y="799"/>
      <point x="656" y="735"/>
      <point x="689" y="691" type="qcurve"/>
      <point x="661" y="510" type="line"/>
      <point x="595" y="510" type="line"/>
      <point x="584" y="584"/>
      <point x="536" y="663"/>
      <point x="461" y="692"/>
      <point x="408" y="692" type="qcurve" smooth="yes"/>
      <point x="353" y="692"/>
      <point x="254" y="634"/>
      <point x="190" y="503"/>
      <point x="190" y="393" type="qcurve" smooth="yes"/>
      <point x="190" y="296"/>
      <point x="258" y="163"/>
      <point x="367" y="97"/>
      <point x="428" y="97" type="qcurve" smooth="yes"/>
      <point x="502" y="97"/>
      <point x="622" y="169"/>
      <point x="655" y="213" type="qcurve"/>
      <point x="713" y="145" type="line"/>
      <point x="690" y="103"/>
      <point x="605" y="29"/>
      <point x="487" y="-18"/>
    </contour>
  </outline>
</glyph>
<glyph name="I" format="2">
  <advance width="342"/>
  <unicode hex="0049"/>
  <outline>
    <contour>
      <point x="93" y="-13" type="line"/>
      <point x="93" y="800" type="line"/>
      <point x="247" y="780" type="line"/>
      <point x="217" y="0" type="line"/>
    </contour>
  </outline>
</glyph>
<glyph name="L" format="2">
  <advance width="621"/>
  <unicode hex="004C"/>
  <outline>
    <contour>
      <point x="592" y="0" type="line"/>
      <point x="91" y="0" type="line"/>
      <point x="91" y="800" type="line"/>
      <point x="246" y="780" type="line"/>
      <point x="216" y="109" type="line"/>
      <point x="592" y="139" type="line"/>
    </contour>
  </outline>
</glyph>
<glyph name="P" format="2">
  <advance width="701"/>
  <unicode hex="0050"/>
  <outline>
    <contour>
      <point x="106" y="-14" type="line"/>
      <point x="89" y="669" type="line"/>
      <point x="40" y="662" type="line"/>
      <point x="20" y="750" type="line"/>
      <point x="76" y="762"/>
      <point x="316" y="790"/>
      <point x="398" y="790" type="qcurve" smooth="yes"/>
      <point x="476" y="790"/>
      <point x="605" y="728"/>
      <point x="680" y="616"/>
      <point x="680" y="542" type="qcurve" smooth="yes"/>
      <point x="680" y="448"/>
      <point x="599" y="327"/>
      <point x="469" y="270"/>
      <point x="394" y="270" type="qcurve" smooth="yes"/>
      <point x="314" y="270"/>
      <point x="230" y="307" type="qcurve"/>
      <point x="230" y="0" type="line"/>
    </contour>
    <contour>
      <point x="372" y="375" type="qcurve" smooth="yes"/>
      <point x="419" y="375"/>
      <point x="494" y="407"/>
      <point x="540" y="478"/>
      <point x="540" y="536" type="qcurve" smooth="yes"/>
      <point x="540" y="586"/>
      <point x="493" y="651"/>
      <point x="423" y="684"/>
      <point x="387" y="684" type="qcurve" smooth="yes"/>
      <point x="314" y="684"/>
      <point x="230" y="680" type="qcurve"/>
      <point x="230" y="402" type="line"/>
      <point x="307" y="375"/>
    </contour>
  </outline>
</glyph>
<glyph name="R" format="2">
  <advance width="726"/>
  <unicode hex="0052"/>
  <outline>
    <contour>
      <point x="624" y="-13" type="line"/>
      <point x="357" y="184"/>
      <point x="236" y="418" type="qcurve"/>
      <point x="354" y="480" type="line"/>
      <point x="367" y="455"/>
      <point x="382" y="433" type="qcurve"/>
      <point x="503" y="452"/>
      <point x="503" y="565" type="qcurve" smooth="yes"/>
      <point x="503" y="621"/>
      <point x="436" y="685"/>
      <point x="377" y="685" type="qcurve" smooth="yes"/>
      <point x="311" y="685"/>
      <point x="230" y="680" type="qcurve"/>
      <point x="229" y="0" type="line"/>
      <point x="106" y="-13" type="line"/>
      <point x="89" y="669" type="line"/>
      <point x="40" y="662" type="line"/>
      <point x="20" y="750" type="line"/>
      <point x="77" y="762"/>
      <point x="306" y="790"/>
      <point x="388" y="790" type="qcurve" smooth="yes"/>
      <point x="462" y="790"/>
      <point x="574" y="742"/>
      <point x="640" y="642"/>
      <point x="640" y="565" type="qcurve" smooth="yes"/>
      <point x="640" y="498"/>
      <point x="577" y="410"/>
      <point x="477" y="362"/>
      <point x="423" y="357" type="qcurve"/>
      <point x="518" y="212"/>
      <point x="696" y="52" type="qcurve"/>
    </contour>
  </outline>
</glyph>
<glyph name="V" format="2">
  <advance width="710"/>
  <unicode hex="0056"/>
  <outline>
    <contour>
      <point x="327" y="-13" type="line"/>
      <point x="0" y="780" type="line"/>
      <point x="160" y="800" type="line"/>
      <point x="372" y="199" type="line"/>
      <point x="548" y="800" type="line"/>
      <point x="709" y="780" type="line"/>
      <point x="428" y="75" type="line"/>
      <point x="449" y="19" type="line"/>
    </contour>
  </outline>
</glyph>
<glyph name="X" format="2">
  <advance width="666"/>
  <unicode hex="0058"/>
  <outline>
    <contour>
      <point x="149" y="-15" type="line"/>
      <point x="12" y="0" type="line"/>
      <point x="253" y="385" type="line"/>
      <point x="14" y="779" type="line"/>
      <point x="153" y="797" type="line"/>
      <point x="334" y="514" type="line"/>
      <point x="513" y="800" type="line"/>
      <point x="621" y="780" type="line"/>
      <point x="401" y="409" type="line"/>
      <point x="664" y="0" type="line"/>
      <point x="495" y="-13" type="line"/>
      <point x="320" y="274" type="line"/>
    </contour>
  </outline>
</glyph>
<glyph name="bracketleft" format="2">
  <advance width="400"/>
  <unicode hex="005B"/>
  <outline>
    <contour>
      <point x="386" y="-75" type="line"/>
      <point x="109" y="-74" type="line"/>
      <point x="109" y="830" type="line"/>
      <point x="386" y="830" type="line"/>
      <point x="386" y="755" type="line"/>
      <point x="227" y="731" type="line"/>
      <point x="227" y="25" type="line"/>
      <point x="386" y="1" type="line"/>
    </contour>
  </outline>
</glyph>
<glyph name="bracketright" format="2">
  <advance width="400"/>
  <unicode hex="005D"/>
  <outline>
    <contour>
      <point x="291" y="-75" type="line"/>
      <point x="14" y="-74" type="line"/>
      <point x="14" y="1" type="line"/>
      <point x="173" y="25" type="line"/>
      <point x="173" y="731" type="line"/>
      <point x="14" y="755" type="line"/>
      <point x="14" y="830" type="line"/>
      <point x="291" y="830" type="line"/>
    </contour>
  </outline>
</glyph>
<glyph name="asciicircum" format="2">
  <advance width="690"/>
  <unicode hex="005E"/>
  <outline>
    <contour>
      <point x="527" y="309" type="line"/>
      <point x="345" y="641" type="line"/>
      <point x="162" y="309" type="line"/>
      <point x="99" y="341" type="line"/>
      <point x="262" y="780" type="line"/>
      <point x="426" y="780" type="line"/>
      <point x="591" y="341" type="line"/>
    </contour>
  </outline>
</glyph>
<glyph name="underscore" format="2">
  <advance width="666"/>
  <unicode hex="005F"/>
  <outline>
    <contour>
      <point x="666" y="-160" type="line"/>
      <point x="0" y="-159" type="line"/>
      <point x="0" y="-85" type="line"/>
      <point x="666" y="-85" type="line"/>
    </contour>
  </outline>
</glyph>
<glyph name="grave" format="2">
  <advance width="500"/>
  <unicode hex="0060"/>
  <outline>
    <contour>
      <point x="344" y="628" type="line"/>
      <point x="108" y="730" type="line"/>
      <point x="179" y="834" type="line"/>
      <point x="391" y="700" type="line"/>
    </contour>
  </outline>
</glyph>
<glyph name="f" format="2">
  <advance width="355"/>
  <unicode hex="0066"/>
  <outline>
    <contour>
      <point x="117" y="-13" type="line"/>
      <point x="102" y="462" type="line"/>
      <point x="28" y="462" type="line"/>
      <point x="8" y="539" type="line"/>
      <point x="99" y="548" type="line"/>
      <point x="97" y="580"/>
      <point x="97" y="625" type="qcurve" smooth="yes"/>
      <point x="97" y="682"/>
      <point x="139" y="759"/>
      <point x="243" y="798"/>
      <point x="334" y="799" type="qcurve"/>
      <point x="352" y="717" type="line"/>
      <point x="294" y="717"/>
      <point x="245" y="689"/>
      <point x="235" y="622"/>
      <point x="235" y="562" type="qcurve"/>
      <point x="340" y="573" type="line"/>
      <point x="340" y="462" type="line"/>
      <point x="235" y="462" type="line"/>
      <point x="235" y="0" type="line"/>
    </contour>
  </outline>
</glyph>
<glyph name="l" format="2">
  <advance width="340"/>
  <unicode hex="006C"/>
  <outline>
    <contour>
      <point x="172" y="-15" type="qcurve"/>
      <point x="166" y="-15" type="line" smooth="yes"/>
      <point x="97" y="-15"/>
      <point x="72" y="58" type="qcurve"/>
      <point x="62" y="99"/>
      <point x="62" y="162" type="qcurve"/>
      <point x="61" y="572" type="line"/>
      <point x="62" y="572" type="line"/>
      <point x="62" y="799" type="line"/>
      <point x="207" y="779" type="line"/>
      <point x="183" y="146" type="line"/>
      <point x="183" y="89"/>
      <point x="226" y="89" type="qcurve" smooth="yes"/>
      <point x="251" y="89"/>
      <point x="319" y="122" type="qcurve"/>
      <point x="331" y="42" type="line"/>
      <point x="294" y="15"/>
      <point x="204" y="-14"/>
    </contour>
  </outline>
</glyph>
<glyph name="r" format="2">
  <advance width="422"/>
  <unicode hex="0072"/>
  <outline>
    <contour>
      <point x="91" y="-14" type="line"/>
      <point x="71" y="572" type="line"/>
      <point x="213" y="555" type="line"/>
      <point x="213" y="498" type="line"/>
      <point x="242" y="535"/>
      <point x="311" y="566"/>
      <point x="380" y="567" type="qcurve"/>
      <point x="403" y="445" type="line"/>
      <point x="370" y="451"/>
      <point x="343" y="451" type="qcurve" smooth="yes"/>
      <point x="243" y="451"/>
      <point x="213" y="370" type="qcurve"/>
      <point x="213" y="0" type="line"/>
    </contour>
  </outline>
</glyph>
<glyph name="braceleft" format="2">
  <advance width="500"/>
  <unicode hex="007B"/>
  <outline>
    <contour>
      <point x="379" y="-75" type="line"/>
      <point x="351" y="-75" type="line" smooth="yes"/>
      <point x="160" y="-75"/>
      <point x="160" y="52" type="qcurve" smooth="yes"/>
      <point x="160" y="76"/>
      <point x="165" y="102" type="qcurve"/>
      <point x="167" y="115"/>
      <point x="169" y="129"/>
      <point x="170" y="130" type="qcurve"/>
      <point x="187" y="232"/>
      <point x="187" y="259" type="qcurve" smooth="yes"/>
      <point x="187" y="337"/>
      <point x="133" y="337" type="qcurve" smooth="yes"/>
      <point x="110" y="337" type="line"/>
      <point x="110" y="412" type="line"/>
      <point x="133" y="412" type="line" smooth="yes"/>
      <point x="187" y="412"/>
      <point x="187" y="493" type="qcurve"/>
      <point x="178" y="572"/>
      <point x="161" y="681" type="qcurve"/>
      <point x="160" y="690" type="line"/>
      <point x="160" y="766"/>
      <point x="212" y="795" type="qcurve"/>
      <point x="244" y="814"/>
      <point x="322" y="825"/>
      <point x="379" y="825" type="qcurve"/>
      <point x="389" y="771" type="line"/>
      <point x="353" y="771"/>
      <point x="334" y="766" type="qcurve"/>
      <point x="282" y="750"/>
      <point x="282" y="651" type="qcurve" smooth="yes"/>
      <point x="282" y="612"/>
      <point x="297" y="513"/>
      <point x="297" y="471" type="qcurve" smooth="yes"/>
      <point x="297" y="388"/>
      <point x="229" y="375" type="qcurve"/>
      <point x="297" y="360"/>
      <point x="297" y="278" type="qcurve" smooth="yes"/>
      <point x="297" y="238"/>
      <point x="282" y="140"/>
      <point x="282" y="98" type="qcurve" smooth="yes"/>
      <point x="282" y="-16"/>
      <point x="366" y="-21" type="qcurve" smooth="yes"/>
      <point x="389" y="-22" type="line"/>
    </contour>
  </outline>
</glyph>
<glyph name="bar" format="2">
  <advance width="500"/>
  <unicode hex="007C"/>
  <outline>
    <contour>
      <point x="301" y="-75" type="line"/>
      <point x="199" y="-74" type="line"/>
      <point x="199" y="825" type="line"/>
      <point x="301" y="825" type="line"/>
    </contour>
  </outline>
</glyph>
<glyph name="braceright" format="2">
  <advance width="500"/>
  <unicode hex="007D"/>
  <outline>
    <contour>
      <point x="148" y="-75" type="qcurve" smooth="yes"/>
      <point x="120" y="-75" type="line"/>
      <point x="110" y="-21" type="line"/>
      <point x="146" y="-21"/>
      <point x="185" y="-10"/>
      <point x="198" y="11" type="qcurve"/>
      <point x="217" y="44"/>
      <point x="217" y="98" type="qcurve" smooth="yes"/>
      <point x="217" y="139"/>
      <point x="202" y="238"/>
      <point x="202" y="278" type="qcurve" smooth="yes"/>
      <point x="202" y="360"/>
      <point x="270" y="375" type="qcurve"/>
      <point x="202" y="388"/>
      <point x="202" y="471" type="qcurve" smooth="yes"/>
      <point x="202" y="512"/>
      <point x="217" y="611"/>
      <point x="217" y="651" type="qcurve" smooth="yes"/>
      <point x="217" y="771"/>
      <point x="133" y="771" type="qcurve" smooth="yes"/>
      <point x="110" y="771" type="line"/>
      <point x="120" y="825" type="line"/>
      <point x="177" y="825"/>
      <point x="255" y="814"/>
      <point x="288" y="795" type="qcurve" smooth="yes"/>
      <point x="312" y="781"/>
      <point x="339" y="734"/>
      <point x="339" y="690" type="qcurve" smooth="yes"/>
      <point x="339" y="666"/>
      <point x="330" y="620" type="qcurve"/>
      <point x="312" y="517"/>
      <point x="312" y="490" type="qcurve" smooth="yes"/>
      <point x="312" y="454"/>
      <point x="339" y="412"/>
      <point x="366" y="412" type="qcurve" smooth="yes"/>
      <point x="389" y="412" type="line"/>
      <point x="389" y="337" type="line"/>
      <point x="366" y="337" type="line" smooth="yes"/>
      <point x="312" y="337"/>
      <point x="312" y="256" type="qcurve"/>
      <point x="315" y="218"/>
      <point x="334" y="110"/>
      <point x="338" y="68" type="qcurve"/>
      <point x="339" y="61" type="line"/>
      <point x="339" y="28"/>
      <point x="319" y="-26"/>
      <point x="288" y="-44" type="qcurve" smooth="yes"/>
      <point x="237" y="-75"/>
    </contour>
  </outline>
</glyph>
<glyph name="asciitilde" format="2">
  <advance width="500"/>
  <unicode hex="007E"/>
  <outline>
    <contour>
      <point x="332" y="278" type="qcurve" smooth="yes"/>
      <point x="294" y="278"/>
      <point x="200" y="342"/>
      <point x="168" y="342" type="qcurve" smooth="yes"/>
      <point x="104" y="342"/>
      <point x="55" y="294" type="qcurve"/>
      <point x="32" y="362" type="line"/>
      <point x="45" y="388"/>
      <point x="88" y="434"/>
      <point x="141" y="460"/>
      <point x="168" y="460" type="qcurve" smooth="yes"/>
      <point x="203" y="460"/>
      <point x="252" y="429" type="qcurve"/>
      <point x="300" y="396"/>
      <point x="338" y="396" type="qcurve" smooth="yes"/>
      <point x="392" y="396"/>
      <point x="445" y="444" type="qcurve"/>
      <point x="468" y="376" type="line"/>
      <point x="455" y="351"/>
      <point x="412" y="306"/>
      <point x="358" y="278"/>
    </contour>
  </outline>
</glyph>
<glyph name="exclamdown" format="2">
  <advance width="400"/>
  <unicode hex="00A1"/>
  <outline>
    <contour>
      <point x="198" y="427" type="qcurve" smooth="yes"/>
      <point x="164" y="427"/>
      <point x="114" y="477"/>
      <point x="114" y="511" type="qcurve" smooth="yes"/>
      <point x="114" y="546"/>
      <point x="164" y="595"/>
      <point x="198" y="595" type="qcurve" smooth="yes"/>
      <point x="233" y="595"/>
      <point x="282" y="546"/>
      <point x="282" y="511" type="qcurve" smooth="yes"/>
      <point x="282" y="477"/>
      <point x="233" y="427"/>
    </contour>
    <contour>
      <point x="274" y="-199" type="line"/>
      <point x="123" y="-198" type="line"/>
      <point x="149" y="358" type="line"/>
      <point x="249" y="358" type="line"/>
    </contour>
  </outline>
</glyph>
<glyph name="cent" format="2">
  <advance width="594"/>
  <unicode hex="00A2"/>
  <outline>
    <contour>
      <point x="277" y="-110" type="line"/>
      <point x="202" y="-88" type="line"/>
      <point x="230" y="4" type="line"/>
      <point x="179" y="21"/>
      <point x="95" y="92"/>
      <point x="45" y="202"/>
      <point x="45" y="278" type="qcurve" smooth="yes"/>
      <point x="45" y="376"/>
      <point x="126" y="504"/>
      <point x="259" y="567"/>
      <point x="335" y="567" type="qcurve" smooth="yes"/>
      <point x="367" y="567"/>
      <point x="394" y="562" type="qcurve"/>
      <point x="424" y="663" type="line"/>
      <point x="499" y="643" type="line"/>
      <point x="468" y="540" type="line"/>
      <point x="516" y="518"/>
      <point x="544" y="483" type="qcurve"/>
      <point x="510" y="407" type="line"/>
      <point x="486" y="433"/>
      <point x="443" y="451" type="qcurve"/>
      <point x="335" y="86" type="line"/>
      <point x="346" y="85" type="line"/>
      <point x="460" y="85"/>
      <point x="516" y="150" type="qcurve"/>
      <point x="549" y="80" type="line"/>
      <point x="522" y="42"/>
      <point x="412" y="-11"/>
      <point x="335" y="-11" type="qcurve"/>
      <point x="306" y="-10" type="line"/>
    </contour>
    <contour>
      <point x="261" y="110" type="qcurve"/>
      <point x="367" y="471" type="line"/>
      <point x="361" y="472" type="line"/>
      <point x="277" y="472"/>
      <point x="174" y="364"/>
      <point x="174" y="278" type="qcurve" smooth="yes"/>
      <point x="174" y="217"/>
      <point x="223" y="133"/>
    </contour>
  </outline>
</glyph>
<glyph name="sterling" format="2">
  <advance width="729"/>
  <unicode hex="00A3"/>
  <outline>
    <contour>
      <point x="493" y="-10" type="qcurve" smooth="yes"/>
      <point x="432" y="-10"/>
      <point x="365" y="17" type="qcurve"/>
      <point x="329" y="30"/>
      <point x="287" y="30" type="qcurve" smooth="yes"/>
      <point x="194" y="30"/>
      <point x="126" y="-10" type="qcurve"/>
      <point x="59" y="109" type="line"/>
      <point x="122" y="149"/>
      <point x="198" y="263"/>
      <point x="199" y="331" type="qcurve"/>
      <point x="58" y="331" type="line"/>
      <point x="58" y="416" type="line"/>
      <point x="178" y="416" type="line"/>
      <point x="161" y="449"/>
      <point x="126" y="500"/>
      <point x="102" y="557"/>
      <point x="102" y="597" type="qcurve" smooth="yes"/>
      <point x="102" y="687"/>
      <point x="229" y="793"/>
      <point x="365" y="793" type="qcurve" smooth="yes"/>
      <point x="451" y="793"/>
      <point x="588" y="725"/>
      <point x="628" y="677" type="qcurve"/>
      <point x="597" y="524" type="line"/>
      <point x="534" y="524" type="line"/>
      <point x="521" y="707"/>
      <point x="359" y="707" type="qcurve" smooth="yes"/>
      <point x="295" y="707"/>
      <point x="235" y="641"/>
      <point x="235" y="593" type="qcurve" smooth="yes"/>
      <point x="235" y="560"/>
      <point x="260" y="510"/>
      <point x="295" y="453"/>
      <point x="310" y="416" type="qcurve"/>
      <point x="492" y="416" type="line"/>
      <point x="492" y="331" type="line"/>
      <point x="326" y="331" type="line"/>
      <point x="321" y="211"/>
      <point x="211" y="134" type="qcurve"/>
      <point x="247" y="143"/>
      <point x="287" y="143" type="qcurve" smooth="yes"/>
      <point x="346" y="143"/>
      <point x="410" y="119"/>
      <point x="463" y="94"/>
      <point x="503" y="94" type="qcurve" smooth="yes"/>
      <point x="568" y="94"/>
      <point x="635" y="152" type="qcurve"/>
      <point x="681" y="76" type="line"/>
      <point x="604" y="-10"/>
    </contour>
  </outline>
</glyph>
<glyph name="currency" format="2">
  <advance width="600"/>
  <unicode hex="00A4"/>
  <outline>
    <contour>
      <point x="484" y="69" type="line"/>
      <point x="409" y="144" type="line"/>
      <point x="355" y="115"/>
      <point x="300" y="115" type="qcurve" smooth="yes"/>
      <point x="237" y="115"/>
      <point x="190" y="145" type="qcurve"/>
      <point x="114" y="70" type="line"/>
      <point x="37" y="147" type="line"/>
      <point x="113" y="223" type="line"/>
      <point x="84" y="270"/>
      <point x="84" y="331" type="qcurve" smooth="yes"/>
      <point x="84" y="385"/>
      <point x="113" y="439" type="qcurve"/>
      <point x="37" y="515" type="line"/>
      <point x="114" y="592" type="line"/>
      <point x="189" y="516" type="line"/>
      <point x="236" y="547"/>
      <point x="300" y="547" type="qcurve" smooth="yes"/>
      <point x="362" y="547"/>
      <point x="408" y="518" type="qcurve"/>
      <point x="484" y="593" type="line"/>
      <point x="561" y="516" type="line"/>
      <point x="486" y="441" type="line"/>
      <point x="516" y="394"/>
      <point x="516" y="331" type="qcurve" smooth="yes"/>
      <point x="516" y="268"/>
      <point x="486" y="221" type="qcurve"/>
      <point x="561" y="146" type="line"/>
    </contour>
    <contour>
      <point x="300" y="223" type="qcurve" smooth="yes"/>
      <point x="345" y="223"/>
      <point x="408" y="286"/>
      <point x="408" y="331" type="qcurve" smooth="yes"/>
      <point x="408" y="376"/>
      <point x="345" y="439"/>
      <point x="300" y="439" type="qcurve" smooth="yes"/>
      <point x="255" y="439"/>
      <point x="192" y="376"/>
      <point x="192" y="331" type="qcurve" smooth="yes"/>
      <point x="192" y="286"/>
      <point x="255" y="223"/>
    </contour>
  </outline>
</glyph>
<glyph name="yen" format="2">
  <advance width="690"/>
  <unicode hex="00A5"/>
  <outline>
    <contour>
      <point x="273" y="-13" type="line"/>
      <point x="273" y="142" type="line"/>
      <point x="62" y="142" type="line"/>
      <point x="62" y="227" type="line"/>
      <point x="273" y="227" type="line"/>
      <point x="273" y="333" type="line"/>
      <point x="62" y="333" type="line"/>
      <point x="62" y="417" type="line"/>
      <point x="230" y="417" type="line"/>
      <point x="15" y="778" type="line"/>
      <point x="177" y="800" type="line"/>
      <point x="336" y="437" type="line"/>
      <point x="565" y="793" type="line"/>
      <point x="659" y="763" type="line"/>
      <point x="466" y="417" type="line"/>
      <point x="629" y="417" type="line"/>
      <point x="629" y="333" type="line"/>
      <point x="424" y="333" type="line"/>
      <point x="417" y="227" type="line"/>
      <point x="629" y="227" type="line"/>
      <point x="629" y="142" type="line"/>
      <point x="412" y="142" type="line"/>
      <point x="404" y="0" type="line"/>
    </contour>
  </outline>
</glyph>
<glyph name="brokenbar" format="2">
  <advance width="345"/>
  <unicode hex="00A6"/>
  <outline>
    <contour>
      <point x="223" y="497" type="line"/>
      <point x="121" y="497" type="line"/>
      <point x="121" y="803" type="line"/>
      <point x="223" y="803" type="line"/>
    </contour>
    <contour>
      <point x="223" y="-23" type="line"/>
      <point x="121" y="-22" type="line"/>
      <point x="121" y="283" type="line"/>
      <point x="223" y="283" type="line"/>
    </contour>
  </outline>
</glyph>
<glyph name="section" format="2">
  <advance width="644"/>
  <unicode hex="00A7"/>
  <outline>
    <contour>
      <point x="302" y="-75" type="qcurve" smooth="yes"/>
      <point x="242" y="-75"/>
      <point x="141" y="-28"/>
      <point x="68" y="45"/>
      <point x="47" y="86" type="qcurve"/>
      <point x="106" y="125" type="line"/>
      <point x="132" y="75"/>
      <point x="235" y="8"/>
      <point x="298" y="8" type="qcurve" smooth="yes"/>
      <point x="361" y="8"/>
      <point x="419" y="60"/>
      <point x="419" y="100" type="qcurve" smooth="yes"/>
      <point x="419" y="157"/>
      <point x="314" y="190" type="qcurve" smooth="yes"/>
      <point x="202" y="224" type="line" smooth="yes"/>
      <point x="57" y="268"/>
      <point x="57" y="398" type="qcurve" smooth="yes"/>
      <point x="57" y="448"/>
      <point x="110" y="518"/>
      <point x="154" y="537" type="qcurve"/>
      <point x="100" y="585"/>
      <point x="100" y="664" type="qcurve" smooth="yes"/>
      <point x="100" y="730"/>
      <point x="209" y="825"/>
      <point x="315" y="825" type="qcurve" smooth="yes"/>
      <point x="458" y="825"/>
      <point x="534" y="744" type="qcurve"/>
      <point x="512" y="596" type="line"/>
      <point x="459" y="596" type="line"/>
      <point x="453" y="679"/>
      <point x="414" y="717" type="qcurve"/>
      <point x="385" y="749"/>
      <point x="318" y="749" type="qcurve" smooth="yes"/>
      <point x="279" y="749"/>
      <point x="226" y="714"/>
      <point x="226" y="673" type="qcurve" smooth="yes"/>
      <point x="226" y="639"/>
      <point x="275" y="599"/>
      <point x="368" y="569"/>
      <point x="434" y="550" type="qcurve" smooth="yes"/>
      <point x="514" y="528"/>
      <point x="590" y="446"/>
      <point x="590" y="378" type="qcurve" smooth="yes"/>
      <point x="590" y="276"/>
      <point x="503" y="226" type="qcurve"/>
      <point x="547" y="186"/>
      <point x="547" y="112" type="qcurve" smooth="yes"/>
      <point x="547" y="15"/>
      <point x="415" y="-75"/>
    </contour>
    <contour>
      <point x="395" y="283" type="line"/>
      <point x="462" y="307"/>
      <point x="462" y="366" type="qcurve" smooth="yes"/>
      <point x="462" y="399"/>
      <point x="420" y="435"/>
      <point x="334" y="464"/>
      <point x="268" y="483" type="qcurve"/>
      <point x="183" y="481"/>
      <point x="183" y="407" type="qcurve" smooth="yes"/>
      <point x="183" y="382"/>
      <point x="226" y="333"/>
      <point x="275" y="318" type="qcurve" smooth="yes"/>
    </contour>
  </outline>
</glyph>
<glyph name="dieresis" format="2">
  <advance width="500"/>
  <unicode hex="00A8"/>
  <outline>
    <contour>
      <point x="350" y="636" type="qcurve" smooth="yes"/>
      <point x="322" y="636"/>
      <point x="279" y="678"/>
      <point x="279" y="706" type="qcurve" smooth="yes"/>
      <point x="279" y="735"/>
      <point x="322" y="777"/>
      <point x="350" y="777" type="qcurve" smooth="yes"/>
      <point x="379" y="777"/>
      <point x="421" y="735"/>
      <point x="421" y="706" type="qcurve" smooth="yes"/>
      <point x="421" y="678"/>
      <point x="379" y="636"/>
    </contour>
    <contour>
      <point x="150" y="636" type="qcurve" smooth="yes"/>
      <point x="122" y="636"/>
      <point x="79" y="678"/>
      <point x="79" y="706" type="qcurve" smooth="yes"/>
      <point x="79" y="735"/>
      <point x="122" y="777"/>
      <point x="150" y="777" type="qcurve" smooth="yes"/>
      <point x="179" y="777"/>
      <point x="221" y="735"/>
      <point x="221" y="706" type="qcurve" smooth="yes"/>
      <point x="221" y="678"/>
      <point x="179" y="636"/>
    </contour>
  </outline>
</glyph>
<glyph name="ordfeminine" format="2">
  <advance width="345"/>
  <unicode hex="00AA"/>
  <outline>
    <contour>
      <point x="263" y="494" type="line"/>
      <point x="242" y="509"/>
      <point x="234" y="526" type="qcurve"/>
      <point x="196" y="494"/>
      <point x="136" y="494" type="qcurve" smooth="yes"/>
      <point x="88" y="494"/>
      <point x="38" y="542"/>
      <point x="38" y="579" type="qcurve" smooth="yes"/>
      <point x="38" y="623"/>
      <point x="84" y="667"/>
      <point x="152" y="688"/>
      <point x="189" y="695" type="qcurve" smooth="yes"/>
      <point x="209" y="699"/>
      <point x="209" y="708" type="qcurve" smooth="yes"/>
      <point x="209" y="733"/>
      <point x="167" y="733" type="qcurve" smooth="yes"/>
      <point x="140" y="733"/>
      <point x="96" y="712"/>
      <point x="70" y="692" type="qcurve"/>
      <point x="41" y="738" type="line"/>
      <point x="88" y="800"/>
      <point x="170" y="800" type="qcurve" smooth="yes"/>
      <point x="294" y="800"/>
      <point x="294" y="704" type="qcurve" smooth="yes"/>
      <point x="294" y="590" type="line" smooth="yes"/>
      <point x="294" y="556"/>
      <point x="332" y="516" type="qcurve"/>
    </contour>
    <contour>
      <point x="150" y="562" type="qcurve"/>
      <point x="161" y="562"/>
      <point x="191" y="571"/>
      <point x="215" y="597"/>
      <point x="215" y="622" type="qcurve"/>
      <point x="214" y="642" type="line"/>
      <point x="196" y="634"/>
      <point x="154" y="623"/>
      <point x="122" y="607"/>
      <point x="122" y="587" type="qcurve" smooth="yes"/>
      <point x="122" y="565"/>
    </contour>
  </outline>
</glyph>
<glyph name="guillemotleft" format="2">
  <advance width="690"/>
  <unicode hex="00AB"/>
  <outline>
    <contour>
      <point x="613" y="-18" type="line"/>
      <point x="311" y="211" type="line"/>
      <point x="311" y="342" type="line"/>
      <point x="613" y="572" type="line"/>
      <point x="613" y="479" type="line"/>
      <point x="413" y="277" type="line"/>
      <point x="613" y="78" type="line"/>
    </contour>
    <contour>
      <point x="373" y="-18" type="line"/>
      <point x="71" y="211" type="line"/>
      <point x="71" y="342" type="line"/>
      <point x="373" y="572" type="line"/>
      <point x="373" y="479" type="line"/>
      <point x="173" y="277" type="line"/>
      <point x="373" y="78" type="line"/>
    </contour>
  </outline>
</glyph>
<glyph name="logicalnot" format="2">
  <advance width="578"/>
  <unicode hex="00AC"/>
  <outline>
    <contour>
      <point x="522" y="29" type="line"/>
      <point x="418" y="29" type="line"/>
      <point x="418" y="226" type="line"/>
      <point x="56" y="226" type="line"/>
      <point x="56" y="331" type="line"/>
      <point x="522" y="331" type="line"/>
    </contour>
  </outline>
</glyph>
<glyph name="uni00AD" format="2">
  <advance width="500"/>
  <unicode hex="00AD"/>
  <outline>
    <contour>
      <point x="485" y="223" type="line"/>
      <point x="15" y="223" type="line"/>
      <point x="15" y="287" type="line"/>
      <point x="485" y="287" type="line"/>
    </contour>
  </outline>
</glyph>
<glyph name="registered" format="2">
  <advance width="777"/>
  <unicode hex="00AE"/>
  <outline>
    <contour>
      <point x="388" y="20" type="qcurve" smooth="yes"/>
      <point x="289" y="20"/>
      <point x="127" y="117"/>
      <point x="31" y="280"/>
      <point x="31" y="377" type="qcurve" smooth="yes"/>
      <point x="31" y="476"/>
      <point x="128" y="638"/>
      <point x="291" y="734"/>
      <point x="388" y="734" type="qcurve" smooth="yes"/>
      <point x="487" y="734"/>
      <point x="650" y="637"/>
      <point x="746" y="475"/>
      <point x="746" y="377" type="qcurve" smooth="yes"/>
      <point x="746" y="274"/>
      <point x="646" y="113"/>
      <point x="483" y="20"/>
    </contour>
    <contour>
      <point x="389" y="95" type="qcurve" smooth="yes"/>
      <point x="473" y="95"/>
      <point x="600" y="177"/>
      <point x="671" y="307"/>
      <point x="671" y="377" type="qcurve" smooth="yes"/>
      <point x="671" y="461"/>
      <point x="590" y="588"/>
      <point x="460" y="659"/>
      <point x="389" y="659" type="qcurve" smooth="yes"/>
      <point x="305" y="659"/>
      <point x="178" y="578"/>
      <point x="107" y="448"/>
      <point x="107" y="377" type="qcurve" smooth="yes"/>
      <point x="107" y="293"/>
      <point x="189" y="166"/>
      <point x="319" y="95"/>
    </contour>
    <contour>
      <point x="259" y="145" type="line"/>
      <point x="248" y="526" type="line"/>
      <point x="216" y="523" type="line"/>
      <point x="200" y="582" type="line"/>
      <point x="303" y="604"/>
      <point x="418" y="604" type="qcurve" smooth="yes"/>
      <point x="481" y="604"/>
      <point x="564" y="540"/>
      <point x="564" y="474" type="qcurve" smooth="yes"/>
      <point x="564" y="374"/>
      <point x="447" y="354" type="qcurve"/>
      <point x="490" y="279"/>
      <point x="583" y="194" type="qcurve"/>
      <point x="536" y="149" type="line"/>
      <point x="403" y="256"/>
      <point x="335" y="380" type="qcurve"/>
      <point x="335" y="155" type="line"/>
    </contour>
    <contour>
      <point x="335" y="399" type="line"/>
      <point x="403" y="434" type="line"/>
      <point x="412" y="415"/>
      <point x="418" y="407" type="qcurve"/>
      <point x="477" y="418"/>
      <point x="477" y="474" type="qcurve" smooth="yes"/>
      <point x="477" y="534"/>
      <point x="412" y="534" type="qcurve" smooth="yes"/>
      <point x="381" y="534"/>
      <point x="335" y="532" type="qcurve"/>
    </contour>
  </outline>
</glyph>
<glyph name="macron" format="2">
  <advance width="499"/>
  <unicode hex="00AF"/>
  <outline>
    <contour>
      <point x="385" y="648" type="line"/>
      <point x="113" y="648" type="line"/>
      <point x="113" y="762" type="line"/>
      <point x="385" y="762" type="line"/>
    </contour>
  </outline>
</glyph>
<glyph name="degree" format="2">
  <advance width="345"/>
  <unicode hex="00B0"/>
  <outline>
    <contour>
      <point x="173" y="514" type="qcurve" smooth="yes"/>
      <point x="112" y="514"/>
      <point x="30" y="599"/>
      <point x="30" y="657" type="qcurve" smooth="yes"/>
      <point x="30" y="719"/>
      <point x="115" y="800"/>
      <point x="173" y="800" type="qcurve" smooth="yes"/>
      <point x="233" y="800"/>
      <point x="316" y="719"/>
      <point x="316" y="657" type="qcurve" smooth="yes"/>
      <point x="316" y="597"/>
      <point x="235" y="514"/>
    </contour>
    <contour>
      <point x="172" y="586" type="qcurve" smooth="yes"/>
      <point x="207" y="586"/>
      <point x="243" y="632"/>
      <point x="243" y="657" type="qcurve" smooth="yes"/>
      <point x="243" y="692"/>
      <point x="198" y="728"/>
      <point x="172" y="728" type="qcurve" smooth="yes"/>
      <point x="138" y="728"/>
      <point x="101" y="683"/>
      <point x="101" y="657" type="qcurve" smooth="yes"/>
      <point x="101" y="623"/>
      <point x="147" y="586"/>
    </contour>
  </outline>
</glyph>
<glyph name="plusminus" format="2">
  <advance width="690"/>
  <unicode hex="00B1"/>
  <outline>
    <contour>
      <point x="407" y="252" type="line"/>
      <point x="281" y="252" type="line"/>
      <point x="281" y="394" type="line"/>
      <point x="66" y="394" type="line"/>
      <point x="66" y="510" type="line"/>
      <point x="281" y="510" type="line"/>
      <point x="281" y="645" type="line"/>
      <point x="407" y="645" type="line"/>
      <point x="407" y="510" type="line"/>
      <point x="623" y="510" type="line"/>
      <point x="623" y="394" type="line"/>
      <point x="407" y="394" type="line"/>
    </contour>
    <contour>
      <point x="623" y="104" type="line"/>
      <point x="66" y="104" type="line"/>
      <point x="66" y="214" type="line"/>
      <point x="623" y="214" type="line"/>
    </contour>
  </outline>
</glyph>
<glyph name="twosuperior" format="2">
  <advance width="442"/>
  <unicode hex="00B2"/>
  <outline>
    <contour>
      <point x="388" y="379" type="line"/>
      <point x="79" y="379" type="line"/>
      <point x="64" y="448" type="line"/>
      <point x="160" y="525"/>
      <point x="270" y="632"/>
      <point x="270" y="672" type="qcurve" smooth="yes"/>
      <point x="270" y="695"/>
      <point x="237" y="726"/>
      <point x="214" y="726" type="qcurve" smooth="yes"/>
      <point x="157" y="726"/>
      <point x="129" y="671" type="qcurve"/>
      <point x="74" y="694" type="line"/>
      <point x="87" y="740"/>
      <point x="170" y="807"/>
      <point x="230" y="807" type="qcurve" smooth="yes"/>
      <point x="301" y="807"/>
      <point x="383" y="735"/>
      <point x="383" y="678" type="qcurve" smooth="yes"/>
      <point x="383" y="638"/>
      <point x="356" y="602" type="qcurve"/>
      <point x="312" y="549"/>
      <point x="183" y="462" type="qcurve"/>
      <point x="388" y="479" type="line"/>
    </contour>
  </outline>
</glyph>
<glyph name="threesuperior" format="2">
  <advance width="442"/>
  <unicode hex="00B3"/>
  <outline>
    <contour>
      <point x="215" y="375" type="qcurve" smooth="yes"/>
      <point x="157" y="375"/>
      <point x="72" y="442"/>
      <point x="54" y="486" type="qcurve"/>
      <point x="99" y="534" type="line"/>
      <point x="138" y="462"/>
      <point x="210" y="462" type="qcurve" smooth="yes"/>
      <point x="233" y="462"/>
      <point x="277" y="491"/>
      <point x="277" y="513" type="qcurve" smooth="yes"/>
      <point x="277" y="536"/>
      <point x="244" y="561"/>
      <point x="221" y="561" type="qcurve"/>
      <point x="157" y="562" type="line"/>
      <point x="141" y="629" type="line"/>
      <point x="189" y="634"/>
      <point x="232" y="643"/>
      <point x="262" y="665"/>
      <point x="262" y="684" type="qcurve" smooth="yes"/>
      <point x="262" y="725"/>
      <point x="207" y="727" type="qcurve"/>
      <point x="153" y="727"/>
      <point x="122" y="683" type="qcurve"/>
      <point x="69" y="708" type="line"/>
      <point x="87" y="751"/>
      <point x="166" y="807"/>
      <point x="224" y="807" type="qcurve" smooth="yes"/>
      <point x="286" y="807"/>
      <point x="373" y="749"/>
      <point x="373" y="692" type="qcurve" smooth="yes"/>
      <point x="373" y="638"/>
      <point x="314" y="607" type="qcurve"/>
      <point x="388" y="582"/>
      <point x="388" y="511" type="qcurve" smooth="yes"/>
      <point x="388" y="447"/>
      <point x="290" y="375"/>
    </contour>
  </outline>
</glyph>
<glyph name="acute" format="2">
  <advance width="500"/>
  <unicode hex="00B4"/>
  <outline>
    <contour>
      <point x="143" y="611" type="line"/>
      <point x="111" y="677" type="line"/>
      <point x="303" y="798" type="line"/>
      <point x="391" y="708" type="line"/>
    </contour>
  </outline>
</glyph>
<glyph name="uni00B5" format="2">
  <advance width="652"/>
  <unicode hex="00B5"/>
  <outline>
    <contour>
      <point x="108" y="-159" type="line"/>
      <point x="70" y="572" type="line"/>
      <point x="212" y="555" type="line"/>
      <point x="212" y="201" type="line" smooth="yes"/>
      <point x="212" y="147"/>
      <point x="269" y="98"/>
      <point x="312" y="98" type="qcurve" smooth="yes"/>
      <point x="353" y="98"/>
      <point x="424" y="141"/>
      <point x="439" y="188" type="qcurve"/>
      <point x="439" y="572" type="line"/>
      <point x="581" y="555" type="line"/>
      <point x="564" y="178" type="line"/>
      <point x="564" y="93"/>
      <point x="640" y="21" type="qcurve"/>
      <point x="544" y="-10" type="line"/>
      <point x="483" y="23"/>
      <point x="465" y="75" type="qcurve"/>
      <point x="442" y="35"/>
      <point x="333" y="-11"/>
      <point x="274" y="-11" type="qcurve" smooth="yes"/>
      <point x="240" y="-11"/>
      <point x="212" y="-1" type="qcurve"/>
      <point x="212" y="-138" type="line"/>
    </contour>
  </outline>
</glyph>
<glyph name="paragraph" format="2">
  <advance width="646"/>
  <unicode hex="00B6"/>
  <outline>
    <contour>
      <point x="572" y="-138" type="line"/>
      <point x="472" y="-137" type="line"/>
      <point x="472" y="691" type="line"/>
      <point x="369" y="691" type="line"/>
      <point x="369" y="-137" type="line"/>
      <point x="266" y="-137" type="line"/>
      <point x="266" y="354" type="line"/>
      <point x="190" y="364"/>
      <point x="136" y="402" type="qcurve" smooth="yes"/>
      <point x="52" y="460"/>
      <point x="52" y="583" type="qcurve" smooth="yes"/>
      <point x="52" y="657"/>
      <point x="119" y="750"/>
      <point x="227" y="795"/>
      <point x="285" y="795" type="qcurve" smooth="yes"/>
      <point x="572" y="795" type="line"/>
    </contour>
  </outline>
</glyph>
<glyph name="periodcentered" format="2">
  <advance width="500"/>
  <unicode hex="00B7"/>
  <unicode hex="2219"/>
  <outline>
    <contour>
      <point x="250" y="267" type="qcurve" smooth="yes"/>
      <point x="205" y="267"/>
      <point x="142" y="332"/>
      <point x="142" y="375" type="qcurve" smooth="yes"/>
      <point x="142" y="422"/>
      <point x="208" y="483"/>
      <point x="250" y="483" type="qcurve" smooth="yes"/>
      <point x="297" y="483"/>
      <point x="358" y="419"/>
      <point x="358" y="375" type="qcurve" smooth="yes"/>
      <point x="358" y="332"/>
      <point x="297" y="267"/>
    </contour>
  </outline>
</glyph>
<glyph name="cedilla" format="2">
  <advance width="500"/>
  <unicode hex="00B8"/>
  <outline>
    <contour>
      <point x="260" y="-165" type="qcurve" smooth="yes"/>
      <point x="224" y="-165"/>
      <point x="150" y="-149"/>
      <point x="128" y="-136" type="qcurve"/>
      <point x="138" y="-87" type="line"/>
      <point x="179" y="-107"/>
      <point x="219" y="-107" type="qcurve" smooth="yes"/>
      <point x="253" y="-107"/>
      <point x="253" y="-91" type="qcurve" smooth="yes"/>
      <point x="253" y="-78"/>
      <point x="239" y="-78" type="qcurve" smooth="yes"/>
      <point x="224" y="-78"/>
      <point x="206" y="-87" type="qcurve"/>
      <point x="147" y="-73" type="line"/>
      <point x="177" y="19" type="line"/>
      <point x="294" y="15" type="line"/>
      <point x="273" y="-30" type="line"/>
      <point x="285" y="-27"/>
      <point x="295" y="-27" type="qcurve" smooth="yes"/>
      <point x="321" y="-27"/>
      <point x="370" y="-54"/>
      <point x="370" y="-89" type="qcurve" smooth="yes"/>
      <point x="370" y="-165"/>
    </contour>
  </outline>
</glyph>
<glyph name="onesuperior" format="2">
  <advance width="442"/>
  <unicode hex="00B9"/>
  <outline>
    <contour>
      <point x="196" y="369" type="line"/>
      <point x="196" y="684" type="line"/>
      <point x="125" y="649" type="line"/>
      <point x="101" y="696" type="line"/>
      <point x="198" y="800" type="line"/>
      <point x="306" y="778" type="line"/>
      <point x="290" y="384" type="line"/>
    </contour>
  </outline>
</glyph>
<glyph name="ordmasculine" format="2">
  <advance width="345"/>
  <unicode hex="00BA"/>
  <outline>
    <contour>
      <point x="174" y="495" type="qcurve" smooth="yes"/>
      <point x="104" y="495"/>
      <point x="23" y="580"/>
      <point x="23" y="647" type="qcurve" smooth="yes"/>
      <point x="23" y="718"/>
      <point x="105" y="800"/>
      <point x="174" y="800" type="qcurve" smooth="yes"/>
      <point x="245" y="800"/>
      <point x="324" y="718"/>
      <point x="324" y="647" type="qcurve" smooth="yes"/>
      <point x="324" y="580"/>
      <point x="245" y="495"/>
    </contour>
    <contour>
      <point x="181" y="556" type="qcurve"/>
      <point x="237" y="562"/>
      <point x="237" y="646" type="qcurve" smooth="yes"/>
      <point x="237" y="679"/>
      <point x="217" y="714" type="qcurve"/>
      <point x="201" y="738"/>
      <point x="166" y="738" type="qcurve"/>
      <point x="139" y="735"/>
      <point x="109" y="688"/>
      <point x="109" y="655" type="qcurve" smooth="yes"/>
      <point x="109" y="605"/>
      <point x="138" y="572" type="qcurve"/>
      <point x="153" y="556"/>
    </contour>
  </outline>
</glyph>
<glyph name="guillemotright" format="2">
  <advance width="690"/>
  <unicode hex="00BB"/>
  <outline>
    <contour>
      <point x="317" y="-17" type="line"/>
      <point x="317" y="78" type="line"/>
      <point x="517" y="277" type="line"/>
      <point x="317" y="479" type="line"/>
      <point x="317" y="572" type="line"/>
      <point x="619" y="342" type="line"/>
      <point x="619" y="211" type="line"/>
    </contour>
    <contour>
      <point x="77" y="-17" type="line"/>
      <point x="77" y="78" type="line"/>
      <point x="277" y="277" type="line"/>
      <point x="77" y="479" type="line"/>
      <point x="77" y="572" type="line"/>
      <point x="379" y="342" type="line"/>
      <point x="379" y="211" type="line"/>
    </contour>
  </outline>
</glyph>
<glyph name="onequarter" format="2">
  <advance width="741"/>
  <unicode hex="00BC"/>
  <outline>
    <contour>
      <point x="146" y="369" type="line"/>
      <point x="146" y="684" type="line"/>
      <point x="75" y="649" type="line"/>
      <point x="51" y="696" type="line"/>
      <point x="148" y="800" type="line"/>
      <point x="261" y="778" type="line"/>
      <point x="245" y="384" type="line"/>
    </contour>
    <contour>
      <point x="174" y="-22" type="line"/>
      <point x="67" y="-22" type="line"/>
      <point x="495" y="803" type="line"/>
      <point x="601" y="803" type="line"/>
    </contour>
    <contour>
      <point x="556" y="-11" type="line"/>
      <point x="556" y="71" type="line"/>
      <point x="367" y="71" type="line"/>
      <point x="349" y="144" type="line"/>
      <point x="436" y="284"/>
      <point x="494" y="427" type="qcurve"/>
      <point x="602" y="401" type="line"/>
      <point x="584" y="364"/>
      <point x="561" y="326" type="qcurve"/>
      <point x="658" y="317" type="line"/>
      <point x="649" y="156" type="line"/>
      <point x="716" y="160" type="line"/>
      <point x="716" y="71" type="line"/>
      <point x="645" y="71" type="line"/>
      <point x="641" y="3" type="line"/>
    </contour>
    <contour>
      <point x="435" y="144" type="qcurve"/>
      <point x="556" y="151" type="line"/>
      <point x="556" y="318" type="line"/>
      <point x="499" y="227"/>
    </contour>
  </outline>
</glyph>
<glyph name="onehalf" format="2">
  <advance width="741"/>
  <unicode hex="00BD"/>
  <outline>
    <contour>
      <point x="146" y="369" type="line"/>
      <point x="146" y="684" type="line"/>
      <point x="75" y="649" type="line"/>
      <point x="51" y="696" type="line"/>
      <point x="148" y="800" type="line"/>
      <point x="261" y="778" type="line"/>
      <point x="245" y="384" type="line"/>
    </contour>
    <contour>
      <point x="174" y="-22" type="line"/>
      <point x="67" y="-22" type="line"/>
      <point x="495" y="803" type="line"/>
      <point x="601" y="803" type="line"/>
    </contour>
    <contour>
      <point x="702" y="0" type="line"/>
      <point x="393" y="0" type="line"/>
      <point x="378" y="69" type="line"/>
      <point x="474" y="146"/>
      <point x="584" y="253"/>
      <point x="584" y="293" type="qcurve" smooth="yes"/>
      <point x="584" y="316"/>
      <point x="551" y="347"/>
      <point x="528" y="347" type="qcurve" smooth="yes"/>
      <point x="471" y="347"/>
      <point x="443" y="292" type="qcurve"/>
      <point x="388" y="315" type="line"/>
      <point x="401" y="361"/>
      <point x="484" y="428"/>
      <point x="544" y="428" type="qcurve" smooth="yes"/>
      <point x="615" y="428"/>
      <point x="697" y="356"/>
      <point x="697" y="299" type="qcurve" smooth="yes"/>
      <point x="697" y="259"/>
      <point x="670" y="223" type="qcurve"/>
      <point x="626" y="170"/>
      <point x="497" y="83" type="qcurve"/>
      <point x="702" y="100" type="line"/>
    </contour>
  </outline>
</glyph>
<glyph name="threequarters" format="2">
  <advance width="741"/>
  <unicode hex="00BE"/>
  <outline>
    <contour>
      <point x="197" y="375" type="qcurve" smooth="yes"/>
      <point x="139" y="375"/>
      <point x="54" y="442"/>
      <point x="36" y="486" type="qcurve"/>
      <point x="81" y="534" type="line"/>
      <point x="120" y="462"/>
      <point x="192" y="462" type="qcurve" smooth="yes"/>
      <point x="215" y="462"/>
      <point x="259" y="491"/>
      <point x="259" y="513" type="qcurve" smooth="yes"/>
      <point x="259" y="536"/>
      <point x="226" y="561"/>
      <point x="203" y="561" type="qcurve"/>
      <point x="139" y="562" type="line"/>
      <point x="123" y="629" type="line"/>
      <point x="171" y="634"/>
      <point x="214" y="643"/>
      <point x="244" y="665"/>
      <point x="244" y="684" type="qcurve" smooth="yes"/>
      <point x="244" y="725"/>
      <point x="189" y="727" type="qcurve"/>
      <point x="135" y="727"/>
      <point x="104" y="683" type="qcurve"/>
      <point x="51" y="708" type="line"/>
      <point x="69" y="751"/>
      <point x="148" y="807"/>
      <point x="206" y="807" type="qcurve" smooth="yes"/>
      <point x="268" y="807"/>
      <point x="355" y="749"/>
      <point x="355" y="692" type="qcurve" smooth="yes"/>
      <point x="355" y="638"/>
      <point x="296" y="607" type="qcurve"/>
      <point x="370" y="582"/>
      <point x="370" y="511" type="qcurve" smooth="yes"/>
      <point x="370" y="447"/>
      <point x="272" y="375"/>
    </contour>
    <contour>
      <point x="226" y="-22" type="line"/>
      <point x="119" y="-22" type="line"/>
      <point x="547" y="803" type="line"/>
      <point x="653" y="803" type="line"/>
    </contour>
    <contour>
      <point x="556" y="-11" type="line"/>
      <point x="556" y="71" type="line"/>
      <point x="367" y="71" type="line"/>
      <point x="349" y="144" type="line"/>
      <point x="436" y="284"/>
      <point x="494" y="427" type="qcurve"/>
      <point x="602" y="401" type="line"/>
      <point x="584" y="364"/>
      <point x="561" y="326" type="qcurve"/>
      <point x="658" y="317" type="line"/>
      <point x="649" y="156" type="line"/>
      <point x="716" y="160" type="line"/>
      <point x="716" y="71" type="line"/>
      <point x="645" y="71" type="line"/>
      <point x="641" y="3" type="line"/>
    </contour>
    <contour>
      <point x="435" y="144" type="qcurve"/>
      <point x="556" y="151" type="line"/>
      <point x="556" y="318" type="line"/>
      <point x="499" y="227"/>
    </contour>
  </outline>
</glyph>
<glyph name="questiondown" format="2">
  <advance width="690"/>
  <unicode hex="00BF"/>
  <outline>
    <contour>
      <point x="356" y="443" type="qcurve" smooth="yes"/>
      <point x="322" y="443"/>
      <point x="272" y="493"/>
      <point x="272" y="527" type="qcurve" smooth="yes"/>
      <point x="272" y="562"/>
      <point x="322" y="611"/>
      <point x="356" y="611" type="qcurve" smooth="yes"/>
      <point x="391" y="611"/>
      <point x="440" y="562"/>
      <point x="440" y="527" type="qcurve" smooth="yes"/>
      <point x="440" y="493"/>
      <point x="391" y="443"/>
    </contour>
    <contour>
      <point x="353" y="-201" type="qcurve" smooth="yes"/>
      <point x="262" y="-201"/>
      <point x="144" y="-142"/>
      <point x="85" y="-45"/>
      <point x="85" y="10" type="qcurve" smooth="yes"/>
      <point x="85" y="91"/>
      <point x="169" y="197"/>
      <point x="252" y="240" type="qcurve"/>
      <point x="289" y="258"/>
      <point x="319" y="298"/>
      <point x="319" y="352" type="qcurve"/>
      <point x="318" y="375" type="line"/>
      <point x="402" y="375" type="line"/>
      <point x="404" y="362"/>
      <point x="404" y="347" type="qcurve" smooth="yes"/>
      <point x="404" y="286"/>
      <point x="393" y="231"/>
      <point x="382" y="213" type="qcurve" smooth="yes"/>
      <point x="364" y="183"/>
      <point x="316" y="142"/>
      <point x="268" y="104"/>
      <point x="235" y="55"/>
      <point x="235" y="16" type="qcurve" smooth="yes"/>
      <point x="235" y="-39"/>
      <point x="312" y="-97"/>
      <point x="363" y="-97" type="qcurve" smooth="yes"/>
      <point x="416" y="-97"/>
      <point x="510" y="-44"/>
      <point x="538" y="10" type="qcurve"/>
      <point x="612" y="-28" type="line"/>
      <point x="602" y="-70"/>
      <point x="539" y="-149"/>
      <point x="431" y="-201"/>
    </contour>
  </outline>
</glyph>
<glyph name="Agrave" format="2">
  <advance width="727"/>
  <unicode hex="00C0"/>
  <outline>
    <contour>
      <point x="472" y="812" type="line"/>
      <point x="224" y="909" type="line"/>
      <point x="312" y="999" type="line"/>
      <point x="504" y="878" type="line"/>
    </contour>
    <contour>
      <point x="575" y="-13" type="line"/>
      <point x="522" y="147" type="line"/>
      <point x="180" y="147" type="line"/>
      <point x="110" y="-13" type="line"/>
      <point x="6" y="0" type="line"/>
      <point x="294" y="800" type="line"/>
      <point x="449" y="762" type="line"/>
      <point x="428" y="715" type="line"/>
      <point x="728" y="1" type="line"/>
    </contour>
    <contour>
      <point x="219" y="237" type="line"/>
      <point x="483" y="266" type="line"/>
      <point x="375" y="593" type="line"/>
    </contour>
  </outline>
</glyph>
<glyph name="Atilde" format="2">
  <advance width="727"/>
  <unicode hex="00C3"/>
  <outline>
    <contour>
      <point x="211" y="826" type="qcurve"/>
      <point x="182" y="892" type="line"/>
      <point x="206" y="925"/>
      <point x="263" y="972"/>
      <point x="300" y="972" type="qcurve" smooth="yes"/>
      <point x="332" y="972"/>
      <point x="351" y="963" type="qcurve"/>
      <point x="388" y="944" type="line"/>
      <point x="406" y="934"/>
      <point x="431" y="934" type="qcurve" smooth="yes"/>
      <point x="460" y="934"/>
      <point x="495" y="949"/>
      <point x="519" y="974" type="qcurve"/>
      <point x="548" y="908" type="line"/>
      <point x="492" y="828"/>
      <point x="430" y="828" type="qcurve" smooth="yes"/>
      <point x="399" y="828"/>
      <point x="360" y="847"/>
      <point x="325" y="866"/>
      <point x="299" y="866" type="qcurve" smooth="yes"/>
      <point x="272" y="866"/>
      <point x="236" y="852"/>
    </contour>
    <contour>
      <point x="575" y="-13" type="line"/>
      <point x="522" y="147" type="line"/>
      <point x="180" y="147" type="line"/>
      <point x="110" y="-13" type="line"/>
      <point x="6" y="0" type="line"/>
      <point x="294" y="800" type="line"/>
      <point x="449" y="762" type="line"/>
      <point x="428" y="715" type="line"/>
      <point x="728" y="1" type="line"/>
    </contour>
    <contour>
      <point x="219" y="237" type="line"/>
      <point x="483" y="266" type="line"/>
      <point x="375" y="593" type="line"/>
    </contour>
  </outline>
</glyph>
<glyph name="Aring" format="2">
  <advance width="727"/>
  <unicode hex="00C5"/>
  <outline>
    <contour>
      <point x="364" y="796" type="qcurve" smooth="yes"/>
      <point x="313" y="796"/>
      <point x="245" y="866"/>
      <point x="245" y="915" type="qcurve" smooth="yes"/>
      <point x="245" y="966"/>
      <point x="315" y="1034"/>
      <point x="364" y="1034" type="qcurve" smooth="yes"/>
      <point x="415" y="1034"/>
      <point x="483" y="965"/>
      <point x="483" y="915" type="qcurve" smooth="yes"/>
      <point x="483" y="864"/>
      <point x="414" y="796"/>
    </contour>
    <contour>
      <point x="364" y="868" type="qcurve" smooth="yes"/>
      <point x="405" y="868"/>
      <point x="411" y="915" type="qcurve"/>
      <point x="411" y="935"/>
      <point x="384" y="962"/>
      <point x="364" y="962" type="qcurve" smooth="yes"/>
      <point x="345" y="962"/>
      <point x="317" y="936"/>
      <point x="317" y="915" type="qcurve" smooth="yes"/>
      <point x="317" y="896"/>
      <point x="345" y="868"/>
    </contour>
    <contour>
      <point x="575" y="-13" type="line"/>
      <point x="522" y="147" type="line"/>
      <point x="180" y="147" type="line"/>
      <point x="110" y="-13" type="line"/>
      <point x="6" y="0" type="line"/>
      <point x="294" y="800" type="line"/>
      <point x="449" y="762" type="line"/>
      <point x="428" y="715" type="line"/>
      <point x="728" y="1" type="line"/>
    </contour>
    <contour>
      <point x="219" y="237" type="line"/>
      <point x="483" y="266" type="line"/>
      <point x="375" y="593" type="line"/>
    </contour>
  </outline>
</glyph>
<glyph name="AE" format="2">
  <advance width="908"/>
  <unicode hex="00C6"/>
  <outline>
    <contour>
      <point x="102" y="-13" type="line"/>
      <point x="6" y="0" type="line"/>
      <point x="358" y="800" type="line"/>
      <point x="472" y="759" type="line"/>
      <point x="853" y="790" type="line"/>
      <point x="853" y="665" type="line"/>
      <point x="552" y="665" type="line"/>
      <point x="552" y="442" type="line"/>
      <point x="807" y="472" type="line"/>
      <point x="807" y="340" type="line"/>
      <point x="552" y="340" type="line"/>
      <point x="552" y="105" type="line"/>
      <point x="867" y="135" type="line"/>
      <point x="867" y="0" type="line"/>
      <point x="442" y="0" type="line"/>
      <point x="438" y="147" type="line"/>
      <point x="184" y="147" type="line"/>
    </contour>
    <contour>
      <point x="232" y="243" type="line"/>
      <point x="435" y="265" type="line"/>
      <point x="427" y="626" type="line"/>
    </contour>
  </outline>
</glyph>
<glyph name="Ccedilla" format="2">
  <advance width="729"/>
  <unicode hex="00C7"/>
  <outline>
    <contour>
      <point x="418" y="-165" type="qcurve" smooth="yes"/>
      <point x="382" y="-165"/>
      <point x="308" y="-149"/>
      <point x="286" y="-136" type="qcurve"/>
      <point x="296" y="-87" type="line"/>
      <point x="337" y="-107"/>
      <point x="377" y="-107" type="qcurve" smooth="yes"/>
      <point x="411" y="-107"/>
      <point x="411" y="-91" type="qcurve" smooth="yes"/>
      <point x="411" y="-78"/>
      <point x="397" y="-78" type="qcurve" smooth="yes"/>
      <point x="382" y="-78"/>
      <point x="364" y="-87" type="qcurve"/>
      <point x="305" y="-73" type="line"/>
      <point x="326" y="-8" type="line"/>
      <point x="197" y="22"/>
      <point x="51" y="231"/>
      <point x="51" y="393" type="qcurve" smooth="yes"/>
      <point x="51" y="579"/>
      <point x="255" y="799"/>
      <point x="415" y="799" type="qcurve" smooth="yes"/>
      <point x="516" y="799"/>
      <point x="656" y="735"/>
      <point x="689" y="691" type="qcurve"/>
      <point x="661" y="510" type="line"/>
      <point x="595" y="510" type="line"/>
      <point x="584" y="584"/>
      <point x="536" y="663"/>
      <point x="461" y="692"/>
      <point x="408" y="692" type="qcurve" smooth="yes"/>
      <point x="353" y="692"/>
      <point x="254" y="634"/>
      <point x="190" y="503"/>
      <point x="190" y="393" type="qcurve" smooth="yes"/>
      <point x="190" y="296"/>
      <point x="258" y="163"/>
      <point x="367" y="97"/>
      <point x="428" y="97" type="qcurve" smooth="yes"/>
      <point x="502" y="97"/>
      <point x="622" y="169"/>
      <point x="655" y="213" type="qcurve"/>
      <point x="713" y="145" type="line"/>
      <point x="679" y="82"/>
      <point x="533" y="-9"/>
      <point x="437" y="-17" type="qcurve"/>
      <point x="431" y="-30" type="line"/>
      <point x="443" y="-27"/>
      <point x="453" y="-27" type="qcurve" smooth="yes"/>
      <point x="479" y="-27"/>
      <point x="528" y="-55"/>
      <point x="528" y="-88" type="qcurve" smooth="yes"/>
      <point x="528" y="-165"/>
    </contour>
  </outline>
</glyph>
<glyph name="Egrave" format="2">
  <advance width="678"/>
  <unicode hex="00C8"/>
  <outline>
    <contour>
      <point x="447" y="812" type="line"/>
      <point x="199" y="909" type="line"/>
      <point x="287" y="999" type="line"/>
      <point x="479" y="878" type="line"/>
    </contour>
    <contour>
      <point x="637" y="0" type="line"/>
      <point x="111" y="0" type="line"/>
      <point x="93" y="665" type="line"/>
      <point x="50" y="665" type="line"/>
      <point x="30" y="752" type="line"/>
      <point x="618" y="790" type="line"/>
      <point x="618" y="665" type="line"/>
      <point x="239" y="665" type="line"/>
      <point x="239" y="442" type="line"/>
      <point x="568" y="472" type="line"/>
      <point x="568" y="340" type="line"/>
      <point x="239" y="340" type="line"/>
      <point x="239" y="105" type="line"/>
      <point x="637" y="135" type="line"/>
    </contour>
  </outline>
</glyph>
<glyph name="Ecircumflex" format="2">
  <advance width="678"/>
  <unicode hex="00CA"/>
  <outline>
    <contour>
      <point x="489" y="802" type="line"/>
      <point x="339" y="906" type="line"/>
      <point x="189" y="802" type="line"/>
      <point x="142" y="856" type="line"/>
      <point x="281" y="1005" type="line"/>
      <point x="395" y="1005" type="line"/>
      <point x="537" y="856" type="line"/>
    </contour>
    <contour>
      <point x="637" y="0" type="line"/>
      <point x="111" y="0" type="line"/>
      <point x="93" y="665" type="line"/>
      <point x="50" y="665" type="line"/>
      <point x="30" y="752" type="line"/>
      <point x="618" y="790" type="line"/>
      <point x="618" y="665" type="line"/>
      <point x="239" y="665" type="line"/>
      <point x="239" y="442" type="line"/>
      <point x="568" y="472" type="line"/>
      <point x="568" y="340" type="line"/>
      <point x="239" y="340" type="line"/>
      <point x="239" y="105" type="line"/>
      <point x="637" y="135" type="line"/>
    </contour>
  </outline>
</glyph>
<glyph name="Iacute" format="2">
  <advance width="342"/>
  <unicode hex="00CD"/>
  <outline>
    <contour>
      <point x="62" y="812" type="line"/>
      <point x="30" y="878" type="line"/>
      <point x="222" y="999" type="line"/>
      <point x="310" y="909" type="line"/>
    </contour>
    <contour>
      <point x="93" y="-13" type="line"/>
      <point x="93" y="800" type="line"/>
      <point x="247" y="780" type="line"/>
      <point x="217" y="0" type="line"/>
    </contour>
  </outline>
</glyph>
<glyph name="Icircumflex" format="2">
  <advance width="342"/>
  <unicode hex="00CE"/>
  <outline>
    <contour>
      <point x="322" y="802" type="line"/>
      <point x="172" y="906" type="line"/>
      <point x="22" y="802" type="line"/>
      <point x="-24" y="856" type="line"/>
      <point x="114" y="1005" type="line"/>
      <point x="228" y="1005" type="line"/>
      <point x="370" y="856" type="line"/>
    </contour>
    <contour>
      <point x="93" y="-13" type="line"/>
      <point x="93" y="800" type="line"/>
      <point x="247" y="780" type="line"/>
      <point x="217" y="0" type="line"/>
    </contour>
  </outline>
</glyph>
<glyph name="Idieresis" format="2">
  <advance width="342"/>
  <unicode hex="00CF"/>
  <outline>
    <contour>
      <point x="274" y="827" type="qcurve" smooth="yes"/>
      <point x="246" y="827"/>
      <point x="203" y="867"/>
      <point x="203" y="897" type="qcurve" smooth="yes"/>
      <point x="203" y="926"/>
      <point x="246" y="968"/>
      <point x="274" y="968" type="qcurve" smooth="yes"/>
      <point x="303" y="968"/>
      <point x="345" y="926"/>
      <point x="345" y="897" type="qcurve" smooth="yes"/>
      <point x="345" y="867"/>
      <point x="303" y="827"/>
    </contour>
    <contour>
      <point x="74" y="827" type="qcurve" smooth="yes"/>
      <point x="46" y="827"/>
      <point x="3" y="867"/>
      <point x="3" y="897" type="qcurve" smooth="yes"/>
      <point x="3" y="926"/>
      <point x="46" y="968"/>
      <point x="74" y="968" type="qcurve" smooth="yes"/>
      <point x="103" y="968"/>
      <point x="145" y="926"/>
      <point x="145" y="897" type="qcurve" smooth="yes"/>
      <point x="145" y="867"/>
      <point x="103" y="827"/>
    </contour>
    <contour>
      <point x="93" y="-13" type="line"/>
      <point x="93" y="800" type="line"/>
      <point x="247" y="780" type="line"/>
      <point x="217" y="0" type="line"/>
    </contour>
  </outline>
</glyph>
<glyph name="Eth" format="2">
  <advance width="791"/>
  <unicode hex="00D0"/>
  <outline>
    <contour>
      <point x="378" y="0" type="qcurve" smooth="yes"/>
      <point x="109" y="0" type="line"/>
      <point x="100" y="336" type="line"/>
      <point x="35" y="336" type="line"/>
      <point x="35" y="421" type="line"/>
      <point x="98" y="421" type="line"/>
      <point x="91" y="669" type="line"/>
      <point x="63" y="667"/>
      <point x="40" y="662" type="qcurve"/>
      <point x="20" y="750" type="line"/>
      <point x="81" y="764"/>
      <point x="285" y="790"/>
      <point x="369" y="790" type="qcurve" smooth="yes"/>
      <point x="540" y="790"/>
      <point x="734" y="579"/>
      <point x="734" y="384" type="qcurve" smooth="yes"/>
      <point x="734" y="263"/>
      <point x="635" y="91"/>
      <point x="473" y="0"/>
    </contour>
    <contour>
      <point x="232" y="98" type="line"/>
      <point x="288" y="98"/>
      <point x="387" y="104"/>
      <point x="464" y="121"/>
      <point x="542" y="186"/>
      <point x="594" y="301"/>
      <point x="594" y="385" type="qcurve" smooth="yes"/>
      <point x="594" y="489"/>
      <point x="530" y="621"/>
      <point x="423" y="684"/>
      <point x="358" y="684" type="qcurve" smooth="yes"/>
      <point x="295" y="684"/>
      <point x="232" y="681" type="qcurve"/>
      <point x="232" y="421" type="line"/>
      <point x="424" y="421" type="line"/>
      <point x="424" y="336" type="line"/>
      <point x="232" y="336" type="line"/>
    </contour>
  </outline>
</glyph>
<glyph name="Ntilde" format="2">
  <advance width="789"/>
  <unicode hex="00D1"/>
  <outline>
    <contour>
      <point x="236" y="826" type="qcurve"/>
      <point x="207" y="892" type="line"/>
      <point x="231" y="925"/>
      <point x="288" y="972"/>
      <point x="325" y="972" type="qcurve" smooth="yes"/>
      <point x="357" y="972"/>
      <point x="376" y="963" type="qcurve"/>
      <point x="413" y="944" type="line"/>
      <point x="431" y="934"/>
      <point x="456" y="934" type="qcurve" smooth="yes"/>
      <point x="485" y="934"/>
      <point x="520" y="949"/>
      <point x="544" y="974" type="qcurve"/>
      <point x="573" y="908" type="line"/>
      <point x="517" y="828"/>
      <point x="455" y="828" type="qcurve" smooth="yes"/>
      <point x="424" y="828"/>
      <point x="385" y="847"/>
      <point x="350" y="866"/>
      <point x="324" y="866" type="qcurve" smooth="yes"/>
      <point x="297" y="866"/>
      <point x="261" y="852"/>
    </contour>
    <contour>
      <point x="581" y="-13" type="line"/>
      <point x="220" y="533" type="line"/>
      <point x="232" y="0" type="line"/>
      <point x="119" y="-13" type="line"/>
      <point x="90" y="697" type="line"/>
      <point x="55" y="748" type="line"/>
      <point x="216" y="800" type="line"/>
      <point x="564" y="210" type="line"/>
      <point x="558" y="800" type="line"/>
      <point x="697" y="780" type="line"/>
      <point x="670" y="0" type="line"/>
    </contour>
  </outline>
</glyph>
<glyph name="Ocircumflex" format="2">
  <advance width="804"/>
  <unicode hex="00D4"/>
  <outline>
    <contour>
      <point x="552" y="802" type="line"/>
      <point x="402" y="906" type="line"/>
      <point x="252" y="802" type="line"/>
      <point x="205" y="856" type="line"/>
      <point x="344" y="1005" type="line"/>
      <point x="458" y="1005" type="line"/>
      <point x="600" y="856" type="line"/>
    </contour>
    <contour>
      <point x="402" y="-18" type="qcurve" smooth="yes"/>
      <point x="287" y="-18"/>
      <point x="130" y="93"/>
      <point x="51" y="280"/>
      <point x="51" y="392" type="qcurve" smooth="yes"/>
      <point x="51" y="574"/>
      <point x="242" y="799"/>
      <point x="402" y="799" type="qcurve" smooth="yes"/>
      <point x="518" y="799"/>
      <point x="673" y="687"/>
      <point x="751" y="502"/>
      <point x="751" y="392" type="qcurve" smooth="yes"/>
      <point x="751" y="205"/>
      <point x="563" y="-18"/>
    </contour>
    <contour>
      <point x="411" y="94" type="qcurve" smooth="yes"/>
      <point x="498" y="94"/>
      <point x="616" y="239"/>
      <point x="616" y="366" type="qcurve" smooth="yes"/>
      <point x="616" y="455"/>
      <point x="565" y="600"/>
      <point x="462" y="686"/>
      <point x="387" y="686" type="qcurve" smooth="yes"/>
      <point x="339" y="686"/>
      <point x="246" y="626"/>
      <point x="186" y="507"/>
      <point x="186" y="417" type="qcurve" smooth="yes"/>
      <point x="186" y="338"/>
      <point x="237" y="189"/>
      <point x="336" y="94"/>
    </contour>
  </outline>
</glyph>
<glyph name="Otilde" format="2">
  <advance width="804"/>
  <unicode hex="00D5"/>
  <outline>
    <contour>
      <point x="254" y="826" type="qcurve"/>
      <point x="225" y="892" type="line"/>
      <point x="249" y="925"/>
      <point x="306" y="972"/>
      <point x="343" y="972" type="qcurve" smooth="yes"/>
      <point x="375" y="972"/>
      <point x="394" y="963" type="qcurve"/>
      <point x="431" y="944" type="line"/>
      <point x="449" y="934"/>
      <point x="474" y="934" type="qcurve" smooth="yes"/>
      <point x="503" y="934"/>
      <point x="538" y="949"/>
      <point x="562" y="974" type="qcurve"/>
      <point x="591" y="908" type="line"/>
      <point x="535" y="828"/>
      <point x="473" y="828" type="qcurve" smooth="yes"/>
      <point x="442" y="828"/>
      <point x="403" y="847"/>
      <point x="368" y="866"/>
      <point x="342" y="866" type="qcurve" smooth="yes"/>
      <point x="315" y="866"/>
      <point x="279" y="852"/>
    </contour>
    <contour>
      <point x="402" y="-18" type="qcurve" smooth="yes"/>
      <point x="287" y="-18"/>
      <point x="130" y="93"/>
      <point x="51" y="280"/>
      <point x="51" y="392" type="qcurve" smooth="yes"/>
      <point x="51" y="574"/>
      <point x="242" y="799"/>
      <point x="402" y="799" type="qcurve" smooth="yes"/>
      <point x="518" y="799"/>
      <point x="673" y="687"/>
      <point x="751" y="502"/>
      <point x="751" y="392" type="qcurve" smooth="yes"/>
      <point x="751" y="205"/>
      <point x="563" y="-18"/>
    </contour>
    <contour>
      <point x="411" y="94" type="qcurve" smooth="yes"/>
      <point x="498" y="94"/>
      <point x="616" y="239"/>
      <point x="616" y="366" type="qcurve" smooth="yes"/>
      <point x="616" y="455"/>
      <point x="565" y="600"/>
      <point x="462" y="686"/>
      <point x="387" y="686" type="qcurve" smooth="yes"/>
      <point x="339" y="686"/>
      <point x="246" y="626"/>
      <point x="186" y="507"/>
      <point x="186" y="417" type="qcurve" smooth="yes"/>
      <point x="186" y="338"/>
      <point x="237" y="189"/>
      <point x="336" y="94"/>
    </contour>
  </outline>
</glyph>
<glyph name="multiply" format="2">
  <advance width="690"/>
  <unicode hex="00D7"/>
  <outline>
    <contour>
      <point x="539" y="100" type="line"/>
      <point x="344" y="294" type="line"/>
      <point x="149" y="100" type="line"/>
      <point x="68" y="180" type="line"/>
      <point x="263" y="375" type="line"/>
      <point x="67" y="571" type="line"/>
      <point x="148" y="652" type="line"/>
      <point x="344" y="456" type="line"/>
      <point x="540" y="652" type="line"/>
      <point x="621" y="571" type="line"/>
      <point x="425" y="375" type="line"/>
      <point x="620" y="180" type="line"/>
    </contour>
  </outline>
</glyph>
<glyph name="Oslash" format="2">
  <advance width="804"/>
  <unicode hex="00D8"/>
  <outline>
    <contour>
      <point x="107" y="-31" type="line"/>
      <point x="30" y="37" type="line"/>
      <point x="115" y="137" type="line"/>
      <point x="51" y="242"/>
      <point x="51" y="392" type="qcurve" smooth="yes"/>
      <point x="51" y="574"/>
      <point x="242" y="799"/>
      <point x="402" y="799" type="qcurve" smooth="yes"/>
      <point x="532" y="799"/>
      <point x="619" y="723" type="qcurve"/>
      <point x="688" y="804" type="line"/>
      <point x="764" y="736" type="line"/>
      <point x="686" y="645" type="line"/>
      <point x="751" y="548"/>
      <point x="751" y="392" type="qcurve" smooth="yes"/>
      <point x="751" y="205"/>
      <point x="563" y="-18"/>
      <point x="402" y="-18" type="qcurve" smooth="yes"/>
      <point x="271" y="-18"/>
      <point x="183" y="57" type="qcurve"/>
    </contour>
    <contour>
      <point x="214" y="252" type="qcurve"/>
      <point x="533" y="623" type="line"/>
      <point x="477" y="686"/>
      <point x="394" y="686" type="qcurve" smooth="yes"/>
      <point x="340" y="686"/>
      <point x="245" y="626"/>
      <point x="186" y="506"/>
      <point x="186" y="417" type="qcurve" smooth="yes"/>
      <point x="186" y="341"/>
    </contour>
    <contour>
      <point x="411" y="94" type="qcurve" smooth="yes"/>
      <point x="498" y="94"/>
      <point x="616" y="239"/>
      <point x="616" y="366" type="qcurve" smooth="yes"/>
      <point x="616" y="446"/>
      <point x="588" y="531" type="qcurve"/>
      <point x="270" y="158" type="line"/>
      <point x="329" y="94"/>
    </contour>
  </outline>
</glyph>
<glyph name="Uacute" format="2">
  <advance width="792"/>
  <unicode hex="00DA"/>
  <outline>
    <contour>
      <point x="291" y="812" type="line"/>
      <point x="259" y="878" type="line"/>
      <point x="451" y="999" type="line"/>
      <point x="539" y="909" type="line"/>
    </contour>
    <contour>
      <point x="386" y="-18" type="qcurve" smooth="yes"/>
      <point x="295" y="-18"/>
      <point x="169" y="57"/>
      <point x="104" y="183"/>
      <point x="101" y="262" type="qcurve" smooth="yes"/>
      <point x="81" y="800" type="line"/>
      <point x="233" y="780" type="line"/>
      <point x="233" y="285" type="line" smooth="yes"/>
      <point x="233" y="197"/>
      <point x="327" y="97"/>
      <point x="396" y="97" type="qcurve" smooth="yes"/>
      <point x="441" y="97"/>
      <point x="517" y="136"/>
      <point x="563" y="219"/>
      <point x="563" y="285" type="qcurve" smooth="yes"/>
      <point x="563" y="800" type="line"/>
      <point x="711" y="780" type="line"/>
      <point x="691" y="262" type="line"/>
      <point x="689" y="189"/>
      <point x="623" y="63"/>
      <point x="490" y="-18"/>
    </contour>
  </outline>
</glyph>
<glyph name="Udieresis" format="2">
  <advance width="792"/>
  <unicode hex="00DC"/>
  <outline>
    <contour>
      <point x="495" y="827" type="qcurve" smooth="yes"/>
      <point x="467" y="827"/>
      <point x="424" y="867"/>
      <point x="424" y="897" type="qcurve" smooth="yes"/>
      <point x="424" y="926"/>
      <point x="467" y="968"/>
      <point x="495" y="968" type="qcurve" smooth="yes"/>
      <point x="524" y="968"/>
      <point x="566" y="926"/>
      <point x="566" y="897" type="qcurve" smooth="yes"/>
      <point x="566" y="867"/>
      <point x="524" y="827"/>
    </contour>
    <contour>
      <point x="295" y="827" type="qcurve" smooth="yes"/>
      <point x="267" y="827"/>
      <point x="224" y="867"/>
      <point x="224" y="897" type="qcurve" smooth="yes"/>
      <point x="224" y="926"/>
      <point x="267" y="968"/>
      <point x="295" y="968" type="qcurve" smooth="yes"/>
      <point x="324" y="968"/>
      <point x="366" y="926"/>
      <point x="366" y="897" type="qcurve" smooth="yes"/>
      <point x="366" y="867"/>
      <point x="324" y="827"/>
    </contour>
    <contour>
      <point x="386" y="-18" type="qcurve" smooth="yes"/>
      <point x="295" y="-18"/>
      <point x="169" y="57"/>
      <point x="104" y="183"/>
      <point x="101" y="262" type="qcurve" smooth="yes"/>
      <point x="81" y="800" type="line"/>
      <point x="233" y="780" type="line"/>
      <point x="233" y="285" type="line" smooth="yes"/>
      <point x="233" y="197"/>
      <point x="327" y="97"/>
      <point x="396" y="97" type="qcurve" smooth="yes"/>
      <point x="441" y="97"/>
      <point x="517" y="136"/>
      <point x="563" y="219"/>
      <point x="563" y="285" type="qcurve" smooth="yes"/>
      <point x="563" y="800" type="line"/>
      <point x="711" y="780" type="line"/>
      <point x="691" y="262" type="line"/>
      <point x="689" y="189"/>
      <point x="623" y="63"/>
      <point x="490" y="-18"/>
    </contour>
  </outline>
</glyph>
<glyph name="Yacute" format="2">
  <advance width="632"/>
  <unicode hex="00DD"/>
  <outline>
    <contour>
      <point x="212" y="812" type="line"/>
      <point x="180" y="878" type="line"/>
      <point x="372" y="999" type="line"/>
      <point x="460" y="909" type="line"/>
    </contour>
    <contour>
      <point x="249" y="-13" type="line"/>
      <point x="249" y="282" type="line"/>
      <point x="-8" y="778" type="line"/>
      <point x="153" y="800" type="line"/>
      <point x="312" y="407" type="line"/>
      <point x="541" y="793" type="line"/>
      <point x="635" y="763" type="line"/>
      <point x="400" y="278" type="line"/>
      <point x="380" y="0" type="line"/>
    </contour>
  </outline>
</glyph>
<glyph name="Thorn" format="2">
  <advance width="668"/>
  <unicode hex="00DE"/>
  <outline>
    <contour>
      <point x="93" y="-13" type="line"/>
      <point x="93" y="800" type="line"/>
      <point x="247" y="780" type="line"/>
      <point x="242" y="652" type="line"/>
      <point x="298" y="664"/>
      <point x="362" y="664" type="qcurve" smooth="yes"/>
      <point x="428" y="664"/>
      <point x="559" y="609"/>
      <point x="646" y="499"/>
      <point x="646" y="416" type="qcurve" smooth="yes"/>
      <point x="646" y="320"/>
      <point x="558" y="200"/>
      <point x="425" y="144"/>
      <point x="359" y="144" type="qcurve" smooth="yes"/>
      <point x="301" y="144"/>
      <point x="223" y="179" type="qcurve"/>
      <point x="217" y="0" type="line"/>
    </contour>
    <contour>
      <point x="340" y="249" type="qcurve" smooth="yes"/>
      <point x="381" y="249"/>
      <point x="457" y="282"/>
      <point x="506" y="353"/>
      <point x="506" y="410" type="qcurve" smooth="yes"/>
      <point x="506" y="457"/>
      <point x="459" y="523"/>
      <point x="388" y="558"/>
      <point x="353" y="558" type="qcurve" smooth="yes"/>
      <point x="301" y="558"/>
      <point x="238" y="555" type="qcurve"/>
      <point x="227" y="272" type="line"/>
      <point x="292" y="249"/>
    </contour>
  </outline>
</glyph>
<glyph name="germandbls" format="2">
  <advance width="592"/>
  <unicode hex="00DF"/>
  <outline>
    <contour>
      <point x="84" y="-14" type="line"/>
      <point x="75" y="563" type="line"/>
      <point x="75" y="682"/>
      <point x="198" y="796"/>
      <point x="303" y="796" type="qcurve" smooth="yes"/>
      <point x="393" y="796"/>
      <point x="514" y="695"/>
      <point x="514" y="600" type="qcurve" smooth="yes"/>
      <point x="514" y="542"/>
      <point x="448" y="458"/>
      <point x="400" y="436" type="qcurve"/>
      <point x="427" y="432"/>
      <point x="502" y="389"/>
      <point x="562" y="303"/>
      <point x="562" y="235" type="qcurve" smooth="yes"/>
      <point x="562" y="166"/>
      <point x="515" y="57"/>
      <point x="419" y="-6"/>
      <point x="345" y="-6" type="qcurve" smooth="yes"/>
      <point x="287" y="-6"/>
      <point x="213" y="47"/>
      <point x="202" y="77" type="qcurve"/>
      <point x="227" y="148" type="line"/>
      <point x="262" y="93"/>
      <point x="338" y="93" type="qcurve" smooth="yes"/>
      <point x="380" y="93"/>
      <point x="441" y="171"/>
      <point x="441" y="241" type="qcurve" smooth="yes"/>
      <point x="441" y="294"/>
      <point x="390" y="359"/>
      <point x="320" y="389"/>
      <point x="288" y="389" type="qcurve" smooth="yes"/>
      <point x="257" y="389" type="line"/>
      <point x="270" y="474" type="line"/>
      <point x="299" y="474" type="line" smooth="yes"/>
      <point x="335" y="474"/>
      <point x="377" y="514"/>
      <point x="396" y="572"/>
      <point x="396" y="600" type="qcurve" smooth="yes"/>
      <point x="396" y="642"/>
      <point x="353" y="704"/>
      <point x="303" y="704" type="qcurve" smooth="yes"/>
      <point x="243" y="704"/>
      <point x="189" y="625"/>
      <point x="189" y="563" type="qcurve" smooth="yes"/>
      <point x="189" y="-1" type="line"/>
    </contour>
  </outline>
</glyph>
<glyph name="aring" format="2">
  <advance width="602"/>
  <unicode hex="00E5"/>
  <outline>
    <contour>
      <point x="300" y="590" type="qcurve" smooth="yes"/>
      <point x="249" y="590"/>
      <point x="181" y="660"/>
      <point x="181" y="709" type="qcurve" smooth="yes"/>
      <point x="181" y="760"/>
      <point x="251" y="828"/>
      <point x="300" y="828" type="qcurve" smooth="yes"/>
      <point x="351" y="828"/>
      <point x="419" y="759"/>
      <point x="419" y="709" type="qcurve" smooth="yes"/>
      <point x="419" y="658"/>
      <point x="350" y="590"/>
    </contour>
    <contour>
      <point x="300" y="662" type="qcurve" smooth="yes"/>
      <point x="341" y="662"/>
      <point x="347" y="709" type="qcurve"/>
      <point x="347" y="729"/>
      <point x="320" y="756"/>
      <point x="300" y="756" type="qcurve" smooth="yes"/>
      <point x="281" y="756"/>
      <point x="253" y="730"/>
      <point x="253" y="709" type="qcurve" smooth="yes"/>
      <point x="253" y="690"/>
      <point x="281" y="662"/>
    </contour>
    <contour>
      <point x="214" y="-11" type="qcurve" smooth="yes"/>
      <point x="127" y="-11"/>
      <point x="41" y="71"/>
      <point x="41" y="141" type="qcurve" smooth="yes"/>
      <point x="41" y="293"/>
      <point x="234" y="333" type="qcurve"/>
      <point x="295" y="347"/>
      <point x="381" y="379"/>
      <point x="381" y="401" type="qcurve" smooth="yes"/>
      <point x="381" y="468"/>
      <point x="279" y="468" type="qcurve" smooth="yes"/>
      <point x="221" y="468"/>
      <point x="122" y="426"/>
      <point x="91" y="399" type="qcurve"/>
      <point x="51" y="471" type="line"/>
      <point x="89" y="519"/>
      <point x="214" y="567"/>
      <point x="287" y="567" type="qcurve" smooth="yes"/>
      <point x="412" y="567"/>
      <point x="520" y="475"/>
      <point x="520" y="391" type="qcurve" smooth="yes"/>
      <point x="520" y="164" type="line" smooth="yes"/>
      <point x="520" y="127"/>
      <point x="549" y="51"/>
      <point x="578" y="21" type="qcurve"/>
      <point x="482" y="-10" type="line"/>
      <point x="437" y="23"/>
      <point x="421" y="73" type="qcurve"/>
      <point x="369" y="-11"/>
    </contour>
    <contour>
      <point x="240" y="86" type="qcurve" smooth="yes"/>
      <point x="284" y="86"/>
      <point x="366" y="134"/>
      <point x="384" y="174" type="qcurve"/>
      <point x="392" y="202"/>
      <point x="392" y="236" type="qcurve" smooth="yes"/>
      <point x="392" y="289"/>
      <point x="388" y="304" type="qcurve"/>
      <point x="343" y="273"/>
      <point x="259" y="252" type="qcurve" smooth="yes"/>
      <point x="222" y="242"/>
      <point x="179" y="197"/>
      <point x="179" y="151" type="qcurve"/>
      <point x="184" y="86"/>
    </contour>
  </outline>
</glyph>
<glyph name="ccedilla" format="2">
  <advance width="584"/>
  <unicode hex="00E7"/>
  <outline>
    <contour>
      <point x="333" y="-165" type="qcurve" smooth="yes"/>
      <point x="297" y="-165"/>
      <point x="223" y="-149"/>
      <point x="201" y="-136" type="qcurve"/>
      <point x="211" y="-87" type="line"/>
      <point x="252" y="-107"/>
      <point x="292" y="-107" type="qcurve" smooth="yes"/>
      <point x="326" y="-107"/>
      <point x="326" y="-91" type="qcurve" smooth="yes"/>
      <point x="326" y="-78"/>
      <point x="312" y="-78" type="qcurve" smooth="yes"/>
      <point x="297" y="-78"/>
      <point x="279" y="-87" type="qcurve"/>
      <point x="220" y="-73" type="line"/>
      <point x="243" y="0" type="line"/>
      <point x="153" y="24"/>
      <point x="41" y="166"/>
      <point x="41" y="278" type="qcurve" smooth="yes"/>
      <point x="41" y="376"/>
      <point x="122" y="504"/>
      <point x="255" y="567"/>
      <point x="331" y="567" type="qcurve" smooth="yes"/>
      <point x="468" y="567"/>
      <point x="540" y="483" type="qcurve"/>
      <point x="506" y="407" type="line"/>
      <point x="479" y="434"/>
      <point x="391" y="467"/>
      <point x="350" y="467" type="qcurve" smooth="yes"/>
      <point x="280" y="467"/>
      <point x="180" y="371"/>
      <point x="180" y="278" type="qcurve" smooth="yes"/>
      <point x="180" y="214"/>
      <point x="228" y="131"/>
      <point x="307" y="90"/>
      <point x="353" y="90" type="qcurve" smooth="yes"/>
      <point x="400" y="90"/>
      <point x="485" y="121"/>
      <point x="512" y="150" type="qcurve"/>
      <point x="545" y="80" type="line"/>
      <point x="489" y="4"/>
      <point x="355" y="-10" type="qcurve"/>
      <point x="346" y="-30" type="line"/>
      <point x="358" y="-27"/>
      <point x="368" y="-27" type="qcurve" smooth="yes"/>
      <point x="394" y="-27"/>
      <point x="443" y="-55"/>
      <point x="443" y="-88" type="qcurve" smooth="yes"/>
      <point x="443" y="-165"/>
    </contour>
  </outline>
</glyph>
<glyph name="edieresis" format="2">
  <advance width="612"/>
  <unicode hex="00EB"/>
  <outline>
    <contour>
      <point x="406" y="636" type="qcurve" smooth="yes"/>
      <point x="378" y="636"/>
      <point x="335" y="676"/>
      <point x="335" y="706" type="qcurve" smooth="yes"/>
      <point x="335" y="735"/>
      <point x="378" y="777"/>
      <point x="406" y="777" type="qcurve" smooth="yes"/>
      <point x="435" y="777"/>
      <point x="477" y="735"/>
      <point x="477" y="706" type="qcurve" smooth="yes"/>
      <point x="477" y="676"/>
      <point x="435" y="636"/>
    </contour>
    <contour>
      <point x="206" y="636" type="qcurve" smooth="yes"/>
      <point x="178" y="636"/>
      <point x="135" y="676"/>
      <point x="135" y="706" type="qcurve" smooth="yes"/>
      <point x="135" y="735"/>
      <point x="178" y="777"/>
      <point x="206" y="777" type="qcurve" smooth="yes"/>
      <point x="235" y="777"/>
      <point x="277" y="735"/>
      <point x="277" y="706" type="qcurve" smooth="yes"/>
      <point x="277" y="676"/>
      <point x="235" y="636"/>
    </contour>
    <contour>
      <point x="318" y="-11" type="qcurve" smooth="yes"/>
      <point x="225" y="-11"/>
      <point x="102" y="71"/>
      <point x="41" y="203"/>
      <point x="41" y="278" type="qcurve" smooth="yes"/>
      <point x="41" y="359"/>
      <point x="108" y="490"/>
      <point x="230" y="567"/>
      <point x="314" y="567" type="qcurve" smooth="yes"/>
      <point x="481" y="567"/>
      <point x="543" y="421" type="qcurve" smooth="yes"/>
      <point x="571" y="353"/>
      <point x="571" y="249" type="qcurve"/>
      <point x="209" y="249" type="line"/>
      <point x="187" y="327" type="line"/>
      <point x="433" y="347" type="line"/>
      <point x="428" y="467"/>
      <point x="319" y="467" type="qcurve" smooth="yes"/>
      <point x="277" y="467"/>
      <point x="207" y="426"/>
      <point x="165" y="342"/>
      <point x="165" y="277" type="qcurve" smooth="yes"/>
      <point x="165" y="210"/>
      <point x="216" y="126"/>
      <point x="290" y="86"/>
      <point x="327" y="86" type="qcurve" smooth="yes"/>
      <point x="459" y="86"/>
      <point x="521" y="166" type="qcurve"/>
      <point x="557" y="98" type="line"/>
      <point x="512" y="36"/>
      <point x="402" y="-11"/>
    </contour>
  </outline>
</glyph>
<glyph name="igrave" format="2">
  <advance width="290"/>
  <unicode hex="00EC"/>
  <outline>
    <contour>
      <point x="254" y="611" type="line"/>
      <point x="6" y="708" type="line"/>
      <point x="94" y="798" type="line"/>
      <point x="286" y="677" type="line"/>
    </contour>
    <contour>
      <point x="79" y="-14" type="line"/>
      <point x="79" y="572" type="line"/>
      <point x="222" y="555" type="line"/>
      <point x="202" y="0" type="line"/>
    </contour>
  </outline>
</glyph>
<glyph name="iacute" format="2">
  <advance width="290"/>
  <unicode hex="00ED"/>
  <outline>
    <contour>
      <point x="38" y="611" type="line"/>
      <point x="6" y="677" type="line"/>
      <point x="198" y="798" type="line"/>
      <point x="286" y="708" type="line"/>
    </contour>
    <contour>
      <point x="79" y="-14" type="line"/>
      <point x="79" y="572" type="line"/>
      <point x="222" y="555" type="line"/>
      <point x="202" y="0" type="line"/>
    </contour>
  </outline>
</glyph>
<glyph name="icircumflex" format="2">
  <advance width="290"/>
  <unicode hex="00EE"/>
  <outline>
    <contour>
      <point x="295" y="602" type="line"/>
      <point x="145" y="706" type="line"/>
      <point x="-4" y="602" type="line"/>
      <point x="-51" y="656" type="line"/>
      <point x="87" y="805" type="line"/>
      <point x="201" y="805" type="line"/>
      <point x="343" y="656" type="line"/>
    </contour>
    <contour>
      <point x="79" y="-14" type="line"/>
      <point x="79" y="572" type="line"/>
      <point x="222" y="555" type="line"/>
      <point x="202" y="0" type="line"/>
    </contour>
  </outline>
</glyph>
<glyph name="idieresis" format="2">
  <advance width="290"/>
  <unicode hex="00EF"/>
  <outline>
    <contour>
      <point x="245" y="636" type="qcurve" smooth="yes"/>
      <point x="217" y="636"/>
      <point x="174" y="676"/>
      <point x="174" y="706" type="qcurve" smooth="yes"/>
      <point x="174" y="735"/>
      <point x="217" y="777"/>
      <point x="245" y="777" type="qcurve" smooth="yes"/>
      <point x="274" y="777"/>
      <point x="316" y="735"/>
      <point x="316" y="706" type="qcurve" smooth="yes"/>
      <point x="316" y="676"/>
      <point x="274" y="636"/>
    </contour>
    <contour>
      <point x="45" y="636" type="qcurve" smooth="yes"/>
      <point x="17" y="636"/>
      <point x="-25" y="678"/>
      <point x="-25" y="706" type="qcurve" smooth="yes"/>
      <point x="-25" y="735"/>
      <point x="15" y="777"/>
      <point x="45" y="777" type="qcurve" smooth="yes"/>
      <point x="74" y="777"/>
      <point x="116" y="735"/>
      <point x="116" y="706" type="qcurve" smooth="yes"/>
      <point x="116" y="676"/>
      <point x="74" y="636"/>
    </contour>
    <contour>
      <point x="79" y="-14" type="line"/>
      <point x="79" y="572" type="line"/>
      <point x="222" y="555" type="line"/>
      <point x="202" y="0" type="line"/>
    </contour>
  </outline>
</glyph>
<glyph name="eth" format="2">
  <advance width="629"/>
  <unicode hex="00F0"/>
  <outline>
    <contour>
      <point x="309" y="-11" type="qcurve" smooth="yes"/>
      <point x="242" y="-11"/>
      <point x="117" y="53"/>
      <point x="38" y="182"/>
      <point x="38" y="279" type="qcurve" smooth="yes"/>
      <point x="38" y="372"/>
      <point x="114" y="495"/>
      <point x="237" y="556"/>
      <point x="309" y="556" type="qcurve" smooth="yes"/>
      <point x="341" y="556"/>
      <point x="409" y="527"/>
      <point x="430" y="499" type="qcurve"/>
      <point x="414" y="583"/>
      <point x="355" y="646" type="qcurve"/>
      <point x="165" y="564" type="line"/>
      <point x="140" y="624" type="line"/>
      <point x="289" y="689" type="line"/>
      <point x="254" y="702"/>
      <point x="213" y="702" type="qcurve" smooth="yes"/>
      <point x="146" y="702"/>
      <point x="82" y="677" type="qcurve"/>
      <point x="83" y="759" type="line"/>
      <point x="150" y="789"/>
      <point x="235" y="789" type="qcurve" smooth="yes"/>
      <point x="336" y="789"/>
      <point x="406" y="739" type="qcurve"/>
      <point x="509" y="784" type="line"/>
      <point x="534" y="724" type="line"/>
      <point x="462" y="693" type="line"/>
      <point x="577" y="565"/>
      <point x="577" y="318" type="qcurve" smooth="yes"/>
      <point x="577" y="201"/>
      <point x="497" y="56"/>
      <point x="374" y="-11"/>
    </contour>
    <contour>
      <point x="312" y="77" type="qcurve" smooth="yes"/>
      <point x="377" y="77"/>
      <point x="446" y="194"/>
      <point x="446" y="279" type="qcurve" smooth="yes"/>
      <point x="446" y="362"/>
      <point x="372" y="473"/>
      <point x="312" y="473" type="qcurve" smooth="yes"/>
      <point x="269" y="473"/>
      <point x="209" y="418"/>
      <point x="179" y="330"/>
      <point x="179" y="279" type="qcurve" smooth="yes"/>
      <point x="179" y="225"/>
      <point x="209" y="133"/>
      <point x="269" y="77"/>
    </contour>
  </outline>
</glyph>
<glyph name="ntilde" format="2">
  <advance width="652"/>
  <unicode hex="00F1"/>
  <outline>
    <contour>
      <point x="169" y="632" type="qcurve"/>
      <point x="140" y="698" type="line"/>
      <point x="164" y="731"/>
      <point x="221" y="778"/>
      <point x="258" y="778" type="qcurve" smooth="yes"/>
      <point x="290" y="778"/>
      <point x="309" y="769" type="qcurve"/>
      <point x="346" y="750" type="line"/>
      <point x="364" y="740"/>
      <point x="389" y="740" type="qcurve" smooth="yes"/>
      <point x="418" y="740"/>
      <point x="453" y="755"/>
      <point x="477" y="780" type="qcurve"/>
      <point x="506" y="714" type="line"/>
      <point x="450" y="634"/>
      <point x="388" y="634" type="qcurve" smooth="yes"/>
      <point x="357" y="634"/>
      <point x="318" y="653"/>
      <point x="283" y="672"/>
      <point x="257" y="672" type="qcurve" smooth="yes"/>
      <point x="230" y="672"/>
      <point x="194" y="658"/>
    </contour>
    <contour>
      <point x="445" y="-13" type="line"/>
      <point x="445" y="360" type="line" smooth="yes"/>
      <point x="445" y="410"/>
      <point x="385" y="463"/>
      <point x="341" y="463" type="qcurve" smooth="yes"/>
      <point x="298" y="463"/>
      <point x="227" y="417"/>
      <point x="213" y="373" type="qcurve"/>
      <point x="213" y="0" type="line"/>
      <point x="91" y="-13" type="line"/>
      <point x="71" y="572" type="line"/>
      <point x="213" y="555" type="line"/>
      <point x="213" y="490" type="line"/>
      <point x="233" y="528"/>
      <point x="312" y="567"/>
      <point x="381" y="567" type="qcurve" smooth="yes"/>
      <point x="443" y="567"/>
      <point x="489" y="541" type="qcurve" smooth="yes"/>
      <point x="583" y="489"/>
      <point x="583" y="382" type="qcurve"/>
      <point x="563" y="0" type="line"/>
    </contour>
  </outline>
</glyph>
<glyph name="ograve" format="2">
  <advance width="649"/>
  <unicode hex="00F2"/>
  <outline>
    <contour>
      <point x="431" y="611" type="line"/>
      <point x="183" y="708" type="line"/>
      <point x="271" y="798" type="line"/>
      <point x="463" y="677" type="line"/>
    </contour>
    <contour>
      <point x="325" y="-11" type="qcurve" smooth="yes"/>
      <point x="232" y="-11"/>
      <point x="106" y="65"/>
      <point x="41" y="195"/>
      <point x="41" y="277" type="qcurve" smooth="yes"/>
      <point x="41" y="409"/>
      <point x="195" y="567"/>
      <point x="325" y="567" type="qcurve" smooth="yes"/>
      <point x="457" y="567"/>
      <point x="608" y="411"/>
      <point x="608" y="277" type="qcurve" smooth="yes"/>
      <point x="608" y="148"/>
      <point x="460" y="-11"/>
    </contour>
    <contour>
      <point x="328" y="80" type="qcurve" smooth="yes"/>
      <point x="399" y="80"/>
      <point x="474" y="184"/>
      <point x="474" y="259" type="qcurve" smooth="yes"/>
      <point x="474" y="342"/>
      <point x="442" y="400" type="qcurve"/>
      <point x="403" y="474"/>
      <point x="323" y="474" type="qcurve" smooth="yes"/>
      <point x="253" y="474"/>
      <point x="175" y="375"/>
      <point x="175" y="280" type="qcurve" smooth="yes"/>
      <point x="175" y="241"/>
      <point x="206" y="147"/>
      <point x="273" y="80"/>
    </contour>
  </outline>
</glyph>
<glyph name="divide" format="2">
  <advance width="690"/>
  <unicode hex="00F7"/>
  <outline>
    <contour>
      <point x="345" y="479" type="qcurve" smooth="yes"/>
      <point x="311" y="479"/>
      <point x="262" y="528"/>
      <point x="262" y="562" type="qcurve" smooth="yes"/>
      <point x="262" y="598"/>
      <point x="311" y="645"/>
      <point x="345" y="645" type="qcurve" smooth="yes"/>
      <point x="380" y="645"/>
      <point x="428" y="597"/>
      <point x="428" y="562" type="qcurve" smooth="yes"/>
      <point x="428" y="528"/>
      <point x="381" y="479"/>
    </contour>
    <contour>
      <point x="633" y="319" type="line"/>
      <point x="56" y="319" type="line"/>
      <point x="56" y="428" type="line"/>
      <point x="633" y="428" type="line"/>
    </contour>
    <contour>
      <point x="345" y="100" type="qcurve" smooth="yes"/>
      <point x="311" y="100"/>
      <point x="262" y="149"/>
      <point x="262" y="183" type="qcurve" smooth="yes"/>
      <point x="262" y="219"/>
      <point x="311" y="266"/>
      <point x="345" y="266" type="qcurve" smooth="yes"/>
      <point x="380" y="266"/>
      <point x="428" y="218"/>
      <point x="428" y="183" type="qcurve" smooth="yes"/>
      <point x="428" y="149"/>
      <point x="381" y="100"/>
    </contour>
  </outline>
</glyph>
<glyph name="oslash" format="2">
  <advance width="649"/>
  <unicode hex="00F8"/>
  <outline>
    <contour>
      <point x="100" y="-31" type="line"/>
      <point x="42" y="19" type="line"/>
      <point x="102" y="84" type="line"/>
      <point x="41" y="160"/>
      <point x="41" y="277" type="qcurve" smooth="yes"/>
      <point x="41" y="409"/>
      <point x="195" y="567"/>
      <point x="325" y="567" type="qcurve" smooth="yes"/>
      <point x="429" y="567"/>
      <point x="500" y="516" type="qcurve"/>
      <point x="550" y="570" type="line"/>
      <point x="608" y="518" type="line"/>
      <point x="555" y="461" type="line"/>
      <point x="608" y="393"/>
      <point x="608" y="277" type="qcurve" smooth="yes"/>
      <point x="608" y="148"/>
      <point x="460" y="-11"/>
      <point x="325" y="-11" type="qcurve" smooth="yes"/>
      <point x="228" y="-11"/>
      <point x="160" y="33" type="qcurve"/>
    </contour>
    <contour>
      <point x="194" y="184" type="qcurve"/>
      <point x="421" y="430" type="line"/>
      <point x="382" y="474"/>
      <point x="323" y="474" type="qcurve" smooth="yes"/>
      <point x="253" y="474"/>
      <point x="175" y="375"/>
      <point x="175" y="280" type="qcurve" smooth="yes"/>
      <point x="175" y="256"/>
      <point x="188" y="199"/>
    </contour>
    <contour>
      <point x="327" y="80" type="qcurve" smooth="yes"/>
      <point x="377" y="80"/>
      <point x="442" y="131"/>
      <point x="474" y="211"/>
      <point x="474" y="259" type="qcurve" smooth="yes"/>
      <point x="474" y="315"/>
      <point x="460" y="358" type="qcurve"/>
      <point x="237" y="117" type="line"/>
      <point x="276" y="80"/>
    </contour>
  </outline>
</glyph>
<glyph name="yacute" format="2">
  <advance width="576"/>
  <unicode hex="00FD"/>
  <outline>
    <contour>
      <point x="180" y="611" type="line"/>
      <point x="148" y="677" type="line"/>
      <point x="340" y="798" type="line"/>
      <point x="428" y="708" type="line"/>
    </contour>
    <contour>
      <point x="86" y="-203" type="qcurve"/>
      <point x="60" y="-114" type="line"/>
      <point x="141" y="-108"/>
      <point x="230" y="-32"/>
      <point x="252" y="29" type="qcurve"/>
      <point x="13" y="544" type="line"/>
      <point x="164" y="572" type="line"/>
      <point x="305" y="166" type="line"/>
      <point x="462" y="572" type="line"/>
      <point x="571" y="544" type="line"/>
      <point x="363" y="-28" type="line"/>
      <point x="303" y="-203"/>
    </contour>
  </outline>
</glyph>
<glyph name="thorn" format="2">
  <advance width="649"/>
  <unicode hex="00FE"/>
  <outline>
    <contour>
      <point x="91" y="-212" type="line"/>
      <point x="68" y="800" type="line"/>
      <point x="213" y="783" type="line"/>
      <point x="213" y="501" type="line"/>
      <point x="234" y="534"/>
      <point x="320" y="567"/>
      <point x="366" y="567" type="qcurve" smooth="yes"/>
      <point x="435" y="567"/>
      <point x="546" y="506"/>
      <point x="608" y="379"/>
      <point x="608" y="278" type="qcurve" smooth="yes"/>
      <point x="608" y="178"/>
      <point x="545" y="50"/>
      <point x="435" y="-11"/>
      <point x="367" y="-11" type="qcurve" smooth="yes"/>
      <point x="309" y="-11"/>
      <point x="229" y="24"/>
      <point x="213" y="46" type="qcurve"/>
      <point x="213" y="-188" type="line"/>
    </contour>
    <contour>
      <point x="333" y="84" type="qcurve" smooth="yes"/>
      <point x="371" y="84"/>
      <point x="437" y="120"/>
      <point x="479" y="205"/>
      <point x="479" y="278" type="qcurve" smooth="yes"/>
      <point x="479" y="349"/>
      <point x="440" y="431"/>
      <point x="373" y="468"/>
      <point x="332" y="468" type="qcurve" smooth="yes"/>
      <point x="283" y="468"/>
      <point x="211" y="399"/>
      <point x="211" y="343" type="qcurve" smooth="yes"/>
      <point x="211" y="160" type="line"/>
      <point x="248" y="84"/>
    </contour>
  </outline>
</glyph>
<glyph name="ydieresis" format="2">
  <advance width="576"/>
  <unicode hex="00FF"/>
  <outline>
    <contour>
      <point x="389" y="636" type="qcurve" smooth="yes"/>
      <point x="361" y="636"/>
      <point x="318" y="676"/>
      <point x="318" y="706" type="qcurve" smooth="yes"/>
      <point x="318" y="735"/>
      <point x="361" y="777"/>
      <point x="389" y="777" type="qcurve" smooth="yes"/>
      <point x="418" y="777"/>
      <point x="460" y="735"/>
      <point x="460" y="706" type="qcurve" smooth="yes"/>
      <point x="460" y="676"/>
      <point x="418" y="636"/>
    </contour>
    <contour>
      <point x="189" y="636" type="qcurve" smooth="yes"/>
      <point x="161" y="636"/>
      <point x="118" y="676"/>
      <point x="118" y="706" type="qcurve" smooth="yes"/>
      <point x="118" y="735"/>
      <point x="161" y="777"/>
      <point x="189" y="777" type="qcurve" smooth="yes"/>
      <point x="218" y="777"/>
      <point x="260" y="735"/>
      <point x="260" y="706" type="qcurve" smooth="yes"/>
      <point x="260" y="676"/>
      <point x="218" y="636"/>
    </contour>
    <contour>
      <point x="86" y="-203" type="qcurve"/>
      <point x="60" y="-114" type="line"/>
      <point x="141" y="-108"/>
      <point x="230" y="-32"/>
      <point x="252" y="29" type="qcurve"/>
      <point x="13" y="544" type="line"/>
      <point x="164" y="572" type="line"/>
      <point x="305" y="166" type="line"/>
      <point x="462" y="572" type="line"/>
      <point x="571" y="544" type="line"/>
      <point x="363" y="-28" type="line"/>
      <point x="303" y="-203"/>
    </contour>
  </outline>
</glyph>
<glyph name="Aogonek" format="2">
  <advance width="727"/>
  <unicode hex="0104"/>
  <outline>
    <contour>
      <point x="219" y="237" type="line"/>
      <point x="483" y="266" type="line"/>
      <point x="375" y="593" type="line"/>
    </contour>
    <contour>
      <point x="671" y="-164" type="qcurve" smooth="yes"/>
      <point x="622" y="-164"/>
      <point x="557" y="-119"/>
      <point x="557" y="-70" type="qcurve" smooth="yes"/>
      <point x="557" y="-38"/>
      <point x="573" y="-7" type="qcurve"/>
      <point x="522" y="147" type="line"/>
      <point x="180" y="147" type="line"/>
      <point x="110" y="-13" type="line"/>
      <point x="6" y="0" type="line"/>
      <point x="294" y="800" type="line"/>
      <point x="449" y="762" type="line"/>
      <point x="428" y="715" type="line"/>
      <point x="728" y="1" type="line"/>
      <point x="689" y="-3" type="line"/>
      <point x="673" y="-23"/>
      <point x="673" y="-53" type="qcurve" smooth="yes"/>
      <point x="673" y="-88"/>
      <point x="703" y="-88" type="qcurve" smooth="yes"/>
      <point x="733" y="-88"/>
      <point x="774" y="-62" type="qcurve"/>
      <point x="798" y="-115" type="line"/>
      <point x="749" y="-164"/>
    </contour>
  </outline>
</glyph>
<glyph name="aogonek" format="2">
  <advance width="602"/>
  <unicode hex="0105"/>
  <outline>
    <contour>
      <point x="240" y="86" type="qcurve" smooth="yes"/>
      <point x="284" y="86"/>
      <point x="368" y="137"/>
      <point x="384" y="174" type="qcurve" smooth="yes"/>
      <point x="392" y="192"/>
      <point x="392" y="236" type="qcurve" smooth="yes"/>
      <point x="392" y="286"/>
      <point x="388" y="301" type="qcurve"/>
      <point x="388" y="304" type="line"/>
      <point x="366" y="287"/>
      <point x="297" y="263"/>
      <point x="259" y="252" type="qcurve" smooth="yes"/>
      <point x="179" y="230"/>
      <point x="179" y="158" type="qcurve" smooth="yes"/>
      <point x="179" y="125"/>
      <point x="210" y="86"/>
    </contour>
    <contour>
      <point x="535" y="-164" type="qcurve" smooth="yes"/>
      <point x="486" y="-164"/>
      <point x="421" y="-119"/>
      <point x="421" y="-70" type="qcurve" smooth="yes"/>
      <point x="421" y="-23"/>
      <point x="453" y="17" type="qcurve"/>
      <point x="432" y="43"/>
      <point x="421" y="73" type="qcurve"/>
      <point x="403" y="42"/>
      <point x="337" y="5"/>
      <point x="256" y="-11"/>
      <point x="214" y="-11" type="qcurve" smooth="yes"/>
      <point x="129" y="-11"/>
      <point x="41" y="69"/>
      <point x="41" y="141" type="qcurve" smooth="yes"/>
      <point x="41" y="293"/>
      <point x="234" y="333" type="qcurve"/>
      <point x="381" y="366"/>
      <point x="381" y="401" type="qcurve" smooth="yes"/>
      <point x="381" y="468"/>
      <point x="279" y="468" type="qcurve" smooth="yes"/>
      <point x="224" y="468"/>
      <point x="123" y="427"/>
      <point x="91" y="399" type="qcurve"/>
      <point x="51" y="471" type="line"/>
      <point x="86" y="517"/>
      <point x="209" y="567"/>
      <point x="287" y="567" type="qcurve" smooth="yes"/>
      <point x="403" y="567"/>
      <point x="520" y="483"/>
      <point x="520" y="391" type="qcurve" smooth="yes"/>
      <point x="520" y="164" type="line" smooth="yes"/>
      <point x="520" y="81"/>
      <point x="578" y="21" type="qcurve"/>
      <point x="568" y="18" type="line"/>
      <point x="537" y="-15"/>
      <point x="537" y="-53" type="qcurve" smooth="yes"/>
      <point x="537" y="-88"/>
      <point x="567" y="-88" type="qcurve" smooth="yes"/>
      <point x="597" y="-88"/>
      <point x="638" y="-62" type="qcurve"/>
      <point x="662" y="-115" type="line"/>
      <point x="613" y="-164"/>
    </contour>
  </outline>
</glyph>
<glyph name="Cacute" format="2">
  <advance width="729"/>
  <unicode hex="0106"/>
  <outline>
    <contour>
      <point x="416" y="-18" type="qcurve" smooth="yes"/>
      <point x="307" y="-18"/>
      <point x="143" y="81"/>
      <point x="51" y="266"/>
      <point x="51" y="393" type="qcurve" smooth="yes"/>
      <point x="51" y="515"/>
      <point x="143" y="698"/>
      <point x="307" y="799"/>
      <point x="415" y="799" type="qcurve" smooth="yes"/>
      <point x="510" y="799"/>
      <point x="655" y="737"/>
      <point x="689" y="691" type="qcurve"/>
      <point x="661" y="510" type="line"/>
      <point x="595" y="510" type="line"/>
      <point x="579" y="617"/>
      <point x="539" y="652" type="qcurve" smooth="yes"/>
      <point x="515" y="673"/>
      <point x="455" y="692"/>
      <point x="408" y="692" type="qcurve" smooth="yes"/>
      <point x="347" y="692"/>
      <point x="248" y="627"/>
      <point x="190" y="494"/>
      <point x="190" y="393" type="qcurve" smooth="yes"/>
      <point x="190" y="302"/>
      <point x="254" y="168"/>
      <point x="362" y="97"/>
      <point x="428" y="97" type="qcurve" smooth="yes"/>
      <point x="475" y="97"/>
      <point x="561" y="130"/>
      <point x="632" y="183"/>
      <point x="655" y="213" type="qcurve"/>
      <point x="713" y="145" type="line"/>
      <point x="689" y="102"/>
      <point x="600" y="28"/>
      <point x="484" y="-18"/>
    </contour>
    <contour>
      <point x="289" y="812" type="line"/>
      <point x="257" y="878" type="line"/>
      <point x="449" y="999" type="line"/>
      <point x="537" y="909" type="line"/>
    </contour>
  </outline>
</glyph>
<glyph name="cacute" format="2">
  <advance width="584"/>
  <unicode hex="0107"/>
  <outline>
    <contour>
      <point x="331" y="-11" type="qcurve" smooth="yes"/>
      <point x="255" y="-11"/>
      <point x="122" y="54"/>
      <point x="41" y="182"/>
      <point x="41" y="278" type="qcurve" smooth="yes"/>
      <point x="41" y="370"/>
      <point x="117" y="499"/>
      <point x="249" y="567"/>
      <point x="331" y="567" type="qcurve" smooth="yes"/>
      <point x="399" y="567"/>
      <point x="509" y="522"/>
      <point x="540" y="483" type="qcurve"/>
      <point x="506" y="407" type="line"/>
      <point x="481" y="433"/>
      <point x="391" y="467"/>
      <point x="350" y="467" type="qcurve" smooth="yes"/>
      <point x="304" y="467"/>
      <point x="225" y="423"/>
      <point x="180" y="338"/>
      <point x="180" y="278" type="qcurve" smooth="yes"/>
      <point x="180" y="188"/>
      <point x="278" y="90"/>
      <point x="353" y="90" type="qcurve" smooth="yes"/>
      <point x="403" y="90"/>
      <point x="487" y="122"/>
      <point x="512" y="150" type="qcurve"/>
      <point x="545" y="80" type="line"/>
      <point x="517" y="40"/>
      <point x="403" y="-11"/>
    </contour>
    <contour>
      <point x="195" y="611" type="line"/>
      <point x="163" y="677" type="line"/>
      <point x="355" y="798" type="line"/>
      <point x="443" y="708" type="line"/>
    </contour>
  </outline>
</glyph>
<glyph name="cdotaccent" format="2">
  <advance width="584"/>
  <unicode hex="010B"/>
  <outline>
    <contour>
      <point x="331" y="-11" type="qcurve" smooth="yes"/>
      <point x="255" y="-11"/>
      <point x="122" y="54"/>
      <point x="41" y="182"/>
      <point x="41" y="278" type="qcurve" smooth="yes"/>
      <point x="41" y="370"/>
      <point x="117" y="499"/>
      <point x="249" y="567"/>
      <point x="331" y="567" type="qcurve" smooth="yes"/>
      <point x="399" y="567"/>
      <point x="509" y="522"/>
      <point x="540" y="483" type="qcurve"/>
      <point x="506" y="407" type="line"/>
      <point x="481" y="433"/>
      <point x="391" y="467"/>
      <point x="350" y="467" type="qcurve" smooth="yes"/>
      <point x="304" y="467"/>
      <point x="225" y="423"/>
      <point x="180" y="338"/>
      <point x="180" y="278" type="qcurve" smooth="yes"/>
      <point x="180" y="188"/>
      <point x="278" y="90"/>
      <point x="353" y="90" type="qcurve" smooth="yes"/>
      <point x="403" y="90"/>
      <point x="487" y="122"/>
      <point x="512" y="150" type="qcurve"/>
      <point x="545" y="80" type="line"/>
      <point x="517" y="40"/>
      <point x="403" y="-11"/>
    </contour>
    <contour>
      <point x="319" y="636" type="qcurve" smooth="yes"/>
      <point x="291" y="636"/>
      <point x="248" y="678"/>
      <point x="248" y="706" type="qcurve" smooth="yes"/>
      <point x="248" y="735"/>
      <point x="291" y="777"/>
      <point x="319" y="777" type="qcurve" smooth="yes"/>
      <point x="348" y="777"/>
      <point x="390" y="735"/>
      <point x="390" y="706" type="qcurve" smooth="yes"/>
      <point x="390" y="678"/>
      <point x="348" y="636"/>
    </contour>
  </outline>
</glyph>
<glyph name="Dcaron" format="2">
  <advance width="791"/>
  <unicode hex="010E"/>
  <outline>
    <contour>
      <point x="378" y="0" type="qcurve" smooth="yes"/>
      <point x="109" y="0" type="line"/>
      <point x="91" y="669" type="line"/>
      <point x="69" y="667"/>
      <point x="40" y="662" type="qcurve"/>
      <point x="20" y="750" type="line"/>
      <point x="93" y="765"/>
      <point x="182" y="776" type="qcurve" smooth="yes"/>
      <point x="296" y="790"/>
      <point x="369" y="790" type="qcurve" smooth="yes"/>
      <point x="483" y="790"/>
      <point x="646" y="695"/>
      <point x="734" y="515"/>
      <point x="734" y="384" type="qcurve" smooth="yes"/>
      <point x="734" y="215"/>
      <point x="533" y="0"/>
    </contour>
    <contour>
      <point x="232" y="98" type="line"/>
      <point x="363" y="98"/>
      <point x="424" y="112" type="qcurve"/>
      <point x="467" y="123"/>
      <point x="506" y="157" type="qcurve" smooth="yes"/>
      <point x="594" y="234"/>
      <point x="594" y="385" type="qcurve" smooth="yes"/>
      <point x="594" y="487"/>
      <point x="531" y="619"/>
      <point x="426" y="684"/>
      <point x="358" y="684" type="qcurve" smooth="yes"/>
      <point x="295" y="684"/>
      <point x="232" y="681" type="qcurve"/>
    </contour>
    <contour>
      <point x="420" y="815" type="line"/>
      <point x="306" y="815" type="line"/>
      <point x="167" y="964" type="line"/>
      <point x="214" y="1018" type="line"/>
      <point x="364" y="914" type="line"/>
      <point x="514" y="1018" type="line"/>
      <point x="562" y="964" type="line"/>
    </contour>
  </outline>
</glyph>
<glyph name="Ebreve" format="2">
  <advance width="678"/>
  <unicode hex="0114"/>
  <outline>
    <contour>
      <point x="637" y="0" type="line"/>
      <point x="111" y="0" type="line"/>
      <point x="93" y="665" type="line"/>
      <point x="50" y="665" type="line"/>
      <point x="30" y="752" type="line"/>
      <point x="618" y="790" type="line"/>
      <point x="618" y="665" type="line"/>
      <point x="239" y="665" type="line"/>
      <point x="239" y="442" type="line"/>
      <point x="568" y="472" type="line"/>
      <point x="568" y="340" type="line"/>
      <point x="239" y="340" type="line"/>
      <point x="239" y="105" type="line"/>
      <point x="637" y="135" type="line"/>
    </contour>
    <contour>
      <point x="325" y="813" type="qcurve" smooth="yes"/>
      <point x="264" y="813"/>
      <point x="165" y="875"/>
      <point x="145" y="923" type="qcurve"/>
      <point x="211" y="975" type="line"/>
      <point x="224" y="952"/>
      <point x="286" y="918"/>
      <point x="326" y="918" type="qcurve" smooth="yes"/>
      <point x="367" y="918"/>
      <point x="427" y="952"/>
      <point x="440" y="975" type="qcurve"/>
      <point x="506" y="923" type="line"/>
      <point x="487" y="875"/>
      <point x="387" y="813"/>
    </contour>
  </outline>
</glyph>
<glyph name="ebreve" format="2">
  <advance width="612"/>
  <unicode hex="0115"/>
  <outline>
    <contour>
      <point x="318" y="-11" type="qcurve" smooth="yes"/>
      <point x="231" y="-11"/>
      <point x="107" y="66"/>
      <point x="41" y="197"/>
      <point x="41" y="278" type="qcurve" smooth="yes"/>
      <point x="41" y="361"/>
      <point x="110" y="491"/>
      <point x="232" y="567"/>
      <point x="314" y="567" type="qcurve" smooth="yes"/>
      <point x="475" y="567"/>
      <point x="540" y="427" type="qcurve" smooth="yes"/>
      <point x="571" y="359"/>
      <point x="571" y="249" type="qcurve"/>
      <point x="209" y="249" type="line"/>
      <point x="187" y="327" type="line"/>
      <point x="433" y="347" type="line"/>
      <point x="426" y="467"/>
      <point x="319" y="467" type="qcurve" smooth="yes"/>
      <point x="252" y="467"/>
      <point x="165" y="369"/>
      <point x="165" y="277" type="qcurve" smooth="yes"/>
      <point x="165" y="213"/>
      <point x="214" y="127"/>
      <point x="290" y="86"/>
      <point x="327" y="86" type="qcurve" smooth="yes"/>
      <point x="392" y="86"/>
      <point x="492" y="129"/>
      <point x="521" y="166" type="qcurve"/>
      <point x="557" y="98" type="line"/>
      <point x="528" y="59"/>
      <point x="463" y="11"/>
      <point x="380" y="-11"/>
    </contour>
    <contour>
      <point x="305" y="629" type="qcurve" smooth="yes"/>
      <point x="244" y="629"/>
      <point x="145" y="691"/>
      <point x="125" y="739" type="qcurve"/>
      <point x="191" y="791" type="line"/>
      <point x="204" y="768"/>
      <point x="266" y="734"/>
      <point x="306" y="734" type="qcurve" smooth="yes"/>
      <point x="347" y="734"/>
      <point x="407" y="768"/>
      <point x="420" y="791" type="qcurve"/>
      <point x="486" y="739" type="line"/>
      <point x="467" y="691"/>
      <point x="367" y="629"/>
    </contour>
  </outline>
</glyph>
<glyph name="Edotaccent" format="2">
  <advance width="678"/>
  <unicode hex="0116"/>
  <outline>
    <contour>
      <point x="637" y="0" type="line"/>
      <point x="111" y="0" type="line"/>
      <point x="93" y="665" type="line"/>
      <point x="50" y="665" type="line"/>
      <point x="30" y="752" type="line"/>
      <point x="618" y="790" type="line"/>
      <point x="618" y="665" type="line"/>
      <point x="239" y="665" type="line"/>
      <point x="239" y="442" type="line"/>
      <point x="568" y="472" type="line"/>
      <point x="568" y="340" type="line"/>
      <point x="239" y="340" type="line"/>
      <point x="239" y="105" type="line"/>
      <point x="637" y="135" type="line"/>
    </contour>
    <contour>
      <point x="337" y="827" type="qcurve" smooth="yes"/>
      <point x="309" y="827"/>
      <point x="266" y="869"/>
      <point x="266" y="897" type="qcurve" smooth="yes"/>
      <point x="266" y="926"/>
      <point x="309" y="968"/>
      <point x="337" y="968" type="qcurve" smooth="yes"/>
      <point x="366" y="968"/>
      <point x="408" y="926"/>
      <point x="408" y="897" type="qcurve" smooth="yes"/>
      <point x="408" y="869"/>
      <point x="366" y="827"/>
    </contour>
  </outline>
</glyph>
<glyph name="edotaccent" format="2">
  <advance width="612"/>
  <unicode hex="0117"/>
  <outline>
    <contour>
      <point x="318" y="-11" type="qcurve" smooth="yes"/>
      <point x="231" y="-11"/>
      <point x="107" y="66"/>
      <point x="41" y="197"/>
      <point x="41" y="278" type="qcurve" smooth="yes"/>
      <point x="41" y="361"/>
      <point x="110" y="491"/>
      <point x="232" y="567"/>
      <point x="314" y="567" type="qcurve" smooth="yes"/>
      <point x="475" y="567"/>
      <point x="540" y="427" type="qcurve" smooth="yes"/>
      <point x="571" y="359"/>
      <point x="571" y="249" type="qcurve"/>
      <point x="209" y="249" type="line"/>
      <point x="187" y="327" type="line"/>
      <point x="433" y="347" type="line"/>
      <point x="426" y="467"/>
      <point x="319" y="467" type="qcurve" smooth="yes"/>
      <point x="252" y="467"/>
      <point x="165" y="369"/>
      <point x="165" y="277" type="qcurve" smooth="yes"/>
      <point x="165" y="213"/>
      <point x="214" y="127"/>
      <point x="290" y="86"/>
      <point x="327" y="86" type="qcurve" smooth="yes"/>
      <point x="392" y="86"/>
      <point x="492" y="129"/>
      <point x="521" y="166" type="qcurve"/>
      <point x="557" y="98" type="line"/>
      <point x="528" y="59"/>
      <point x="463" y="11"/>
      <point x="380" y="-11"/>
    </contour>
    <contour>
      <point x="306" y="636" type="qcurve" smooth="yes"/>
      <point x="278" y="636"/>
      <point x="235" y="678"/>
      <point x="235" y="706" type="qcurve" smooth="yes"/>
      <point x="235" y="735"/>
      <point x="278" y="777"/>
      <point x="306" y="777" type="qcurve" smooth="yes"/>
      <point x="335" y="777"/>
      <point x="377" y="735"/>
      <point x="377" y="706" type="qcurve" smooth="yes"/>
      <point x="377" y="678"/>
      <point x="335" y="636"/>
    </contour>
  </outline>
</glyph>
<glyph name="Eogonek" format="2">
  <advance width="678"/>
  <unicode hex="0118"/>
  <outline>
    <contour>
      <point x="582" y="-164" type="qcurve" smooth="yes"/>
      <point x="533" y="-164"/>
      <point x="468" y="-119"/>
      <point x="468" y="-70" type="qcurve" smooth="yes"/>
      <point x="468" y="-38"/>
      <point x="479" y="-17" type="qcurve" smooth="yes"/>
      <point x="488" y="0" type="line"/>
      <point x="111" y="0" type="line"/>
      <point x="93" y="665" type="line"/>
      <point x="50" y="665" type="line"/>
      <point x="30" y="752" type="line"/>
      <point x="618" y="790" type="line"/>
      <point x="618" y="665" type="line"/>
      <point x="239" y="665" type="line"/>
      <point x="239" y="442" type="line"/>
      <point x="568" y="472" type="line"/>
      <point x="568" y="340" type="line"/>
      <point x="239" y="340" type="line"/>
      <point x="239" y="105" type="line"/>
      <point x="637" y="135" type="line"/>
      <point x="637" y="0" type="line"/>
      <point x="601" y="0" type="line"/>
      <point x="584" y="-29"/>
      <point x="584" y="-53" type="qcurve" smooth="yes"/>
      <point x="584" y="-88"/>
      <point x="614" y="-88" type="qcurve" smooth="yes"/>
      <point x="644" y="-88"/>
      <point x="685" y="-62" type="qcurve"/>
      <point x="709" y="-115" type="line"/>
      <point x="660" y="-164"/>
    </contour>
  </outline>
</glyph>
<glyph name="eogonek" format="2">
  <advance width="612"/>
  <unicode hex="0119"/>
  <outline>
    <contour>
      <point x="373" y="-164" type="qcurve" smooth="yes"/>
      <point x="324" y="-164"/>
      <point x="259" y="-119"/>
      <point x="259" y="-70" type="qcurve" smooth="yes"/>
      <point x="259" y="-34"/>
      <point x="275" y="-8" type="qcurve"/>
      <point x="135" y="11"/>
      <point x="74" y="132" type="qcurve" smooth="yes"/>
      <point x="41" y="197"/>
      <point x="41" y="278" type="qcurve" smooth="yes"/>
      <point x="41" y="361"/>
      <point x="110" y="491"/>
      <point x="232" y="567"/>
      <point x="314" y="567" type="qcurve" smooth="yes"/>
      <point x="475" y="567"/>
      <point x="540" y="427" type="qcurve" smooth="yes"/>
      <point x="571" y="359"/>
      <point x="571" y="249" type="qcurve"/>
      <point x="209" y="249" type="line"/>
      <point x="187" y="327" type="line"/>
      <point x="433" y="347" type="line"/>
      <point x="426" y="467"/>
      <point x="319" y="467" type="qcurve" smooth="yes"/>
      <point x="252" y="467"/>
      <point x="165" y="369"/>
      <point x="165" y="277" type="qcurve" smooth="yes"/>
      <point x="165" y="213"/>
      <point x="214" y="127"/>
      <point x="290" y="86"/>
      <point x="327" y="86" type="qcurve" smooth="yes"/>
      <point x="392" y="86"/>
      <point x="492" y="129"/>
      <point x="521" y="166" type="qcurve"/>
      <point x="557" y="98" type="line"/>
      <point x="488" y="6"/>
      <point x="389" y="-6" type="qcurve"/>
      <point x="375" y="-24"/>
      <point x="375" y="-53" type="qcurve" smooth="yes"/>
      <point x="375" y="-88"/>
      <point x="405" y="-88" type="qcurve" smooth="yes"/>
      <point x="435" y="-88"/>
      <point x="476" y="-62" type="qcurve"/>
      <point x="500" y="-115" type="line"/>
      <point x="451" y="-164"/>
    </contour>
  </outline>
</glyph>
<glyph name="Ecaron" format="2">
  <advance width="678"/>
  <unicode hex="011A"/>
  <outline>
    <contour>
      <point x="637" y="0" type="line"/>
      <point x="111" y="0" type="line"/>
      <point x="93" y="665" type="line"/>
      <point x="50" y="665" type="line"/>
      <point x="30" y="752" type="line"/>
      <point x="618" y="790" type="line"/>
      <point x="618" y="665" type="line"/>
      <point x="239" y="665" type="line"/>
      <point x="239" y="442" type="line"/>
      <point x="568" y="472" type="line"/>
      <point x="568" y="340" type="line"/>
      <point x="239" y="340" type="line"/>
      <point x="239" y="105" type="line"/>
      <point x="637" y="135" type="line"/>
    </contour>
    <contour>
      <point x="405" y="815" type="line"/>
      <point x="291" y="815" type="line"/>
      <point x="152" y="964" type="line"/>
      <point x="199" y="1018" type="line"/>
      <point x="349" y="914" type="line"/>
      <point x="499" y="1018" type="line"/>
      <point x="547" y="964" type="line"/>
    </contour>
  </outline>
</glyph>
<glyph name="gcircumflex" format="2">
  <advance width="640"/>
  <unicode hex="011D"/>
  <outline>
    <contour>
      <point x="278" y="-203" type="qcurve" smooth="yes"/>
      <point x="242" y="-203"/>
      <point x="165" y="-185"/>
      <point x="99" y="-155"/>
      <point x="78" y="-138" type="qcurve"/>
      <point x="98" y="-59" type="line"/>
      <point x="178" y="-100"/>
      <point x="274" y="-100" type="qcurve" smooth="yes"/>
      <point x="363" y="-100"/>
      <point x="437" y="-31"/>
      <point x="437" y="36" type="qcurve" smooth="yes"/>
      <point x="437" y="84" type="line"/>
      <point x="416" y="57"/>
      <point x="335" y="24"/>
      <point x="288" y="24" type="qcurve" smooth="yes"/>
      <point x="218" y="24"/>
      <point x="105" y="84"/>
      <point x="41" y="204"/>
      <point x="41" y="292" type="qcurve" smooth="yes"/>
      <point x="41" y="382"/>
      <point x="105" y="505"/>
      <point x="215" y="567"/>
      <point x="282" y="567" type="qcurve" smooth="yes"/>
      <point x="404" y="567"/>
      <point x="437" y="497" type="qcurve"/>
      <point x="437" y="569" type="line"/>
      <point x="575" y="549" type="line"/>
      <point x="555" y="20" type="line" smooth="yes"/>
      <point x="552" y="-54"/>
      <point x="497" y="-154"/>
      <point x="377" y="-203"/>
    </contour>
    <contour>
      <point x="317" y="109" type="qcurve" smooth="yes"/>
      <point x="352" y="109"/>
      <point x="378" y="127" type="qcurve"/>
      <point x="438" y="165"/>
      <point x="438" y="239" type="qcurve" smooth="yes"/>
      <point x="438" y="388" type="line"/>
      <point x="398" y="469"/>
      <point x="316" y="469" type="qcurve" smooth="yes"/>
      <point x="279" y="469"/>
      <point x="211" y="436"/>
      <point x="169" y="357"/>
      <point x="169" y="288" type="qcurve" smooth="yes"/>
      <point x="169" y="224"/>
      <point x="209" y="144"/>
      <point x="277" y="109"/>
    </contour>
    <contour>
      <point x="462" y="602" type="line"/>
      <point x="312" y="706" type="line"/>
      <point x="162" y="602" type="line"/>
      <point x="115" y="656" type="line"/>
      <point x="254" y="805" type="line"/>
      <point x="368" y="805" type="line"/>
      <point x="510" y="656" type="line"/>
    </contour>
  </outline>
</glyph>
<glyph name="Gbreve" format="2">
  <advance width="784"/>
  <unicode hex="011E"/>
  <outline>
    <contour>
      <point x="611" y="-21" type="line"/>
      <point x="611" y="60" type="line"/>
      <point x="577" y="21"/>
      <point x="470" y="-18"/>
      <point x="416" y="-18" type="qcurve" smooth="yes"/>
      <point x="307" y="-18"/>
      <point x="143" y="81"/>
      <point x="51" y="266"/>
      <point x="51" y="393" type="qcurve" smooth="yes"/>
      <point x="51" y="515"/>
      <point x="143" y="698"/>
      <point x="307" y="799"/>
      <point x="415" y="799" type="qcurve" smooth="yes"/>
      <point x="478" y="799"/>
      <point x="590" y="770"/>
      <point x="677" y="722"/>
      <point x="699" y="691" type="qcurve"/>
      <point x="671" y="520" type="line"/>
      <point x="605" y="520" type="line"/>
      <point x="594" y="616"/>
      <point x="503" y="694"/>
      <point x="408" y="694" type="qcurve" smooth="yes"/>
      <point x="347" y="694"/>
      <point x="248" y="628"/>
      <point x="190" y="494"/>
      <point x="190" y="393" type="qcurve" smooth="yes"/>
      <point x="190" y="302"/>
      <point x="254" y="167"/>
      <point x="362" y="95"/>
      <point x="428" y="95" type="qcurve" smooth="yes"/>
      <point x="476" y="95"/>
      <point x="563" y="141"/>
      <point x="619" y="227"/>
      <point x="619" y="288" type="qcurve"/>
      <point x="618" y="311" type="line"/>
      <point x="432" y="311" type="line"/>
      <point x="412" y="397" type="line"/>
      <point x="740" y="435" type="line"/>
      <point x="720" y="-1" type="line"/>
    </contour>
    <contour>
      <point x="387" y="813" type="qcurve" smooth="yes"/>
      <point x="326" y="813"/>
      <point x="227" y="875"/>
      <point x="207" y="923" type="qcurve"/>
      <point x="273" y="975" type="line"/>
      <point x="286" y="952"/>
      <point x="348" y="918"/>
      <point x="388" y="918" type="qcurve" smooth="yes"/>
      <point x="429" y="918"/>
      <point x="489" y="952"/>
      <point x="502" y="975" type="qcurve"/>
      <point x="568" y="923" type="line"/>
      <point x="549" y="875"/>
      <point x="449" y="813"/>
    </contour>
  </outline>
</glyph>
<glyph name="Gdotaccent" format="2">
  <advance width="784"/>
  <unicode hex="0120"/>
  <outline>
    <contour>
      <point x="611" y="-21" type="line"/>
      <point x="611" y="60" type="line"/>
      <point x="577" y="21"/>
      <point x="470" y="-18"/>
      <point x="416" y="-18" type="qcurve" smooth="yes"/>
      <point x="307" y="-18"/>
      <point x="143" y="81"/>
      <point x="51" y="266"/>
      <point x="51" y="393" type="qcurve" smooth="yes"/>
      <point x="51" y="515"/>
      <point x="143" y="698"/>
      <point x="307" y="799"/>
      <point x="415" y="799" type="qcurve" smooth="yes"/>
      <point x="478" y="799"/>
      <point x="590" y="770"/>
      <point x="677" y="722"/>
      <point x="699" y="691" type="qcurve"/>
      <point x="671" y="520" type="line"/>
      <point x="605" y="520" type="line"/>
      <point x="594" y="616"/>
      <point x="503" y="694"/>
      <point x="408" y="694" type="qcurve" smooth="yes"/>
      <point x="347" y="694"/>
      <point x="248" y="628"/>
      <point x="190" y="494"/>
      <point x="190" y="393" type="qcurve" smooth="yes"/>
      <point x="190" y="302"/>
      <point x="254" y="167"/>
      <point x="362" y="95"/>
      <point x="428" y="95" type="qcurve" smooth="yes"/>
      <point x="476" y="95"/>
      <point x="563" y="141"/>
      <point x="619" y="227"/>
      <point x="619" y="288" type="qcurve"/>
      <point x="618" y="311" type="line"/>
      <point x="432" y="311" type="line"/>
      <point x="412" y="397" type="line"/>
      <point x="740" y="435" type="line"/>
      <point x="720" y="-1" type="line"/>
    </contour>
    <contour>
      <point x="403" y="827" type="qcurve" smooth="yes"/>
      <point x="375" y="827"/>
      <point x="332" y="869"/>
      <point x="332" y="897" type="qcurve" smooth="yes"/>
      <point x="332" y="926"/>
      <point x="375" y="968"/>
      <point x="403" y="968" type="qcurve" smooth="yes"/>
      <point x="432" y="968"/>
      <point x="474" y="926"/>
      <point x="474" y="897" type="qcurve" smooth="yes"/>
      <point x="474" y="869"/>
      <point x="432" y="827"/>
    </contour>
  </outline>
</glyph>
<glyph name="uni0122" format="2">
  <advance width="784"/>
  <unicode hex="0122"/>
  <outline>
    <contour>
      <point x="611" y="-21" type="line"/>
      <point x="611" y="60" type="line"/>
      <point x="577" y="21"/>
      <point x="470" y="-18"/>
      <point x="416" y="-18" type="qcurve" smooth="yes"/>
      <point x="307" y="-18"/>
      <point x="143" y="81"/>
      <point x="51" y="266"/>
      <point x="51" y="393" type="qcurve" smooth="yes"/>
      <point x="51" y="515"/>
      <point x="143" y="698"/>
      <point x="307" y="799"/>
      <point x="415" y="799" type="qcurve" smooth="yes"/>
      <point x="478" y="799"/>
      <point x="590" y="770"/>
      <point x="677" y="722"/>
      <point x="699" y="691" type="qcurve"/>
      <point x="671" y="520" type="line"/>
      <point x="605" y="520" type="line"/>
      <point x="594" y="616"/>
      <point x="503" y="694"/>
      <point x="408" y="694" type="qcurve" smooth="yes"/>
      <point x="347" y="694"/>
      <point x="248" y="628"/>
      <point x="190" y="494"/>
      <point x="190" y="393" type="qcurve" smooth="yes"/>
      <point x="190" y="302"/>
      <point x="254" y="167"/>
      <point x="362" y="95"/>
      <point x="428" y="95" type="qcurve" smooth="yes"/>
      <point x="476" y="95"/>
      <point x="563" y="141"/>
      <point x="619" y="227"/>
      <point x="619" y="288" type="qcurve"/>
      <point x="618" y="311" type="line"/>
      <point x="432" y="311" type="line"/>
      <point x="412" y="397" type="line"/>
      <point x="740" y="435" type="line"/>
      <point x="720" y="-1" type="line"/>
    </contour>
    <contour>
      <point x="428" y="-277" type="qcurve"/>
      <point x="386" y="-260" type="line"/>
      <point x="406" y="-229"/>
      <point x="407" y="-202" type="qcurve"/>
      <point x="370" y="-202"/>
      <point x="321" y="-163"/>
      <point x="321" y="-127" type="qcurve" smooth="yes"/>
      <point x="321" y="-92"/>
      <point x="366" y="-48"/>
      <point x="402" y="-48" type="qcurve" smooth="yes"/>
      <point x="438" y="-48"/>
      <point x="483" y="-94"/>
      <point x="483" y="-129" type="qcurve"/>
      <point x="481" y="-216"/>
    </contour>
  </outline>
</glyph>
<glyph name="uni0123" format="2">
  <advance width="640"/>
  <unicode hex="0123"/>
  <outline>
    <contour>
      <point x="278" y="-203" type="qcurve" smooth="yes"/>
      <point x="242" y="-203"/>
      <point x="165" y="-185"/>
      <point x="99" y="-155"/>
      <point x="78" y="-138" type="qcurve"/>
      <point x="98" y="-59" type="line"/>
      <point x="178" y="-100"/>
      <point x="274" y="-100" type="qcurve" smooth="yes"/>
      <point x="363" y="-100"/>
      <point x="437" y="-31"/>
      <point x="437" y="36" type="qcurve" smooth="yes"/>
      <point x="437" y="84" type="line"/>
      <point x="416" y="57"/>
      <point x="335" y="24"/>
      <point x="288" y="24" type="qcurve" smooth="yes"/>
      <point x="218" y="24"/>
      <point x="105" y="84"/>
      <point x="41" y="204"/>
      <point x="41" y="292" type="qcurve" smooth="yes"/>
      <point x="41" y="382"/>
      <point x="105" y="505"/>
      <point x="215" y="567"/>
      <point x="282" y="567" type="qcurve" smooth="yes"/>
      <point x="404" y="567"/>
      <point x="437" y="497" type="qcurve"/>
      <point x="437" y="569" type="line"/>
      <point x="575" y="549" type="line"/>
      <point x="555" y="20" type="line" smooth="yes"/>
      <point x="552" y="-54"/>
      <point x="497" y="-154"/>
      <point x="377" y="-203"/>
    </contour>
    <contour>
      <point x="317" y="109" type="qcurve" smooth="yes"/>
      <point x="352" y="109"/>
      <point x="378" y="127" type="qcurve"/>
      <point x="438" y="165"/>
      <point x="438" y="239" type="qcurve" smooth="yes"/>
      <point x="438" y="388" type="line"/>
      <point x="398" y="469"/>
      <point x="316" y="469" type="qcurve" smooth="yes"/>
      <point x="279" y="469"/>
      <point x="211" y="436"/>
      <point x="169" y="357"/>
      <point x="169" y="288" type="qcurve" smooth="yes"/>
      <point x="169" y="224"/>
      <point x="209" y="144"/>
      <point x="277" y="109"/>
    </contour>
    <contour>
      <point x="308" y="615" type="qcurve" smooth="yes"/>
      <point x="272" y="615"/>
      <point x="227" y="663"/>
      <point x="227" y="697" type="qcurve"/>
      <point x="231" y="788"/>
      <point x="282" y="844" type="qcurve"/>
      <point x="324" y="827" type="line"/>
      <point x="305" y="796"/>
      <point x="303" y="769" type="qcurve"/>
      <point x="341" y="769"/>
      <point x="389" y="730"/>
      <point x="389" y="695" type="qcurve" smooth="yes"/>
      <point x="389" y="661"/>
      <point x="344" y="615"/>
    </contour>
  </outline>
</glyph>
<glyph name="Hcircumflex" format="2">
  <advance width="792"/>
  <unicode hex="0124"/>
  <outline>
    <contour>
      <point x="550" y="-13" type="line"/>
      <point x="550" y="341" type="line"/>
      <point x="241" y="341" type="line"/>
      <point x="241" y="0" type="line"/>
      <point x="111" y="-13" type="line"/>
      <point x="91" y="800" type="line"/>
      <point x="241" y="780" type="line"/>
      <point x="241" y="441" type="line"/>
      <point x="550" y="466" type="line"/>
      <point x="550" y="800" type="line"/>
      <point x="701" y="780" type="line"/>
      <point x="681" y="0" type="line"/>
    </contour>
    <contour>
      <point x="539" y="802" type="line"/>
      <point x="389" y="906" type="line"/>
      <point x="239" y="802" type="line"/>
      <point x="192" y="856" type="line"/>
      <point x="331" y="1005" type="line"/>
      <point x="445" y="1005" type="line"/>
      <point x="587" y="856" type="line"/>
    </contour>
  </outline>
</glyph>
<glyph name="hcircumflex" format="2">
  <advance width="652"/>
  <unicode hex="0125"/>
  <outline>
    <contour>
      <point x="445" y="-14" type="line"/>
      <point x="445" y="370" type="line" smooth="yes"/>
      <point x="445" y="420"/>
      <point x="385" y="473"/>
      <point x="341" y="473" type="qcurve" smooth="yes"/>
      <point x="298" y="473"/>
      <point x="227" y="427"/>
      <point x="213" y="383" type="qcurve"/>
      <point x="213" y="0" type="line"/>
      <point x="91" y="-13" type="line"/>
      <point x="71" y="780" type="line"/>
      <point x="213" y="800" type="line"/>
      <point x="213" y="498" type="line"/>
      <point x="259" y="567"/>
      <point x="380" y="567" type="qcurve" smooth="yes"/>
      <point x="439" y="567"/>
      <point x="529" y="520"/>
      <point x="583" y="438"/>
      <point x="583" y="384" type="qcurve" smooth="yes"/>
      <point x="583" y="373" type="line"/>
      <point x="563" y="0" type="line"/>
    </contour>
    <contour>
      <point x="489" y="802" type="line"/>
      <point x="339" y="906" type="line"/>
      <point x="189" y="802" type="line"/>
      <point x="142" y="856" type="line"/>
      <point x="281" y="1005" type="line"/>
      <point x="395" y="1005" type="line"/>
      <point x="537" y="856" type="line"/>
    </contour>
  </outline>
</glyph>
<glyph name="Hbar" format="2">
  <advance width="792"/>
  <unicode hex="0126"/>
  <outline>
    <contour>
      <point x="550" y="-13" type="line"/>
      <point x="550" y="341" type="line"/>
      <point x="241" y="341" type="line"/>
      <point x="241" y="0" type="line"/>
      <point x="111" y="-13" type="line"/>
      <point x="96" y="607" type="line"/>
      <point x="6" y="607" type="line"/>
      <point x="6" y="692" type="line"/>
      <point x="94" y="692" type="line"/>
      <point x="91" y="800" type="line"/>
      <point x="241" y="780" type="line"/>
      <point x="241" y="692" type="line"/>
      <point x="550" y="692" type="line"/>
      <point x="550" y="800" type="line"/>
      <point x="701" y="780" type="line"/>
      <point x="699" y="692" type="line"/>
      <point x="781" y="692" type="line"/>
      <point x="785" y="607" type="line"/>
      <point x="697" y="607" type="line"/>
      <point x="681" y="0" type="line"/>
    </contour>
    <contour>
      <point x="241" y="441" type="line"/>
      <point x="550" y="466" type="line"/>
      <point x="550" y="607" type="line"/>
      <point x="241" y="607" type="line"/>
    </contour>
  </outline>
</glyph>
<glyph name="hbar" format="2">
  <advance width="652"/>
  <unicode hex="0127"/>
  <outline>
    <contour>
      <point x="445" y="-14" type="line"/>
      <point x="445" y="370" type="line" smooth="yes"/>
      <point x="445" y="420"/>
      <point x="385" y="473"/>
      <point x="341" y="473" type="qcurve" smooth="yes"/>
      <point x="298" y="473"/>
      <point x="227" y="427"/>
      <point x="213" y="383" type="qcurve"/>
      <point x="213" y="0" type="line"/>
      <point x="91" y="-13" type="line"/>
      <point x="75" y="607" type="line"/>
      <point x="-17" y="607" type="line"/>
      <point x="-17" y="692" type="line"/>
      <point x="73" y="692" type="line"/>
      <point x="71" y="780" type="line"/>
      <point x="213" y="800" type="line"/>
      <point x="213" y="692" type="line"/>
      <point x="367" y="692" type="line"/>
      <point x="369" y="607" type="line"/>
      <point x="213" y="607" type="line"/>
      <point x="213" y="498" type="line"/>
      <point x="259" y="567"/>
      <point x="380" y="567" type="qcurve" smooth="yes"/>
      <point x="439" y="567"/>
      <point x="529" y="520"/>
      <point x="583" y="438"/>
      <point x="583" y="384" type="qcurve" smooth="yes"/>
      <point x="583" y="373" type="line"/>
      <point x="563" y="0" type="line"/>
    </contour>
  </outline>
</glyph>
<glyph name="Itilde" format="2">
  <advance width="342"/>
  <unicode hex="0128"/>
  <outline>
    <contour>
      <point x="93" y="-13" type="line"/>
      <point x="93" y="800" type="line"/>
      <point x="247" y="780" type="line"/>
      <point x="217" y="0" type="line"/>
    </contour>
    <contour>
      <point x="20" y="826" type="qcurve"/>
      <point x="-9" y="892" type="line"/>
      <point x="50" y="972"/>
      <point x="109" y="972" type="qcurve" smooth="yes"/>
      <point x="138" y="972"/>
      <point x="179" y="953"/>
      <point x="218" y="934"/>
      <point x="240" y="934" type="qcurve" smooth="yes"/>
      <point x="266" y="934"/>
      <point x="300" y="946"/>
      <point x="328" y="974" type="qcurve"/>
      <point x="357" y="908" type="line"/>
      <point x="298" y="828"/>
      <point x="239" y="828" type="qcurve" smooth="yes"/>
      <point x="211" y="828"/>
      <point x="169" y="847"/>
      <point x="131" y="866"/>
      <point x="108" y="866" type="qcurve" smooth="yes"/>
      <point x="83" y="866"/>
      <point x="48" y="855"/>
    </contour>
  </outline>
</glyph>
<glyph name="itilde" format="2">
  <advance width="290"/>
  <unicode hex="0129"/>
  <outline>
    <contour>
      <point x="79" y="-14" type="line"/>
      <point x="79" y="572" type="line"/>
      <point x="222" y="555" type="line"/>
      <point x="202" y="0" type="line"/>
    </contour>
    <contour>
      <point x="8" y="632" type="qcurve"/>
      <point x="-21" y="698" type="line"/>
      <point x="38" y="778"/>
      <point x="97" y="778" type="qcurve" smooth="yes"/>
      <point x="126" y="778"/>
      <point x="167" y="759"/>
      <point x="206" y="740"/>
      <point x="228" y="740" type="qcurve" smooth="yes"/>
      <point x="254" y="740"/>
      <point x="288" y="752"/>
      <point x="316" y="780" type="qcurve"/>
      <point x="345" y="714" type="line"/>
      <point x="286" y="634"/>
      <point x="227" y="634" type="qcurve" smooth="yes"/>
      <point x="199" y="634"/>
      <point x="157" y="653"/>
      <point x="119" y="672"/>
      <point x="96" y="672" type="qcurve" smooth="yes"/>
      <point x="71" y="672"/>
      <point x="36" y="661"/>
    </contour>
  </outline>
</glyph>
<glyph name="Imacron" format="2">
  <advance width="342"/>
  <unicode hex="012A"/>
  <outline>
    <contour>
      <point x="93" y="-13" type="line"/>
      <point x="93" y="800" type="line"/>
      <point x="247" y="780" type="line"/>
      <point x="217" y="0" type="line"/>
    </contour>
    <contour>
      <point x="328" y="845" type="line"/>
      <point x="14" y="845" type="line"/>
      <point x="14" y="931" type="line"/>
      <point x="328" y="931" type="line"/>
    </contour>
  </outline>
</glyph>
<glyph name="imacron" format="2">
  <advance width="290"/>
  <unicode hex="012B"/>
  <outline>
    <contour>
      <point x="79" y="-14" type="line"/>
      <point x="79" y="572" type="line"/>
      <point x="222" y="555" type="line"/>
      <point x="202" y="0" type="line"/>
    </contour>
    <contour>
      <point x="302" y="659" type="line"/>
      <point x="-12" y="659" type="line"/>
      <point x="-12" y="745" type="line"/>
      <point x="302" y="745" type="line"/>
    </contour>
  </outline>
</glyph>
<glyph name="Ibreve" format="2">
  <advance width="342"/>
  <unicode hex="012C"/>
  <outline>
    <contour>
      <point x="93" y="-13" type="line"/>
      <point x="93" y="800" type="line"/>
      <point x="247" y="780" type="line"/>
      <point x="217" y="0" type="line"/>
    </contour>
    <contour>
      <point x="173" y="813" type="qcurve" smooth="yes"/>
      <point x="112" y="813"/>
      <point x="13" y="875"/>
      <point x="-7" y="923" type="qcurve"/>
      <point x="59" y="975" type="line"/>
      <point x="72" y="952"/>
      <point x="134" y="918"/>
      <point x="174" y="918" type="qcurve" smooth="yes"/>
      <point x="215" y="918"/>
      <point x="275" y="952"/>
      <point x="288" y="975" type="qcurve"/>
      <point x="354" y="923" type="line"/>
      <point x="335" y="875"/>
      <point x="235" y="813"/>
    </contour>
  </outline>
</glyph>
<glyph name="ibreve" format="2">
  <advance width="290"/>
  <unicode hex="012D"/>
  <outline>
    <contour>
      <point x="79" y="-14" type="line"/>
      <point x="79" y="572" type="line"/>
      <point x="222" y="555" type="line"/>
      <point x="202" y="0" type="line"/>
    </contour>
    <contour>
      <point x="155" y="629" type="qcurve" smooth="yes"/>
      <point x="94" y="629"/>
      <point x="-5" y="691"/>
      <point x="-25" y="739" type="qcurve"/>
      <point x="41" y="791" type="line"/>
      <point x="54" y="768"/>
      <point x="116" y="734"/>
      <point x="156" y="734" type="qcurve" smooth="yes"/>
      <point x="197" y="734"/>
      <point x="257" y="768"/>
      <point x="270" y="791" type="qcurve"/>
      <point x="336" y="739" type="line"/>
      <point x="317" y="691"/>
      <point x="217" y="629"/>
    </contour>
  </outline>
</glyph>
<glyph name="Iogonek" format="2">
  <advance width="342"/>
  <unicode hex="012E"/>
  <outline>
    <contour>
      <point x="183" y="-164" type="qcurve" smooth="yes"/>
      <point x="134" y="-164"/>
      <point x="69" y="-119"/>
      <point x="69" y="-70" type="qcurve" smooth="yes"/>
      <point x="69" y="-31"/>
      <point x="93" y="6" type="qcurve"/>
      <point x="93" y="800" type="line"/>
      <point x="247" y="780" type="line"/>
      <point x="217" y="0" type="line"/>
      <point x="201" y="-2" type="line"/>
      <point x="185" y="-33"/>
      <point x="185" y="-53" type="qcurve" smooth="yes"/>
      <point x="185" y="-88"/>
      <point x="215" y="-88" type="qcurve" smooth="yes"/>
      <point x="245" y="-88"/>
      <point x="286" y="-62" type="qcurve"/>
      <point x="310" y="-115" type="line"/>
      <point x="261" y="-164"/>
    </contour>
  </outline>
</glyph>
<glyph name="iogonek" format="2">
  <advance width="290"/>
  <unicode hex="012F"/>
  <outline>
    <contour>
      <point x="167" y="-164" type="qcurve" smooth="yes"/>
      <point x="118" y="-164"/>
      <point x="53" y="-119"/>
      <point x="53" y="-70" type="qcurve" smooth="yes"/>
      <point x="53" y="-28"/>
      <point x="79" y="8" type="qcurve"/>
      <point x="79" y="572" type="line"/>
      <point x="222" y="555" type="line"/>
      <point x="202" y="0" type="line"/>
      <point x="185" y="-2" type="line"/>
      <point x="169" y="-33"/>
      <point x="169" y="-53" type="qcurve" smooth="yes"/>
      <point x="169" y="-88"/>
      <point x="199" y="-88" type="qcurve" smooth="yes"/>
      <point x="229" y="-88"/>
      <point x="270" y="-62" type="qcurve"/>
      <point x="294" y="-115" type="line"/>
      <point x="245" y="-164"/>
    </contour>
    <contour>
      <point x="150" y="633" type="qcurve" smooth="yes"/>
      <point x="116" y="633"/>
      <point x="65" y="684"/>
      <point x="65" y="718" type="qcurve" smooth="yes"/>
      <point x="65" y="753"/>
      <point x="116" y="803"/>
      <point x="150" y="803" type="qcurve" smooth="yes"/>
      <point x="185" y="803"/>
      <point x="235" y="753"/>
      <point x="235" y="718" type="qcurve" smooth="yes"/>
      <point x="235" y="684"/>
      <point x="185" y="633"/>
    </contour>
  </outline>
</glyph>
<glyph name="Idotaccent" format="2">
  <advance width="342"/>
  <unicode hex="0130"/>
  <outline>
    <contour>
      <point x="93" y="-13" type="line"/>
      <point x="93" y="800" type="line"/>
      <point x="247" y="780" type="line"/>
      <point x="217" y="0" type="line"/>
    </contour>
    <contour>
      <point x="169" y="827" type="qcurve" smooth="yes"/>
      <point x="141" y="827"/>
      <point x="98" y="869"/>
      <point x="98" y="897" type="qcurve" smooth="yes"/>
      <point x="98" y="926"/>
      <point x="141" y="968"/>
      <point x="169" y="968" type="qcurve" smooth="yes"/>
      <point x="198" y="968"/>
      <point x="240" y="926"/>
      <point x="240" y="897" type="qcurve" smooth="yes"/>
      <point x="240" y="869"/>
      <point x="198" y="827"/>
    </contour>
  </outline>
</glyph>
<glyph name="dotlessi" format="2">
  <advance width="290"/>
  <unicode hex="0131"/>
  <outline>
    <contour>
      <point x="79" y="-14" type="line"/>
      <point x="79" y="572" type="line"/>
      <point x="222" y="555" type="line"/>
      <point x="202" y="0" type="line"/>
    </contour>
  </outline>
</glyph>
<glyph name="IJ" format="2">
  <advance width="826"/>
  <unicode hex="0132"/>
  <outline>
    <contour>
      <point x="93" y="-13" type="line"/>
      <point x="93" y="800" type="line"/>
      <point x="247" y="780" type="line"/>
      <point x="217" y="0" type="line"/>
    </contour>
    <contour>
      <point x="534" y="-18" type="qcurve" smooth="yes"/>
      <point x="488" y="-18"/>
      <point x="393" y="15"/>
      <point x="364" y="37" type="qcurve"/>
      <point x="378" y="119" type="line"/>
      <point x="440" y="88"/>
      <point x="501" y="88" type="qcurve" smooth="yes"/>
      <point x="551" y="88"/>
      <point x="599" y="127"/>
      <point x="599" y="173" type="qcurve"/>
      <point x="579" y="800" type="line"/>
      <point x="729" y="780" type="line"/>
      <point x="729" y="162" type="line" smooth="yes"/>
      <point x="729" y="65"/>
      <point x="633" y="-18"/>
    </contour>
  </outline>
</glyph>
<glyph name="ij" format="2">
  <advance width="592"/>
  <unicode hex="0133"/>
  <outline>
    <contour>
      <point x="150" y="633" type="qcurve" smooth="yes"/>
      <point x="116" y="633"/>
      <point x="65" y="684"/>
      <point x="65" y="718" type="qcurve" smooth="yes"/>
      <point x="65" y="753"/>
      <point x="116" y="803"/>
      <point x="150" y="803" type="qcurve" smooth="yes"/>
      <point x="185" y="803"/>
      <point x="235" y="753"/>
      <point x="235" y="718" type="qcurve" smooth="yes"/>
      <point x="235" y="684"/>
      <point x="185" y="633"/>
    </contour>
    <contour>
      <point x="79" y="-14" type="line"/>
      <point x="79" y="572" type="line"/>
      <point x="222" y="555" type="line"/>
      <point x="202" y="0" type="line"/>
    </contour>
    <contour>
      <point x="449" y="633" type="qcurve" smooth="yes"/>
      <point x="415" y="633"/>
      <point x="364" y="684"/>
      <point x="364" y="718" type="qcurve" smooth="yes"/>
      <point x="364" y="753"/>
      <point x="415" y="803"/>
      <point x="449" y="803" type="qcurve" smooth="yes"/>
      <point x="484" y="803"/>
      <point x="534" y="753"/>
      <point x="534" y="718" type="qcurve" smooth="yes"/>
      <point x="534" y="684"/>
      <point x="484" y="633"/>
    </contour>
    <contour>
      <point x="282" y="-200" type="qcurve"/>
      <point x="253" y="-116" type="line"/>
      <point x="319" y="-108"/>
      <point x="398" y="-32"/>
      <point x="398" y="26" type="qcurve"/>
      <point x="378" y="572" type="line"/>
      <point x="520" y="555" type="line"/>
      <point x="520" y="-2" type="line" smooth="yes"/>
      <point x="520" y="-99"/>
      <point x="389" y="-195"/>
    </contour>
  </outline>
</glyph>
<glyph name="jcircumflex" format="2">
  <advance width="302"/>
  <unicode hex="0135"/>
  <outline>
    <contour>
      <point x="-8" y="-200" type="qcurve"/>
      <point x="-37" y="-116" type="line"/>
      <point x="29" y="-108"/>
      <point x="108" y="-32"/>
      <point x="108" y="26" type="qcurve"/>
      <point x="88" y="572" type="line"/>
      <point x="230" y="555" type="line"/>
      <point x="230" y="-2" type="line" smooth="yes"/>
      <point x="230" y="-99"/>
      <point x="99" y="-195"/>
    </contour>
    <contour>
      <point x="314" y="602" type="line"/>
      <point x="164" y="706" type="line"/>
      <point x="14" y="602" type="line"/>
      <point x="-33" y="656" type="line"/>
      <point x="106" y="805" type="line"/>
      <point x="220" y="805" type="line"/>
      <point x="362" y="656" type="line"/>
    </contour>
  </outline>
</glyph>
<glyph name="uni0136" format="2">
  <advance width="706"/>
  <unicode hex="0136"/>
  <outline>
    <contour>
      <point x="542" y="-13" type="line"/>
      <point x="293" y="391" type="line"/>
      <point x="237" y="338" type="line"/>
      <point x="237" y="0" type="line"/>
      <point x="111" y="-13" type="line"/>
      <point x="91" y="800" type="line"/>
      <point x="237" y="780" type="line"/>
      <point x="237" y="453" type="line"/>
      <point x="531" y="800" type="line"/>
      <point x="690" y="766" type="line"/>
      <point x="373" y="467" type="line"/>
      <point x="708" y="12" type="line"/>
    </contour>
    <contour>
      <point x="421" y="-277" type="qcurve"/>
      <point x="379" y="-260" type="line"/>
      <point x="399" y="-229"/>
      <point x="400" y="-202" type="qcurve"/>
      <point x="363" y="-202"/>
      <point x="314" y="-163"/>
      <point x="314" y="-127" type="qcurve" smooth="yes"/>
      <point x="314" y="-92"/>
      <point x="359" y="-48"/>
      <point x="395" y="-48" type="qcurve" smooth="yes"/>
      <point x="431" y="-48"/>
      <point x="476" y="-94"/>
      <point x="476" y="-129" type="qcurve"/>
      <point x="474" y="-216"/>
    </contour>
  </outline>
</glyph>
<glyph name="uni0137" format="2">
  <advance width="575"/>
  <unicode hex="0137"/>
  <outline>
    <contour>
      <point x="95" y="-14" type="line"/>
      <point x="75" y="800" type="line"/>
      <point x="211" y="780" type="line"/>
      <point x="211" y="325" type="line"/>
      <point x="404" y="572" type="line"/>
      <point x="553" y="541" type="line"/>
      <point x="308" y="307" type="line"/>
      <point x="577" y="14" type="line"/>
      <point x="439" y="-13" type="line"/>
      <point x="249" y="251" type="line"/>
      <point x="211" y="215" type="line"/>
      <point x="211" y="0" type="line"/>
    </contour>
    <contour>
      <point x="344" y="-277" type="qcurve"/>
      <point x="302" y="-260" type="line"/>
      <point x="322" y="-229"/>
      <point x="323" y="-202" type="qcurve"/>
      <point x="286" y="-202"/>
      <point x="237" y="-163"/>
      <point x="237" y="-127" type="qcurve" smooth="yes"/>
      <point x="237" y="-92"/>
      <point x="282" y="-48"/>
      <point x="318" y="-48" type="qcurve" smooth="yes"/>
      <point x="354" y="-48"/>
      <point x="399" y="-94"/>
      <point x="399" y="-129" type="qcurve"/>
      <point x="397" y="-216"/>
    </contour>
  </outline>
</glyph>
<glyph name="kgreenlandic" format="2">
  <advance width="575"/>
  <unicode hex="0138"/>
  <outline>
    <contour>
      <point x="95" y="-14" type="line"/>
      <point x="75" y="571" type="line"/>
      <point x="211" y="551" type="line"/>
      <point x="211" y="325" type="line"/>
      <point x="404" y="572" type="line"/>
      <point x="553" y="541" type="line"/>
      <point x="308" y="307" type="line"/>
      <point x="577" y="14" type="line"/>
      <point x="439" y="-13" type="line"/>
      <point x="249" y="251" type="line"/>
      <point x="211" y="215" type="line"/>
      <point x="211" y="0" type="line"/>
    </contour>
  </outline>
</glyph>
<glyph name="Lacute" format="2">
  <advance width="621"/>
  <unicode hex="0139"/>
  <outline>
    <contour>
      <point x="592" y="0" type="line"/>
      <point x="91" y="0" type="line"/>
      <point x="91" y="800" type="line"/>
      <point x="246" y="780" type="line"/>
      <point x="216" y="109" type="line"/>
      <point x="592" y="139" type="line"/>
    </contour>
    <contour>
      <point x="296" y="812" type="line"/>
      <point x="264" y="878" type="line"/>
      <point x="456" y="999" type="line"/>
      <point x="544" y="909" type="line"/>
    </contour>
  </outline>
</glyph>
<glyph name="lacute" format="2">
  <advance width="293"/>
  <unicode hex="013A"/>
  <outline>
    <contour>
      <point x="79" y="-13" type="line"/>
      <point x="79" y="800" type="line"/>
      <point x="224" y="780" type="line"/>
      <point x="204" y="0" type="line"/>
    </contour>
    <contour>
      <point x="52" y="812" type="line"/>
      <point x="20" y="878" type="line"/>
      <point x="212" y="999" type="line"/>
      <point x="300" y="909" type="line"/>
    </contour>
  </outline>
</glyph>
<glyph name="uni013B" format="2">
  <advance width="621"/>
  <unicode hex="013B"/>
  <outline>
    <contour>
      <point x="592" y="0" type="line"/>
      <point x="91" y="0" type="line"/>
      <point x="91" y="800" type="line"/>
      <point x="246" y="780" type="line"/>
      <point x="216" y="109" type="line"/>
      <point x="592" y="139" type="line"/>
    </contour>
    <contour>
      <point x="362" y="-277" type="qcurve"/>
      <point x="320" y="-260" type="line"/>
      <point x="340" y="-229"/>
      <point x="341" y="-202" type="qcurve"/>
      <point x="304" y="-202"/>
      <point x="255" y="-163"/>
      <point x="255" y="-127" type="qcurve" smooth="yes"/>
      <point x="255" y="-92"/>
      <point x="300" y="-48"/>
      <point x="336" y="-48" type="qcurve" smooth="yes"/>
      <point x="372" y="-48"/>
      <point x="417" y="-94"/>
      <point x="417" y="-129" type="qcurve"/>
      <point x="415" y="-216"/>
    </contour>
  </outline>
</glyph>
<glyph name="uni013C" format="2">
  <advance width="293"/>
  <unicode hex="013C"/>
  <outline>
    <contour>
      <point x="79" y="-13" type="line"/>
      <point x="79" y="800" type="line"/>
      <point x="224" y="780" type="line"/>
      <point x="204" y="0" type="line"/>
    </contour>
    <contour>
      <point x="172" y="-277" type="qcurve"/>
      <point x="130" y="-260" type="line"/>
      <point x="150" y="-229"/>
      <point x="151" y="-202" type="qcurve"/>
      <point x="114" y="-202"/>
      <point x="65" y="-163"/>
      <point x="65" y="-127" type="qcurve" smooth="yes"/>
      <point x="65" y="-92"/>
      <point x="110" y="-48"/>
      <point x="146" y="-48" type="qcurve" smooth="yes"/>
      <point x="182" y="-48"/>
      <point x="227" y="-94"/>
      <point x="227" y="-129" type="qcurve"/>
      <point x="225" y="-216"/>
    </contour>
  </outline>
</glyph>
<glyph name="Lcaron" format="2">
  <advance width="621"/>
  <unicode hex="013D"/>
  <outline>
    <contour>
      <point x="592" y="0" type="line"/>
      <point x="91" y="0" type="line"/>
      <point x="91" y="800" type="line"/>
      <point x="246" y="780" type="line"/>
      <point x="216" y="109" type="line"/>
      <point x="592" y="139" type="line"/>
    </contour>
    <contour>
      <point x="498" y="498" type="line"/>
      <point x="416" y="498" type="line"/>
      <point x="415" y="797" type="line"/>
      <point x="549" y="797" type="line"/>
    </contour>
  </outline>
</glyph>
<glyph name="lcaron" format="2">
  <advance width="342"/>
  <unicode hex="013E"/>
  <outline>
    <contour>
      <point x="79" y="-13" type="line"/>
      <point x="79" y="800" type="line"/>
      <point x="224" y="780" type="line"/>
      <point x="204" y="0" type="line"/>
    </contour>
    <contour>
      <point x="377" y="498" type="line"/>
      <point x="295" y="498" type="line"/>
      <point x="294" y="797" type="line"/>
      <point x="428" y="797" type="line"/>
    </contour>
  </outline>
</glyph>
<glyph name="Ldot" format="2">
  <advance width="621"/>
  <unicode hex="013F"/>
  <outline>
    <contour>
      <point x="592" y="0" type="line"/>
      <point x="91" y="0" type="line"/>
      <point x="91" y="800" type="line"/>
      <point x="246" y="780" type="line"/>
      <point x="216" y="109" type="line"/>
      <point x="592" y="139" type="line"/>
    </contour>
    <contour>
      <point x="428" y="345" type="qcurve" smooth="yes"/>
      <point x="400" y="345"/>
      <point x="357" y="387"/>
      <point x="357" y="415" type="qcurve" smooth="yes"/>
      <point x="357" y="444"/>
      <point x="400" y="486"/>
      <point x="428" y="486" type="qcurve" smooth="yes"/>
      <point x="457" y="486"/>
      <point x="499" y="444"/>
      <point x="499" y="415" type="qcurve" smooth="yes"/>
      <point x="499" y="387"/>
      <point x="457" y="345"/>
    </contour>
  </outline>
</glyph>
<glyph name="ldot" format="2">
  <advance width="401"/>
  <unicode hex="0140"/>
  <outline>
    <contour>
      <point x="79" y="-13" type="line"/>
      <point x="79" y="800" type="line"/>
      <point x="224" y="780" type="line"/>
      <point x="204" y="0" type="line"/>
    </contour>
    <contour>
      <point x="330" y="345" type="qcurve" smooth="yes"/>
      <point x="302" y="345"/>
      <point x="259" y="387"/>
      <point x="259" y="415" type="qcurve" smooth="yes"/>
      <point x="259" y="444"/>
      <point x="302" y="486"/>
      <point x="330" y="486" type="qcurve" smooth="yes"/>
      <point x="359" y="486"/>
      <point x="401" y="444"/>
      <point x="401" y="415" type="qcurve" smooth="yes"/>
      <point x="401" y="387"/>
      <point x="359" y="345"/>
    </contour>
  </outline>
</glyph>
<glyph name="Lslash" format="2">
  <advance width="621"/>
  <unicode hex="0141"/>
  <outline>
    <contour>
      <point x="592" y="0" type="line"/>
      <point x="91" y="0" type="line"/>
      <point x="91" y="269" type="line"/>
      <point x="12" y="204" type="line"/>
      <point x="12" y="311" type="line"/>
      <point x="91" y="376" type="line"/>
      <point x="91" y="800" type="line"/>
      <point x="246" y="780" type="line"/>
      <point x="233" y="494" type="line"/>
      <point x="318" y="564" type="line"/>
      <point x="318" y="456" type="line"/>
      <point x="228" y="382" type="line"/>
      <point x="216" y="109" type="line"/>
      <point x="592" y="139" type="line"/>
    </contour>
  </outline>
</glyph>
<glyph name="lslash" format="2">
  <advance width="293"/>
  <unicode hex="0142"/>
  <outline>
    <contour>
      <point x="79" y="-13" type="line"/>
      <point x="79" y="262" type="line"/>
      <point x="12" y="204" type="line"/>
      <point x="12" y="311" type="line"/>
      <point x="79" y="369" type="line"/>
      <point x="79" y="800" type="line"/>
      <point x="224" y="780" type="line"/>
      <point x="216" y="487" type="line"/>
      <point x="281" y="543" type="line"/>
      <point x="281" y="435" type="line"/>
      <point x="213" y="377" type="line"/>
      <point x="204" y="0" type="line"/>
    </contour>
  </outline>
</glyph>
<glyph name="Nacute" format="2">
  <advance width="789"/>
  <unicode hex="0143"/>
  <outline>
    <contour>
      <point x="581" y="-13" type="line"/>
      <point x="220" y="533" type="line"/>
      <point x="232" y="0" type="line"/>
      <point x="119" y="-13" type="line"/>
      <point x="90" y="697" type="line"/>
      <point x="55" y="748" type="line"/>
      <point x="216" y="800" type="line"/>
      <point x="564" y="210" type="line"/>
      <point x="558" y="800" type="line"/>
      <point x="697" y="780" type="line"/>
      <point x="670" y="0" type="line"/>
    </contour>
    <contour>
      <point x="300" y="812" type="line"/>
      <point x="268" y="878" type="line"/>
      <point x="460" y="999" type="line"/>
      <point x="548" y="909" type="line"/>
    </contour>
  </outline>
</glyph>
<glyph name="uni0145" format="2">
  <advance width="789"/>
  <unicode hex="0145"/>
  <outline>
    <contour>
      <point x="581" y="-13" type="line"/>
      <point x="220" y="533" type="line"/>
      <point x="232" y="0" type="line"/>
      <point x="119" y="-13" type="line"/>
      <point x="90" y="697" type="line"/>
      <point x="55" y="748" type="line"/>
      <point x="216" y="800" type="line"/>
      <point x="564" y="210" type="line"/>
      <point x="558" y="800" type="line"/>
      <point x="697" y="780" type="line"/>
      <point x="670" y="0" type="line"/>
    </contour>
    <contour>
      <point x="423" y="-277" type="qcurve"/>
      <point x="381" y="-260" type="line"/>
      <point x="401" y="-229"/>
      <point x="402" y="-202" type="qcurve"/>
      <point x="365" y="-202"/>
      <point x="316" y="-163"/>
      <point x="316" y="-127" type="qcurve" smooth="yes"/>
      <point x="316" y="-92"/>
      <point x="361" y="-48"/>
      <point x="397" y="-48" type="qcurve" smooth="yes"/>
      <point x="433" y="-48"/>
      <point x="478" y="-94"/>
      <point x="478" y="-129" type="qcurve"/>
      <point x="476" y="-216"/>
    </contour>
  </outline>
</glyph>
<glyph name="uni0146" format="2">
  <advance width="652"/>
  <unicode hex="0146"/>
  <outline>
    <contour>
      <point x="445" y="-13" type="line"/>
      <point x="445" y="360" type="line" smooth="yes"/>
      <point x="445" y="410"/>
      <point x="385" y="463"/>
      <point x="341" y="463" type="qcurve" smooth="yes"/>
      <point x="298" y="463"/>
      <point x="227" y="417"/>
      <point x="213" y="373" type="qcurve"/>
      <point x="213" y="0" type="line"/>
      <point x="91" y="-13" type="line"/>
      <point x="71" y="572" type="line"/>
      <point x="213" y="555" type="line"/>
      <point x="213" y="490" type="line"/>
      <point x="233" y="528"/>
      <point x="312" y="567"/>
      <point x="381" y="567" type="qcurve" smooth="yes"/>
      <point x="443" y="567"/>
      <point x="489" y="541" type="qcurve" smooth="yes"/>
      <point x="583" y="489"/>
      <point x="583" y="382" type="qcurve" smooth="yes"/>
      <point x="583" y="370"/>
      <point x="563" y="0" type="qcurve"/>
    </contour>
    <contour>
      <point x="372" y="-277" type="qcurve"/>
      <point x="330" y="-260" type="line"/>
      <point x="350" y="-229"/>
      <point x="351" y="-202" type="qcurve"/>
      <point x="314" y="-202"/>
      <point x="265" y="-163"/>
      <point x="265" y="-127" type="qcurve" smooth="yes"/>
      <point x="265" y="-92"/>
      <point x="310" y="-48"/>
      <point x="346" y="-48" type="qcurve" smooth="yes"/>
      <point x="382" y="-48"/>
      <point x="427" y="-94"/>
      <point x="427" y="-129" type="qcurve"/>
      <point x="425" y="-216"/>
    </contour>
  </outline>
</glyph>
<glyph name="Ncaron" format="2">
  <advance width="789"/>
  <unicode hex="0147"/>
  <outline>
    <contour>
      <point x="581" y="-13" type="line"/>
      <point x="220" y="533" type="line"/>
      <point x="232" y="0" type="line"/>
      <point x="119" y="-13" type="line"/>
      <point x="90" y="697" type="line"/>
      <point x="55" y="748" type="line"/>
      <point x="216" y="800" type="line"/>
      <point x="564" y="210" type="line"/>
      <point x="558" y="800" type="line"/>
      <point x="697" y="780" type="line"/>
      <point x="670" y="0" type="line"/>
    </contour>
    <contour>
      <point x="427" y="815" type="line"/>
      <point x="313" y="815" type="line"/>
      <point x="174" y="964" type="line"/>
      <point x="221" y="1018" type="line"/>
      <point x="371" y="914" type="line"/>
      <point x="521" y="1018" type="line"/>
      <point x="569" y="964" type="line"/>
    </contour>
  </outline>
</glyph>
